<svg width="24" height="24" viewBox="0 0 24 24" fill="none" xmlns="http://www.w3.org/2000/svg">
<path d="M15.0566 18.3682C15.1667 18.3582 15.2766 18.3788 15.3867 18.4189L15.377 18.4287C15.7676 18.5896 15.9481 19.0319 15.7881 19.4141C15.1368 21.0136 13.6636 22 11.9502 22C10.2368 22 8.76361 21.0137 8.1123 19.4141C7.96227 19.0319 8.1428 18.5896 8.52344 18.4287C8.61359 18.3885 8.69402 18.3682 8.78418 18.3682H15.0566ZM12 2C16.5089 2 20.1765 5.85288 20.1768 10.5811V13.0869C21.2286 13.3486 22 14.2943 22 15.4209C21.9998 16.7588 20.9172 17.835 19.5947 17.835H4.40527C3.07273 17.835 2.0002 16.7487 2 15.4209C2 14.2841 2.78188 13.3377 3.83398 13.0762V10.5918C3.83398 5.85337 7.49098 2 12 2Z" fill="black"/>
</svg>
