<svg width="24" height="24" viewBox="0 0 24 24" fill="none" xmlns="http://www.w3.org/2000/svg">
<rect width="24" height="24" rx="12" fill="#252F3E"/>
<path d="M8.97901 11.5071C8.97901 11.6777 8.99738 11.816 9.02987 11.9172C9.06662 12.0185 9.11277 12.1292 9.1772 12.2488C9.19984 12.2856 9.20924 12.3223 9.20924 12.3548C9.20924 12.4005 9.18146 12.4467 9.12174 12.4927L8.83157 12.6863C8.79012 12.7137 8.74866 12.7278 8.71202 12.7278C8.66587 12.7278 8.61971 12.7047 8.57355 12.6633C8.51161 12.5964 8.4561 12.5239 8.40774 12.4467C8.3565 12.3581 8.30891 12.2674 8.26512 12.1749C7.90615 12.5987 7.45465 12.8107 6.91105 12.8107C6.52441 12.8107 6.21598 12.7 5.99001 12.4791C5.76437 12.2578 5.64941 11.963 5.64941 11.5947C5.64941 11.2033 5.78745 10.8855 6.06865 10.6463C6.3493 10.4065 6.72227 10.2869 7.19696 10.2869C7.35337 10.2869 7.51437 10.3005 7.68477 10.3236C7.8554 10.3467 8.03051 10.3835 8.2147 10.4249V10.0887C8.2147 9.73868 8.14076 9.49478 7.99813 9.35215C7.85048 9.20942 7.60187 9.14018 7.24727 9.14018C7.08616 9.14018 6.92046 9.15856 6.74995 9.20001C6.58065 9.24035 6.41445 9.29273 6.25262 9.35675C6.17868 9.38879 6.12355 9.40717 6.09151 9.41658C6.05913 9.42554 6.03605 9.43025 6.01768 9.43025C5.95315 9.43025 5.9211 9.38409 5.9211 9.28762V9.06198C5.9211 8.98804 5.93007 8.93292 5.95315 8.90054C5.97612 8.8685 6.01768 8.83645 6.08221 8.80397C6.24321 8.72106 6.4368 8.65193 6.66234 8.5967C6.88798 8.53687 7.12762 8.5092 7.38093 8.5092C7.92868 8.5092 8.32943 8.63345 8.58755 8.88217C8.84087 9.13078 8.96949 9.50845 8.96949 10.0152V11.5071H8.97901ZM7.10935 12.2074C7.26105 12.2074 7.41779 12.1796 7.5836 12.1245C7.74941 12.0689 7.89674 11.9677 8.0211 11.8297C8.0946 11.7422 8.15016 11.6455 8.17751 11.535C8.20529 11.4243 8.22366 11.291 8.22366 11.1341V10.941C8.08415 10.9068 7.94279 10.8805 7.80027 10.8624C7.65657 10.8443 7.51188 10.8351 7.36704 10.8351C7.0586 10.8351 6.83296 10.8949 6.68082 11.0192C6.52912 11.1435 6.45529 11.3183 6.45529 11.5486C6.45529 11.7652 6.51041 11.9263 6.6257 12.0369C6.73638 12.1518 6.89749 12.2074 7.10935 12.2074ZM10.8072 12.7047C10.7243 12.7047 10.6692 12.691 10.6324 12.6586C10.5952 12.6308 10.5632 12.5667 10.5354 12.4792L9.45326 8.91925C9.42591 8.82704 9.4117 8.76722 9.4117 8.73473C9.4117 8.66123 9.44855 8.61989 9.52249 8.61989H9.97366C10.0612 8.61989 10.121 8.63345 10.1535 8.66593C10.1902 8.69328 10.218 8.75781 10.2454 8.84531L11.0191 11.8942L11.7377 8.84542C11.7604 8.75354 11.7882 8.69339 11.8248 8.66604C11.862 8.63815 11.9266 8.61978 12.0095 8.61978H12.3777C12.4652 8.61978 12.5252 8.63345 12.5619 8.66593C12.5987 8.69328 12.6311 8.75781 12.6494 8.84531L13.3771 11.931L14.1739 8.84542C14.2012 8.75354 14.2337 8.69339 14.2658 8.66604C14.3025 8.63815 14.3628 8.61978 14.4456 8.61978H14.8737C14.9476 8.61978 14.9891 8.65653 14.9891 8.73473C14.9891 8.7577 14.9844 8.78089 14.9796 8.80867C14.9749 8.83645 14.966 8.8732 14.9476 8.92351L13.8377 12.4838C13.8099 12.5757 13.7778 12.6355 13.7406 12.6632C13.7039 12.691 13.6441 12.7094 13.5659 12.7094H13.1699C13.0823 12.7094 13.0225 12.6952 12.9857 12.6633C12.9486 12.6308 12.9165 12.571 12.8981 12.4791L12.1842 9.50845L11.4749 12.4744C11.452 12.5667 11.4246 12.6265 11.3874 12.6586C11.3506 12.691 11.2862 12.7047 11.2033 12.7047H10.8072ZM16.7249 12.8291C16.4857 12.8291 16.246 12.8013 16.0158 12.7462C15.7854 12.691 15.606 12.6308 15.4864 12.562C15.4124 12.5205 15.362 12.4745 15.3436 12.4329C15.3255 12.3923 15.316 12.3483 15.3159 12.3039V12.0689C15.3159 11.9725 15.3526 11.9263 15.422 11.9263C15.4493 11.9263 15.477 11.931 15.5048 11.9404C15.5321 11.9494 15.5736 11.9677 15.6196 11.9861C15.7824 12.0576 15.9523 12.1117 16.1264 12.1476C16.3105 12.1843 16.49 12.2027 16.6745 12.2027C16.9647 12.2027 17.1902 12.1518 17.3466 12.0507C17.5034 11.9494 17.5863 11.8019 17.5863 11.6132C17.5863 11.4841 17.5448 11.3785 17.462 11.2909C17.3791 11.2034 17.2223 11.1251 16.9967 11.0513L16.3289 10.844C15.9927 10.738 15.744 10.5817 15.5924 10.3745C15.4403 10.1716 15.362 9.94595 15.362 9.70675C15.362 9.51315 15.4036 9.34275 15.4864 9.19531C15.5686 9.04716 15.6817 8.91837 15.8179 8.81764C15.9559 8.71209 16.1128 8.63345 16.297 8.57833C16.481 8.5232 16.6745 8.50012 16.8771 8.50012C16.9784 8.50012 17.0842 8.50483 17.1855 8.5185C17.2915 8.53217 17.3881 8.55054 17.485 8.56892C17.5769 8.592 17.6645 8.61508 17.7474 8.64286C17.8303 8.67064 17.8948 8.69798 17.941 8.72576C18.0055 8.76251 18.0516 8.79926 18.0789 8.84061C18.1067 8.87779 18.1204 8.92833 18.1204 8.99275V9.20931C18.1204 9.306 18.0836 9.35675 18.0144 9.35675C17.9776 9.35675 17.9178 9.33804 17.8397 9.30129C17.5769 9.18164 17.2821 9.12181 16.9553 9.12181C16.6929 9.12181 16.4857 9.16326 16.343 9.25087C16.1998 9.33804 16.1264 9.47181 16.1264 9.66059C16.1264 9.78965 16.1725 9.90023 16.2644 9.9874C16.3567 10.0749 16.5272 10.1626 16.7711 10.2407L17.4252 10.448C17.7568 10.554 17.9961 10.7013 18.1387 10.8902C18.2815 11.0791 18.3507 11.2956 18.3507 11.535C18.3507 11.7331 18.3091 11.9126 18.231 12.0689C18.1481 12.2258 18.0374 12.3638 17.8948 12.4744C17.7521 12.5893 17.5816 12.6722 17.3838 12.7325C17.1766 12.7966 16.96 12.8291 16.7249 12.8291Z" fill="white"/>
<path d="M17.9062 13.6626C17.4214 13.6695 16.8492 13.7777 16.4164 14.0817C16.2826 14.1783 16.3057 14.3073 16.4531 14.2889C16.9462 14.229 18.0325 14.1001 18.2261 14.3487C18.4197 14.5926 18.01 15.6196 17.8255 16.0757C17.7703 16.2136 17.89 16.2692 18.0142 16.1632C18.8247 15.4817 19.0367 14.0586 18.8709 13.8514C18.7881 13.7502 18.3909 13.6556 17.9062 13.6626ZM5.1782 13.9372C5.07681 13.9499 5.03087 14.0724 5.13795 14.1692C6.94351 15.7991 9.33347 16.7802 11.9862 16.7802C13.879 16.7802 16.0802 16.1863 17.5951 15.0674C17.8437 14.8828 17.6276 14.6021 17.3742 14.717C15.6751 15.4356 13.8281 15.7856 12.1474 15.7856C9.65601 15.7856 7.24736 15.0995 5.29469 13.9663C5.25203 13.9411 5.21211 13.9331 5.17831 13.9372H5.1782Z" fill="white"/>
</svg>
