<svg width="24" height="24" viewBox="0 0 24 24" fill="none" xmlns="http://www.w3.org/2000/svg">
<rect width="24" height="24" rx="12" fill="#00599C"/>
<path d="M18.0527 8.6587C17.9554 8.48983 17.8209 8.3425 17.673 8.25689L12.5392 5.29283C12.2427 5.12163 11.7588 5.12163 11.463 5.29283L6.32802 8.25689C6.03219 8.42752 5.79053 8.84679 5.79053 9.18862V15.1167C5.79053 15.288 5.85109 15.4778 5.94834 15.6467C6.04559 15.8155 6.18011 15.9629 6.32802 16.0485L11.4618 19.0125C11.7577 19.1832 12.2422 19.1832 12.538 19.0125L17.6718 16.0485C17.8197 15.9629 17.9542 15.8155 18.0515 15.6467C18.1487 15.4778 18.2087 15.288 18.2087 15.1167V9.18862C18.2105 9.01742 18.1505 8.82758 18.0527 8.6587ZM11.9999 16.2931C9.71718 16.2931 7.86013 14.4354 7.86013 12.1527C7.86013 9.86995 9.71776 8.01232 12.0005 8.01232C12.7268 8.0137 13.44 8.20547 14.069 8.56851C14.698 8.93155 15.2208 9.45317 15.5853 10.0813L13.7941 11.1179C13.612 10.8033 13.3505 10.542 13.0357 10.3601C12.721 10.1782 12.364 10.0821 12.0005 10.0813C11.4513 10.0818 10.9247 10.3002 10.5363 10.6885C10.148 11.0769 9.92961 11.6035 9.92915 12.1527C9.92992 12.7016 10.1484 13.2278 10.5365 13.6159C10.9247 14.004 11.451 14.2223 11.9999 14.2229C12.3633 14.2221 12.7201 14.1261 13.0348 13.9444C13.3495 13.7627 13.6111 13.5018 13.7935 13.1875L15.5859 14.224C15.2212 14.8523 14.6982 15.374 14.069 15.737C13.4397 16.1 12.7263 16.2918 11.9999 16.2931ZM16.1403 12.3827H15.6802V12.8427H15.2202V12.3827H14.7602V11.9227H15.2202V11.4626H15.6802V11.9227H16.1403V12.3827ZM17.8651 12.3827H17.4051V12.8427H16.9451V12.3827H16.485V11.9227H16.9451V11.4626H17.4051V11.9227H17.8651V12.3827Z" fill="white"/>
</svg>
