<svg width="24" height="24" viewBox="0 0 24 24" fill="none" xmlns="http://www.w3.org/2000/svg">
<path d="M8.42484 17.7514C6.27567 17.7514 5.20078 17.7516 4.65238 17.312C4.17558 16.9296 3.89948 16.3499 3.90336 15.7387C3.90785 15.0359 4.58607 14.2018 5.94145 12.5337L9.51664 8.13328C10.3668 7.0869 10.792 6.56366 11.3038 6.37352C11.7527 6.20688 12.2473 6.20688 12.6963 6.37352C13.2081 6.56367 13.6333 7.0869 14.4834 8.13328L18.0586 12.5337C19.414 14.2018 20.0922 15.0359 20.0967 15.7388C20.1006 16.3499 19.8245 16.9296 19.3477 17.312C18.7993 17.7516 17.7244 17.7514 15.5752 17.7514H8.42484Z" fill="black"/>
</svg>
