<svg width="24" height="24" viewBox="0 0 24 24" fill="none" xmlns="http://www.w3.org/2000/svg">
<path d="M15.5752 7.35229C17.7244 7.35229 18.7993 7.35212 19.3477 7.79175C19.8245 8.17412 20.1006 8.75382 20.0967 9.36499C20.0922 10.0679 19.414 10.9019 18.0586 12.5701L14.4834 16.9705C13.6333 18.0168 13.2081 18.5401 12.6963 18.7302C12.2473 18.8969 11.7527 18.8969 11.3038 18.7302C10.792 18.5401 10.3668 18.0168 9.51664 16.9705L5.94145 12.5701C4.58607 10.9019 3.90785 10.0679 3.90336 9.36499C3.89948 8.75382 4.17559 8.17412 4.65238 7.79175C5.20078 7.35211 6.27566 7.35229 8.42485 7.35229H15.5752Z" fill="black"/>
</svg>
