<svg width="24" height="24" viewBox="0 0 24 24" fill="none" xmlns="http://www.w3.org/2000/svg">
<path d="M18.8672 3.71838C19.2577 3.32786 19.8917 3.32786 20.2822 3.71838C20.6723 4.10885 20.6724 4.74201 20.2822 5.13245L13.416 11.9977L20.2822 18.8639C20.6727 19.2544 20.6727 19.8884 20.2822 20.2789C19.8917 20.6694 19.2577 20.6694 18.8672 20.2789L12.001 13.4127L5.13574 20.2789C4.7453 20.6691 4.11215 20.6691 3.72168 20.2789C3.33116 19.8884 3.33116 19.2544 3.72168 18.8639L10.5869 11.9977L3.72168 5.13245C3.33116 4.74192 3.33116 4.10891 3.72168 3.71838C4.1122 3.32786 4.74522 3.32786 5.13574 3.71838L12.001 10.5836L18.8672 3.71838Z" fill="black"/>
</svg>
