<svg width="24" height="24" viewBox="0 0 24 24" fill="none" xmlns="http://www.w3.org/2000/svg">
<path d="M19.2196 3.71991C19.5125 3.42702 19.9873 3.42702 20.2802 3.71991C20.5729 4.01282 20.573 4.48763 20.2802 4.78046L13.0604 12.0002L20.2802 19.2199C20.5729 19.5128 20.573 19.9876 20.2802 20.2805C19.9873 20.5732 19.5125 20.5731 19.2196 20.2805L11.9999 13.0607L4.78016 20.2805C4.48731 20.5732 4.01248 20.5731 3.71961 20.2805C3.42676 19.9876 3.42684 19.5128 3.71961 19.2199L10.9393 12.0002L3.71961 4.78046C3.42676 4.48761 3.42684 4.01282 3.71961 3.71991C4.0125 3.42702 4.48726 3.42702 4.78016 3.71991L11.9999 10.9396L19.2196 3.71991Z" fill="black"/>
</svg>
