<svg width="100" height="100" viewBox="0 0 100 100" fill="none" xmlns="http://www.w3.org/2000/svg">
<path d="M49.2892 87.0112C69.9142 87.0112 86.6341 84.0985 86.6341 80.5056C86.6341 76.9127 69.9142 74 49.2892 74C28.6642 74 11.9443 76.9127 11.9443 80.5056C11.9443 84.0985 28.6642 87.0112 49.2892 87.0112Z" fill="#DDE7FF"/>
<path d="M48.7544 71.4007C21.3593 72.9754 24.5569 75.9096 23.4163 48.4632C22.7556 35.1931 33.0759 23.7902 46.3493 23.1306C77.6306 21.1786 80.0748 70.2411 48.7544 71.4007Z" fill="#3368FF"/>
<path d="M43.8772 53.6595C48.3627 53.6595 51.9999 50.0234 51.9999 45.539C51.9999 41.0546 48.3638 37.4185 43.8772 37.4185C39.3906 37.4185 35.7544 41.0546 35.7544 45.539C35.7544 50.0234 39.3906 53.6595 43.8772 53.6595Z" fill="white"/>
<path d="M84.3156 42.8295L77.1009 40.7402C76.3904 40.5345 75.6477 40.9436 75.4419 41.6541L68.1348 66.8875C67.9291 67.598 68.3383 68.3407 69.0487 68.5465L76.2635 70.6357C76.974 70.8414 77.7167 70.4323 77.9224 69.7218L85.2295 44.4884C85.4353 43.7779 85.0261 43.0352 84.3156 42.8295Z" fill="#2463ED"/>
<path d="M58.9616 53.6595C63.4471 53.6595 67.0844 50.0234 67.0844 45.539C67.0844 41.0546 63.4482 37.4185 58.9616 37.4185C54.475 37.4185 50.8389 41.0546 50.8389 45.539C50.8389 50.0234 54.475 53.6595 58.9616 53.6595Z" fill="white"/>
<path d="M46.6974 50C49.1617 50 51.1595 48.0022 51.1595 45.5391C51.1595 43.0759 49.1617 41.0781 46.6974 41.0781C44.2331 41.0781 42.2354 43.0759 42.2354 45.5391C42.2354 48.0022 44.2331 50 46.6974 50Z" fill="#1D2955"/>
<path d="M61.6974 50C64.1617 50 66.1595 48.0022 66.1595 45.5391C66.1595 43.0759 64.1617 41.0781 61.6974 41.0781C59.2331 41.0781 57.2354 43.0759 57.2354 45.5391C57.2354 48.0022 59.2331 50 61.6974 50Z" fill="#1D2955"/>
<path d="M71.356 18.0569C77.876 19.058 83.3415 23.0881 85.6673 26.4073" stroke="#3368FF" stroke-width="0.625" stroke-linecap="round"/>
<path d="M79.0006 19.8633L78.0697 21.3001C77.9748 21.4465 78.0166 21.6421 78.163 21.7369L79.5998 22.6679C79.7462 22.7627 79.9418 22.7209 80.0367 22.5745L80.9676 21.1377C81.0625 20.9913 81.0207 20.7958 80.8743 20.7009L79.4375 19.77C79.2911 19.6751 79.0955 19.7169 79.0006 19.8633Z" fill="#3368FF"/>
<path d="M71.356 18.9208C71.8331 18.9208 72.2199 18.534 72.2199 18.057C72.2199 17.5799 71.8331 17.1931 71.356 17.1931C70.8789 17.1931 70.4922 17.5799 70.4922 18.057C70.4922 18.534 70.8789 18.9208 71.356 18.9208Z" fill="#3368FF"/>
<path d="M85.6675 27.27C86.1446 27.27 86.5314 26.8833 86.5314 26.4062C86.5314 25.9291 86.1446 25.5424 85.6675 25.5424C85.1905 25.5424 84.8037 25.9291 84.8037 26.4062C84.8037 26.8833 85.1905 27.27 85.6675 27.27Z" fill="#3368FF"/>
<path d="M45.2588 57.3582C45.2588 60.3716 47.8258 62.9385 50.8391 62.9385C53.8525 62.9385 56.4195 60.3716 56.4195 57.3582C56.4195 56.3537 55.6383 55.6841 54.6338 55.6841H47.0445C46.04 55.6841 45.2588 56.3537 45.2588 57.3582Z" fill="#18224A"/>
<path d="M9.9409 40.1117C9.52795 38.884 8.41076 38.0313 7.11835 37.9554C6.63398 37.9275 6.54357 37.2512 7.0034 37.0971C8.23107 36.6842 9.08375 35.567 9.15965 34.2746C9.18755 33.7902 9.86389 33.6998 10.0179 34.1596C10.4309 35.3873 11.548 36.24 12.8404 36.3159C13.3248 36.3438 13.4152 37.0201 12.9554 37.1742C11.7277 37.5871 10.875 38.7043 10.7992 39.9967C10.7713 40.4811 10.0949 40.5715 9.9409 40.1117Z" fill="#FFC83D"/>
<path d="M23.7927 57.5647C26.1298 59.039 27.3028 61.8928 26.7916 64.5591C26.5093 66.0312 25.8318 67.356 24.7124 68.3325C24.0662 68.8962 23.3776 69.327 22.5494 69.5401C21.5818 69.789 20.5517 69.77 19.5963 69.4665C17.7593 68.8816 16.3385 67.4843 15.6231 65.6685C14.7436 63.4363 15.0193 60.8872 16.401 58.9252C16.7503 58.4296 17.1755 57.981 17.6476 57.6484C19.5003 56.3437 21.901 56.3705 23.7916 57.5636L23.7927 57.5647Z" fill="#3368FF"/>
<path d="M61.5799 78.4989C61.5866 79.1797 61.7105 79.9007 61.5285 80.6194C61.3567 81.3002 60.8767 81.8571 60.475 82.4096L60.2015 82.7868C56.8154 85.9118 51.5419 87.0525 46.9314 87.0145C43.8176 86.9888 40.8243 86.5078 37.9593 85.3292C36.3198 84.6551 34.831 83.7935 33.5832 82.6049C32.6759 81.74 31.9839 80.6116 31.6379 79.375C31.5598 79.0982 31.61 78.8214 31.3979 78.6563C31.4772 78.5737 31.543 78.4509 31.543 78.2946L31.5341 76.8047C32.2953 80.6451 36.2495 82.9922 39.898 84.048C45.4917 85.6663 52.5129 85.452 57.6859 82.6752C59.4147 81.7478 61.0576 80.3571 61.5821 78.5L61.5799 78.4989Z" fill="#C8CCE3"/>
<path d="M19.816 47.7691C19.8997 47.8461 19.999 47.9901 20.0626 48.1463L23.8439 57.3573C23.8818 57.4488 23.826 57.5325 23.7926 57.5649C21.9019 56.3718 19.5013 56.345 17.6486 57.6497L14.1586 49.3416C14.1051 49.2111 14.0872 49.0582 14.0928 48.9599L14.7803 48.6274C15.4577 48.4577 16.1151 48.7278 16.6943 49.191C16.8383 48.5314 17.0794 47.8796 17.6609 47.5381C18.3673 47.124 19.1809 47.3684 19.8171 47.7702L19.816 47.7691Z" fill="#FDC842"/>
<path d="M18.3552 42.6339L21.7815 45.8816C20.863 45.904 20.1621 46.5825 20.0159 47.4921C19.9936 47.6339 19.9512 47.7622 19.8161 47.7678C19.18 47.366 18.3664 47.1205 17.6599 47.5357C17.0784 47.8772 16.8373 48.5301 16.6934 49.1886C16.1141 48.7254 15.4568 48.4564 14.7793 48.6249L14.0918 48.9575L14.411 43.0345C15.5739 43.289 16.7759 42.8203 17.4088 41.8158C17.7447 42.0145 18.065 42.356 18.3563 42.6328L18.3552 42.6339Z" fill="#FBD6A2"/>
<path d="M17.4084 41.818C16.7767 42.8236 15.5736 43.2912 14.4106 43.0367L14.5412 39.7198C14.5468 39.5702 14.6372 39.4452 14.7321 39.3994C14.8269 39.3537 14.9754 39.357 15.0792 39.4564L17.1528 41.4407C17.2834 41.5657 17.3682 41.6907 17.4084 41.818Z" fill="#1E2952"/>
<path d="M56.7781 69.9509C56.3238 70.4107 56.0459 70.8616 55.22 70.9933L53.7267 71.2321C53.0013 71.3482 52.3651 71.7098 51.9477 72.3169C51.6073 72.8125 51.6319 73.5234 52.0895 73.8672C52.1765 74.173 52.4846 74.3047 52.7848 74.4788C54.8674 75.3247 56.614 74.0881 58.8729 74.7522C59.7892 75.0223 60.6419 75.5223 61.1754 76.3147C61.3596 76.5893 61.566 76.9319 61.5683 77.202L61.5805 78.4977C61.0571 80.3549 59.4131 81.7444 57.6843 82.673C52.5125 85.4497 45.4912 85.664 39.8964 84.0457C36.2479 82.9899 32.2948 80.6439 31.5325 76.8024C31.5281 76.0368 31.5325 75.2801 31.8116 74.51C32.0604 73.8236 32.3272 73.1317 32.7669 72.5915L33.5883 71.5814C36.0917 68.9408 39.8506 67.5736 43.4198 66.9207C46.6821 66.3236 49.9633 66.356 53.1821 67.1339C54.2044 67.3806 55.1508 67.7288 55.9957 68.2835C56.6185 68.6919 56.7714 69.2779 56.777 69.9509H56.7781ZM48.7022 71.2957C49.0727 70.9989 49.3026 70.5669 49.2881 70.1294C49.2212 68.2064 45.0069 67.5301 43.1363 69.1272C42.7792 69.4319 42.575 69.8582 42.5895 70.3024C42.6486 72.1339 46.787 72.8303 48.7022 71.2957ZM41.2546 74.885C41.9008 74.4442 42.2625 73.7221 41.9444 73.0245C41.1263 71.2288 36.9935 70.9151 35.4667 72.7321C34.9421 73.356 35.0895 74.221 35.7234 74.7477C37.0939 75.8861 39.7792 75.8939 41.2546 74.8861V74.885ZM45.0761 78.5669C44.8863 76.7678 41.5761 75.9207 39.2212 77.0156C38.6308 77.2901 38.1408 77.7143 37.931 78.327C37.6821 79.0535 38.0515 79.8203 38.7491 80.2288C41.3919 81.7779 45.2859 80.5614 45.0761 78.5669ZM53.7491 80.3527C53.8116 79.7935 53.5638 79.2868 53.1218 78.9096C51.6185 77.6283 48.6497 77.6306 47.1564 78.9609C46.7301 79.3415 46.5102 79.8694 46.585 80.433C46.6453 80.8895 46.9656 81.3627 47.4689 81.6663C49.9388 83.1551 53.5504 82.1361 53.7491 80.3527Z" fill="#F5F6FA"/>
<path d="M21.781 45.8828L26.2955 56.8281L29.5667 64.8214L31.3212 69.192L29.2118 69.8326C29.1381 69.7746 28.9874 69.7254 28.9406 69.6127L26.7899 64.5592C27.3011 61.894 26.1281 59.0391 23.791 57.5647C23.8245 57.5324 23.8803 57.4487 23.8424 57.3571L20.0611 48.1462C19.9964 47.99 19.8982 47.846 19.8145 47.769C19.9495 47.7634 19.9908 47.635 20.0142 47.4933C20.1604 46.5826 20.8624 45.904 21.7799 45.8828H21.781Z" fill="#FBCF5E"/>
<path d="M32.2736 71.4197C32.3483 71.8081 32.691 72.1563 32.768 72.5927C32.3282 73.1329 32.0615 73.8248 31.8126 74.5112C31.5325 75.2813 31.5291 76.038 31.5336 76.8036L31.5425 78.2936C31.5425 78.4487 31.4767 78.5726 31.3974 78.6552C31.2546 78.6786 31.1218 78.7467 30.951 78.8248C28.9443 79.7545 26.3885 79.057 25.5247 76.9978L24.9834 75.7076L24.6463 74.798C24.6273 74.5447 24.8193 74.4286 25.0403 74.2902C26.1965 73.5693 27.4186 73.0882 28.6843 72.5793C29.8751 72.1005 31.0213 71.6753 32.2724 71.4186L32.2736 71.4197Z" fill="#F975AE"/>
<path d="M31.323 69.192C31.4245 69.288 31.564 69.3974 31.6511 69.5938L32.131 70.6742L32.2739 71.4186C31.0216 71.6742 29.8765 72.1005 28.6857 72.5793C27.4201 73.0882 26.198 73.5692 25.0417 74.2902C24.8207 74.4286 24.6277 74.5436 24.6477 74.798L24.323 74.3226L23.8509 73.2311C23.7102 72.9074 23.7448 72.6239 23.6533 72.3817C24.7861 71.7099 25.9357 71.1139 27.1835 70.6262L29.2136 69.8326L31.323 69.192Z" fill="#7291F0"/>
<path d="M56.7783 69.9509L56.7895 71.2634C56.7939 71.8494 56.3285 72.2601 55.8274 72.5067C54.7013 73.0603 53.2046 72.5346 52.0897 73.8672C51.6321 73.5235 51.6075 72.8137 51.9479 72.317C52.3654 71.7087 53.0004 71.3482 53.727 71.2322L55.2203 70.9933C56.0462 70.8616 56.3241 70.4096 56.7783 69.9509Z" fill="#C8CCE3"/>
<path d="M29.2129 69.8326L27.1828 70.6261C25.935 71.1139 24.7866 71.7087 23.6526 72.3817L22.5488 69.5413C23.377 69.3282 24.0667 68.8974 24.7118 68.3337C25.8312 67.3572 26.5087 66.0313 26.791 64.5603L28.9417 69.6139C28.9886 69.7266 29.1392 69.7768 29.2129 69.8337V69.8326Z" fill="#FDC842"/>
<path d="M45.0757 78.5669C45.2855 80.5613 41.3915 81.7778 38.7487 80.2287C38.0523 79.8202 37.6817 79.0535 37.9306 78.3269C38.1404 77.7142 38.6304 77.289 39.2208 77.0155C41.5757 75.9218 44.886 76.7678 45.0757 78.5669Z" fill="#4FD9BB"/>
<path d="M53.7493 80.3527C53.5506 82.1362 49.939 83.1552 47.4691 81.6664C46.9658 81.3628 46.6455 80.8896 46.5852 80.4331C46.5104 79.8695 46.7303 79.3416 47.1566 78.961C48.65 77.6306 51.6187 77.6295 53.1221 78.9097C53.564 79.2869 53.8118 79.7925 53.7493 80.3527Z" fill="#3068FC"/>
<path d="M41.2546 74.885C39.778 75.8939 37.0939 75.885 35.7233 74.7466C35.0894 74.2209 34.9421 73.356 35.4666 72.731C36.9934 70.914 41.1262 71.2276 41.9443 73.0234C42.2624 73.7209 41.9008 74.443 41.2546 74.8839V74.885Z" fill="#FDC842"/>
<path d="M84.3196 42.8248L77.1054 40.7367C76.3978 40.5313 75.6511 40.9431 75.4469 41.6507L74.9067 43.5168L79.1913 44.7891L78.9056 45.7523L74.6266 44.4822L74.2449 45.8025L78.4391 47.0481L78.1533 48.0112L73.9658 46.7679L73.602 48.0268L77.7996 49.2735L77.5138 50.2367L73.323 48.9923L72.9301 50.3472L77.1857 51.6106L76.9 52.5737L72.6511 51.3126L72.2783 52.5983L76.5027 53.8527L76.217 54.8159L71.9993 53.5637L68.1422 66.8873C67.9368 67.5949 68.3487 68.3416 69.0563 68.5458L76.2705 70.634C76.9781 70.8393 77.7248 70.4275 77.929 69.7199L85.2348 44.4856C85.4402 43.778 85.0283 43.0313 84.3208 42.8271L84.3196 42.8248Z" fill="#7291F0"/>
<path d="M48.7023 71.2957C46.7871 72.8303 42.6487 72.1339 42.5896 70.3024C42.5751 69.8593 42.7793 69.433 43.1365 69.1272C45.007 67.5301 49.2213 68.2064 49.2882 70.1294C49.3039 70.5669 49.0728 70.9988 48.7023 71.2957Z" fill="#F975AE"/>
<path d="M90.8436 57.7076C91.3101 57.8058 91.5076 58.3081 91.4641 58.6998C91.4206 59.0915 91.0422 59.5301 90.5913 59.4364L87.8324 58.8583C87.3849 58.7645 87.2074 58.2377 87.2822 57.846C87.357 57.4498 87.7509 57.0558 88.2063 57.1518L90.8447 57.7087L90.8436 57.7076Z" fill="#4C81FD"/>
<path d="M88.1049 54.8058C87.6919 55.0513 87.2165 54.8816 86.9966 54.5647C86.75 54.2075 86.7656 53.625 87.164 53.3828L89.2879 52.0937C89.7154 51.8348 90.2388 51.8437 90.5357 52.2611C90.7846 52.6104 90.7734 53.2154 90.3426 53.4721L88.1049 54.8058Z" fill="#4C81FD"/>
<path d="M78.0995 73.5244C79.364 73.5535 80.5895 74.0177 81.4924 74.9619C81.8038 75.2867 82.0995 75.7052 82.2759 76.1338C82.9689 77.8224 82.6419 79.8347 81.7156 81.3448C80.9823 82.5423 79.9421 83.501 78.6486 84.0814C76.7167 84.9474 74.2569 84.5814 72.9421 82.905C72.0872 81.8146 71.8238 80.4073 72.0192 79.0468C72.0482 78.8459 72.0493 78.6249 72.1017 78.472L72.46 77.4162C73.2937 75.52 74.8752 74.0758 76.9009 73.6405C77.325 73.549 77.7022 73.5144 78.0995 73.5233V73.5244Z" fill="#3368FF"/>
<path d="M90.6675 67.366L86.8851 62.5223C86.5045 62.0346 86.0425 61.8884 85.4967 61.7053C85.2579 61.3549 85.0023 60.9285 84.5994 60.6718L80.7768 58.2332L79.3494 57.3638C78.8594 57.0658 78.2813 57.1216 77.7534 57.337C77.4922 57.0971 77.2601 56.8147 76.9208 56.7332L72.9175 55.7756C72.346 55.6395 71.5871 55.5781 71.0893 55.3314L70.769 55.26L70.7556 54.2265C70.7556 54.145 70.7288 54.0892 70.7009 54.0625C70.6786 54.0401 70.6306 54.0346 70.5983 54.0435L70.6195 55.298C69.8974 55.1919 69.3081 55.4341 68.9074 55.9587C68.4811 55.6116 68.009 55.6596 67.4978 55.7187L61.3996 56.4319C60.3974 56.5491 59.7434 57.4341 59.846 58.4163L60.4376 64.0401L62.1396 80.0669C62.2088 80.7142 62.4487 81.2444 62.8505 81.6607C63.3639 82.1942 63.807 82.2053 63.9297 82.4654C64.1239 82.433 64.3338 82.4799 64.5525 82.5625L65.6942 82.9921C65.7467 83.0122 65.788 82.9754 65.7768 82.933L66.1842 83.2544C66.8728 83.7968 67.7054 84.1718 68.5692 84.4854C69.5983 84.8593 70.7188 84.6986 71.5391 84.0558L72.9409 82.9062C72.086 81.8158 71.8226 80.4084 72.0179 79.0479C72.0469 78.8471 72.048 78.6261 72.1005 78.4732C71.9454 78.4776 71.8862 78.3984 71.8036 78.2879L70.2713 76.2321C70.0413 75.9877 69.932 75.6964 70.067 75.3158C70.1027 75.0993 70.4253 74.9654 70.634 74.7957L74.6563 71.5234C74.8271 71.385 75.0927 71.2276 75.2735 71.3303C75.307 70.962 75.682 70.741 76.0079 70.6808C76.0123 70.6015 76.009 70.4296 76.1105 70.3493L79.8159 67.4118C79.9922 67.2723 80.1976 67.2466 80.3795 67.27C80.4855 66.8973 80.8907 66.6049 81.2076 66.4542C81.2434 66.3192 81.3237 66.2042 81.4777 66.0848L84.8304 63.4988C85.2668 63.1618 85.8405 63.491 86.1373 63.8705L89.096 67.6462C89.5034 68.1663 89.4934 68.7723 88.9465 69.1986L85.653 71.76C85.5313 71.8549 85.4163 71.8705 85.3081 71.8616C85.0882 72.2098 84.682 72.4754 84.3193 72.6484C84.2478 72.7555 84.1697 72.9129 84.0257 73.0234L81.4934 74.9642C81.8047 75.289 82.1005 75.7075 82.2768 76.1361L90.1273 70.029C90.9811 69.3671 91.3907 68.2935 90.6675 67.3671V67.366ZM68.8036 61.5859C68.8014 61.4296 68.7824 61.1808 68.8338 60.9743L69.7489 57.3203C69.8661 56.8515 70.4621 56.7031 70.8896 56.8002L75.7411 57.8984C76.2344 57.952 76.5782 58.3482 76.5001 58.8247L73.8538 62.9229L73.5771 63.4464C73.5012 63.5904 73.4431 63.7187 73.3338 63.7745L70.4074 68.3482L69.8829 69.1942L66.4387 74.5892L66.1384 75.0591L65.8672 75.6026L64.5737 77.7098C64.0458 78.5703 64.0369 79.5825 64.4509 80.4955C64.5213 80.6506 64.4543 80.7935 64.4041 80.9006C64.3728 80.9676 64.163 81.0848 64.0927 80.9955C62.9565 78.8035 63.5759 78.5691 64.2869 77.2645L65.6474 74.7645C65.7266 74.6194 65.6139 74.3303 65.6708 74.0971L66.894 69.1004C66.9353 68.9308 67.0559 68.5636 67.2567 68.6071C67.0826 68.2366 67.1853 67.8772 67.4074 67.606C67.3427 67.3817 67.3516 67.1082 67.4219 66.8247L68.2668 63.395C68.3293 63.1406 68.4197 62.9029 68.5503 62.7377C68.5146 62.3459 68.6507 61.9509 68.8014 61.5859H68.8036ZM65.1942 77.4832C65.2355 77.4933 65.298 77.6205 65.1708 77.6997C65.0771 77.9006 64.8684 77.7276 65.0157 77.5937C65.0659 77.5 65.153 77.4721 65.1942 77.4832ZM61.8505 64.6808L61.8873 64.0178C61.8449 63.6417 61.6273 63.2879 61.8617 62.9062C61.7177 62.8002 61.6463 62.6517 61.625 62.4553L61.2188 58.6038C61.163 58.0725 61.7088 57.7913 62.1719 57.7366L67.3371 57.1294C67.7478 57.0814 68.3114 57.443 68.2065 57.895L67.1652 62.3593L66.9286 63.3415L65.6797 68.4163L65.4376 69.4341L63.9063 75.8482C63.6652 75.8459 63.4375 75.8627 63.2378 75.7834L63.0179 75.4263L62.4721 70.3805C62.4487 70.1685 62.49 69.9765 62.5257 69.8169C62.3137 69.491 62.3617 69.0312 62.317 68.6584L61.8505 64.6796V64.6808ZM69.5726 80.2667C69.3103 81.0122 68.6083 81.4397 67.7958 81.2176C67.1909 81.0524 66.6797 80.4151 66.7802 79.6674C66.9007 78.7745 67.7322 78.1875 68.6217 78.4308C69.3617 78.6328 69.8572 79.4564 69.5726 80.2656V80.2667ZM83.807 62.5591L79.7233 65.7388C79.4521 65.9497 79.2244 66.2913 78.8471 66.3136C78.8695 66.4341 78.8237 66.4854 78.7155 66.5714L74.5603 69.8638L73.7512 70.529L69.5949 73.895L68.3248 74.9207L65.298 77.4553L65.2054 77.3471L67.2735 75.2578L67.7512 74.8638C67.9096 74.7332 68.0168 74.5993 68.2043 74.6015C68.1172 74.3192 68.3315 74.0491 68.5101 73.7745L71.3003 69.4877C71.3951 69.3426 71.471 69.2622 71.6161 69.2522C71.6284 68.8761 71.8728 68.4743 72.2199 68.3158C72.2222 68.2198 72.1931 68.0468 72.2757 67.9174L74.6686 64.1875C74.7222 64.1038 74.8126 64.0658 74.8605 64.0279C74.9867 63.6551 75.2467 63.2142 75.5525 62.9698C75.5949 62.8024 75.6708 62.6049 75.7902 62.4163L77.721 59.366C77.9197 59.0513 78.1485 58.8538 78.4342 58.789C78.8483 58.6953 79.0759 58.8582 79.3985 59.0602L83.3237 61.5245C83.6228 61.712 84.0224 62.202 83.8081 62.5602L83.807 62.5591Z" fill="#F5F6FA"/>
<path d="M85.3065 71.8605L81.5878 67.115C81.4159 66.8929 81.244 66.7233 81.2061 66.4543C81.2418 66.3192 81.3221 66.2043 81.4761 66.0849L84.8288 63.4989C85.2652 63.1619 85.8389 63.4911 86.1357 63.8706L89.0944 67.6462C89.5018 68.1663 89.4918 68.7724 88.9449 69.1987L85.6514 71.7601C85.5297 71.855 85.4148 71.8706 85.3065 71.8617V71.8605Z" fill="#4C81FD"/>
<path d="M80.3792 67.2689L84.0544 71.9831C84.2218 72.1974 84.32 72.395 84.3189 72.6472C84.2475 72.7544 84.1694 72.9117 84.0254 73.0222L81.4941 74.9631C80.5912 74.0189 79.3658 73.5557 78.1013 73.5256L76.0098 70.6818C76.0142 70.6026 76.0109 70.4307 76.1124 70.3503L79.8178 67.4128C79.9941 67.2733 80.1995 67.2477 80.3814 67.2711L80.3792 67.2689Z" fill="#7291F0"/>
<path d="M79.7235 65.7388L75.8987 63.2589L75.5527 62.9687C75.5951 62.8013 75.671 62.6038 75.7905 62.4152L77.7213 59.3649C77.9199 59.0502 78.1487 58.8527 78.4344 58.7879C78.8485 58.6942 79.0762 58.8571 79.3987 59.0591L83.3239 61.5234C83.623 61.7109 84.0226 62.2009 83.8083 62.5591L79.7246 65.7388H79.7235Z" fill="#4FD9BB"/>
<path d="M67.1652 62.3606C66.99 62.3215 66.817 62.3516 66.6652 62.4331C66.471 62.3907 66.2601 62.4041 66.0179 62.432L61.8617 62.9063C61.7177 62.8003 61.6462 62.6518 61.625 62.4554L61.2188 58.6039C61.163 58.0726 61.7088 57.7914 62.1719 57.7367L67.3371 57.1295C67.7478 57.0815 68.3114 57.4431 68.2065 57.8952L67.1652 62.3594V62.3606Z" fill="#F975AE"/>
<path d="M73.8553 62.9219L69.1064 61.7444C68.9781 61.7143 68.8843 61.6216 68.8051 61.5859C68.8028 61.4297 68.7839 61.1808 68.8352 60.9743L69.7504 57.3203C69.8676 56.8516 70.4635 56.7031 70.891 56.8002L75.7426 57.8984C76.2359 57.952 76.5796 58.3482 76.5015 58.8248L73.8553 62.923V62.9219Z" fill="#FBCF5E"/>
<path d="M73.3347 63.7744L70.4084 68.3481L67.4095 67.6059C67.3448 67.3816 67.3537 67.1081 67.424 66.8247L68.2689 63.395C68.3314 63.1405 68.4218 62.9028 68.5523 62.7376C68.8515 62.7175 69.1428 62.7878 69.4619 62.8604L73.3336 63.7744H73.3347Z" fill="#FBCF5E"/>
<path d="M66.5424 63.3436H66.9297L65.6808 68.4173C65.4654 68.405 65.2623 68.4307 65.0647 68.4787L62.9833 68.7097C62.7388 68.7365 62.5346 68.7577 62.3181 68.6595L61.8516 64.6807L61.8884 64.0178C62.0692 63.8771 62.2712 63.8481 62.5134 63.8191L66.5435 63.3425L66.5424 63.3436Z" fill="#F975AE"/>
<path d="M78.8469 66.3136C78.8692 66.4341 78.8234 66.4854 78.7152 66.5714L74.56 69.8638L72.5734 68.5948L72.2185 68.3147C72.2207 68.2187 72.1917 68.0457 72.2743 67.9162L74.6672 64.1863C74.7207 64.1026 74.8111 64.0647 74.8591 64.0267C74.9908 64.0267 75.1794 64.0033 75.3234 64.0948L78.8469 66.3136Z" fill="#4FD9BB"/>
<path d="M75.2732 71.3305L76.6839 73.2378C76.7854 73.3762 76.8747 73.4956 76.9015 73.643C74.8758 74.0793 73.2944 75.5224 72.4607 77.4186L70.9395 75.4767C70.7787 75.259 70.6337 75.0615 70.6348 74.797L74.6571 71.5247C74.8278 71.3863 75.0935 71.2289 75.2743 71.3316L75.2732 71.3305Z" fill="#7291F0"/>
<path d="M64.9022 69.4599L65.4391 69.4353L63.8888 75.9297C63.8208 75.9297 63.7549 75.9331 63.6913 75.9375C63.4279 75.9554 63.1835 75.8047 63.0786 75.5636L63.0194 75.4275L62.4737 70.3817C62.4502 70.1697 62.4915 69.9777 62.5272 69.8181C62.7036 69.7489 62.8877 69.702 63.0975 69.6764L64.9022 69.4599Z" fill="#F975AE"/>
<path d="M69.8839 69.1942L66.4397 74.5893L66.1395 75.0592L65.6484 74.7646C65.7277 74.6195 65.615 74.3304 65.6719 74.0971L66.8951 69.1005C66.9364 68.9309 67.0569 68.5637 67.2578 68.6072L69.8839 69.1942Z" fill="#FDC842"/>
<path d="M71.6157 69.25C71.802 69.2667 71.9438 69.3806 72.1157 69.4888L73.7518 70.5268L69.5956 73.8929L68.3255 74.9185L68.2061 74.5993C68.119 74.317 68.3333 74.0469 68.5119 73.7723L71.302 69.4855C71.3969 69.3404 71.4728 69.26 71.6179 69.25H71.6157Z" fill="#4FD9BB"/>
<path d="M81.2065 66.4531C81.2445 66.7221 81.4164 66.8918 81.5882 67.1139L85.307 71.8594C85.0871 72.2076 84.6809 72.4732 84.3181 72.6462C84.3193 72.394 84.2211 72.1965 84.0536 71.9822L80.3784 67.2679C80.4844 66.8951 80.8896 66.6027 81.2065 66.452V66.4531Z" fill="#C6D4FB"/>
<path d="M73.8545 62.9218L73.5777 63.4452C73.5007 63.5892 73.4437 63.7175 73.3344 63.7733L69.4627 62.8593C69.1435 62.7878 68.8522 62.7175 68.5531 62.7365C68.5174 62.3448 68.6536 61.9497 68.8042 61.5847C68.8835 61.6204 68.9783 61.7131 69.1056 61.7432L73.8545 62.9207V62.9218Z" fill="#FBD6A2"/>
<path d="M79.7232 65.7388C79.452 65.9498 79.2243 66.2913 78.8471 66.3136L75.3237 64.0949C75.1797 64.0033 74.9911 64.0279 74.8594 64.0268C74.9855 63.654 75.2455 63.2132 75.5513 62.9688L75.8973 63.2589L79.7221 65.7388H79.7232Z" fill="#C8CCE3"/>
<path d="M66.6649 62.433C66.6426 62.7366 66.5042 63.0245 66.5422 63.3437L62.512 63.8203C62.2698 63.8493 62.0678 63.8783 61.887 64.0189C61.8446 63.6428 61.627 63.289 61.8614 62.9073L66.0176 62.433C66.2587 62.4051 66.4696 62.3917 66.6649 62.4341V62.433Z" fill="#E8EBFB"/>
<path d="M66.1398 75.0592L65.8686 75.6027L64.575 77.7098C64.0471 78.5703 64.0382 79.5826 64.4523 80.4956C64.5226 80.6507 64.4556 80.7935 64.4054 80.9007C64.3741 80.9676 64.1643 81.0848 64.094 80.9955C62.9579 78.8036 63.5773 78.5692 64.2882 77.2645L65.6487 74.7645L66.1398 75.0592Z" fill="#E8EBFB"/>
<path d="M76.008 70.6808L78.0995 73.5246C77.7033 73.5156 77.3249 73.5502 76.9008 73.6417C76.8751 73.4955 76.7859 73.375 76.6832 73.2366L75.2725 71.3292C75.3059 70.9609 75.6809 70.74 76.0068 70.6797L76.008 70.6808Z" fill="#C6D4FB"/>
<path d="M72.4614 77.4173L72.1031 78.4731C71.948 78.4776 71.8888 78.3983 71.8062 78.2878L70.2739 76.232C70.044 75.9876 69.9346 75.6963 70.0696 75.3157C70.1053 75.0992 70.4279 74.9653 70.6366 74.7957C70.6366 75.0602 70.7806 75.2577 70.9413 75.4753L72.4625 77.4173H72.4614Z" fill="#C6D4FB"/>
<path d="M70.4089 68.3481L69.8844 69.1941L67.2583 68.6071C67.0841 68.2365 67.1868 67.8772 67.4089 67.606L70.4078 68.3481H70.4089Z" fill="#FBD6A2"/>
<path d="M72.2185 68.3136L72.5735 68.5937L74.5601 69.8627L73.7509 70.5279L72.1148 69.4899C71.944 69.3817 71.8011 69.2667 71.6147 69.2511C71.627 68.875 71.8714 68.4732 72.2185 68.3147V68.3136Z" fill="#C6D4FB"/>
<path d="M65.065 68.4788L64.9021 69.4598L63.0974 69.6763C62.8876 69.702 62.7023 69.7477 62.5271 69.818C62.315 69.4922 62.363 69.0323 62.3184 68.6596C62.5349 68.7578 62.7391 68.7366 62.9835 68.7098L65.065 68.4788Z" fill="#E8EBFB"/>
<path d="M68.622 78.432C67.7336 78.1886 66.901 78.7757 66.7805 79.6686C66.6789 80.4163 67.1912 81.0536 67.7961 81.2188C68.6086 81.4398 69.3106 81.0134 69.5729 80.2679C69.8575 79.4587 69.362 78.6351 68.622 78.4331V78.432Z" fill="#2A4FBB"/>
<path d="M68.2041 74.6004L68.3235 74.9196L65.2967 77.4542L65.2041 77.3459L67.2722 75.2566L67.7499 74.8627C67.9083 74.7321 68.0155 74.5981 68.203 74.6004H68.2041Z" fill="#E8EBFB"/>
<path d="M65.6804 68.4175L65.4382 69.4353L64.9014 69.4599L65.0643 68.4789C65.263 68.4309 65.465 68.4052 65.6804 68.4175Z" fill="#C8CCE3"/>
<path d="M67.1651 62.3606L66.9285 63.3427H66.5413C66.5033 63.0246 66.6406 62.7378 66.664 62.4342C66.8158 62.3528 66.9899 62.3226 67.164 62.3617L67.1651 62.3606Z" fill="#C8CCE3"/>
<path d="M65.1706 77.6998C65.0768 77.9007 64.8681 77.7277 65.0155 77.5938C65.0657 77.5 65.1527 77.4721 65.194 77.4833C65.2353 77.4944 65.2978 77.6206 65.1706 77.6998Z" fill="#E8EBFB"/>
<path d="M73.2086 30.2432C74.3135 30.991 75.5557 31.3883 76.8258 31.6941C76.9452 31.7231 77.0345 31.6841 77.1059 31.6472C77.2421 31.4463 77.3358 31.1718 77.5457 31.0122L79.2655 29.712C79.318 29.6729 79.3291 29.5959 79.3146 29.5691C79.3001 29.5423 79.251 29.5066 79.1963 29.4887L76.7811 28.7354C76.6573 29.0479 76.2544 29.2454 75.9207 29.1327C75.5624 29.0122 75.4262 28.6573 75.472 28.3604C75.5267 28.0021 75.8135 27.8448 76.1238 27.741L77.6628 23.9329C77.5211 23.8727 77.2611 23.674 77.0769 23.7856L73.0669 27.0278C72.9619 27.1126 72.9307 27.2332 72.9541 27.3504L73.2711 28.8794C73.3682 29.3504 73.4251 29.818 73.2052 30.2421L73.2086 30.2432Z" fill="#D9DEF4"/>
<path d="M77.0345 31.7466C75.7153 31.5457 74.5334 30.9933 73.3939 30.3549C73.2868 30.2946 73.2477 30.2064 73.2198 30.1305C73.2555 29.8906 73.3738 29.6261 73.3281 29.366L72.9486 27.2433C72.9374 27.1796 72.9799 27.1149 73.01 27.1049C73.0401 27.0948 73.0993 27.1015 73.1506 27.1261L75.4341 28.2131C75.3124 28.5267 75.4743 28.9453 75.7957 29.0892C76.1406 29.2444 76.4821 29.0758 76.6495 28.827C76.8526 28.5267 76.7488 28.2165 76.5915 27.9296L78.0479 24.0892C78.193 24.1417 78.5189 24.1718 78.577 24.3794L79.318 29.4821C79.337 29.6149 79.279 29.7254 79.1819 29.7957L77.9107 30.7031C77.5189 30.9821 77.1607 31.2879 77.0334 31.7477L77.0345 31.7466Z" fill="#C8CCE3"/>
<path d="M73.281 30.1729C73.3089 30.2488 73.3479 30.3381 73.4551 30.3973C74.5946 31.0357 75.7765 31.5881 77.0957 31.789C77.4518 31.9598 77.5622 32.4174 77.4026 32.8069C77.2732 33.1015 77.2096 33.4386 77.012 33.6964C76.656 34.1618 76.0422 34.222 75.5109 34.0424C74.473 33.6908 73.4863 33.3303 72.5399 32.7801C72.1113 32.5312 71.81 32.0055 71.9863 31.5446L72.3747 30.5312C72.5109 30.1752 72.9696 30.0903 73.2799 30.1741L73.281 30.1729Z" fill="#2A4FBB"/>
<path d="M78.11 24.1316L76.6759 27.9129C76.8857 28.2176 76.9136 28.5702 76.7116 28.8705C76.5442 29.1193 76.2026 29.2879 75.8578 29.1327C75.5363 28.9888 75.3466 28.5569 75.4683 28.2432C75.5799 27.9564 75.7997 27.7689 76.1256 27.7421L77.6647 23.9341C77.802 23.9932 77.9973 24.0926 78.1111 24.1327L78.11 24.1316Z" fill="#7291F0"/>
</svg>
