<svg width="100" height="100" viewBox="0 0 100 100" fill="none" xmlns="http://www.w3.org/2000/svg">
<path d="M45.0572 68.471C17.6621 70.0458 20.8596 72.9799 19.719 45.5335C19.0583 32.2634 29.3786 20.8605 42.652 20.2009C73.9333 18.2489 76.3775 67.3114 45.0572 68.471Z" fill="#3368FF"/>
<path d="M40.1799 50.7311C44.6654 50.7311 48.3027 47.0949 48.3027 42.6105C48.3027 38.1262 44.6665 34.49 40.1799 34.49C35.6933 34.49 32.0571 38.1262 32.0571 42.6105C32.0571 47.0949 35.6933 50.7311 40.1799 50.7311Z" fill="white"/>
<path d="M55.2644 50.7311C59.7499 50.7311 63.3871 47.0949 63.3871 42.6105C63.3871 38.1262 59.751 34.49 55.2644 34.49C50.7778 34.49 47.1416 38.1262 47.1416 42.6105C47.1416 47.0949 50.7778 50.7311 55.2644 50.7311Z" fill="white"/>
<path d="M42.6364 49.8292C45.1007 49.8292 47.0984 47.8315 47.0984 45.3683C47.0984 42.9051 45.1007 40.9073 42.6364 40.9073C40.1721 40.9073 38.1743 42.9051 38.1743 45.3683C38.1743 47.8315 40.1721 49.8292 42.6364 49.8292Z" fill="#1D2955"/>
<path d="M57.5133 50C59.9776 50 61.9754 48.0022 61.9754 45.5391C61.9754 43.0759 59.9776 41.0781 57.5133 41.0781C55.049 41.0781 53.0513 43.0759 53.0513 45.5391C53.0513 48.0022 55.049 50 57.5133 50Z" fill="#1D2955"/>
<path d="M47.8458 89.7969C68.4708 89.7969 85.1907 86.8843 85.1907 83.2913C85.1907 79.6984 68.4708 76.7858 47.8458 76.7858C27.2208 76.7858 10.501 79.6984 10.501 83.2913C10.501 86.8843 27.2208 89.7969 47.8458 89.7969Z" fill="#DDE7FF"/>
<path d="M36.6148 66.8818C39.2978 68.5737 40.6449 71.8516 40.0579 74.9108C39.7342 76.6005 38.9563 78.1217 37.6706 79.2434C36.9295 79.8907 36.1382 80.3851 35.1874 80.6306C34.0769 80.9163 32.8938 80.8951 31.7967 80.5458C29.6874 79.8751 28.0568 78.2701 27.2353 76.1864C26.2264 73.6228 26.5411 70.6965 28.1293 68.4454C28.53 67.8762 29.0188 67.3617 29.5612 66.98C31.6885 65.4822 34.4441 65.5134 36.6148 66.8829V66.8818Z" fill="#5083FD"/>
<path d="M84.7421 58.1886C85.0523 58.9408 85.0289 59.5982 84.8046 60.404L79.1137 80.8459C79.0523 81.0647 78.8726 81.3169 78.7599 81.4307C78.578 81.6149 78.3715 81.8749 78.1584 81.972C77.5066 82.2678 76.8213 82.2522 76.1148 82.2689L69.3604 82.4241L58.453 82.6953L54.7543 82.7712L51.8269 82.8359L46.4575 82.914C46.2387 82.9174 46.1115 82.8013 45.9552 82.7399C45.751 82.3537 45.4686 81.9084 45.6126 81.4185L47.6896 74.356L51.1193 62.7466L51.7443 60.6752C52.2856 59.2455 53.636 58.4274 55.145 58.5044L56.7834 58.4575L59.5914 58.3828L63.4273 58.2845L66.6539 58.202L69.7242 58.1182L76.9552 57.9241L80.1896 57.8426L83.8135 57.8158L84.7421 58.1897V58.1886ZM63.6561 75.1037C63.886 75.2499 64.4385 75.2511 64.5925 74.9542L69.1706 66.1082C69.3559 65.7499 69.3135 65.3337 69.0389 65.1294C68.8503 64.9888 68.2767 64.914 68.1104 65.2388L63.4452 74.3158C63.3068 74.5848 63.4184 74.952 63.6561 75.1026V75.1037ZM62.1863 72.4932L59.713 70.2332L62.7979 67.808C63.088 67.5803 62.9787 67.1473 62.8693 66.9453C62.7387 66.7053 62.2555 66.5089 61.9776 66.7265L58.222 69.6484C57.9575 69.8537 57.9262 70.1807 57.9206 70.472C57.915 70.7633 58.1014 70.9564 58.3537 71.1796L60.8168 73.3694C61.1628 73.6774 61.5534 73.7879 61.9597 73.5122C62.2119 73.3415 62.5222 72.7991 62.1885 72.4932H62.1863ZM73.8302 70.7935C74.2365 70.4776 74.4463 69.8247 74.1026 69.4932L72.9206 68.3504L71.5322 67.0401C71.2175 66.7432 70.7722 66.6149 70.3972 66.9185C70.1394 67.1261 69.9697 67.6707 70.2655 67.9419L72.5947 70.0803L69.6137 72.4274C69.3269 72.6528 69.3481 73.0903 69.5278 73.3113C69.6851 73.5055 70.0802 73.7131 70.3447 73.5066L73.8302 70.7946V70.7935Z" fill="#596279"/>
<path d="M84.7424 58.1886L83.8138 57.8147L80.1899 57.8415L76.9556 57.9229L69.7245 58.1171L66.6542 58.2008L63.4277 58.2834L59.5917 58.3816L56.7837 58.4564L55.1453 58.5033C53.6364 58.4263 52.287 59.2444 51.7446 60.6741L51.1196 62.7455L47.6899 74.3549L45.6129 81.4174C45.469 81.9073 45.7513 82.3537 45.9556 82.7388C45.0582 82.3839 44.4198 81.6383 44.3853 80.6339C44.3707 80.2131 44.4656 79.8247 44.6085 79.4285L44.9042 78.3258L46.8239 71.7857L50.2602 60.0881C50.6587 58.731 51.6676 57.5033 53.1319 57.2433L57.4422 57.0468L63.7826 56.8482L67.1553 56.741L69.5437 56.6863L73.1966 56.5926L76.335 56.4988L79.4344 56.4263L81.7614 56.3537C83.0917 56.3124 84.2435 56.9799 84.7413 58.1863L84.7424 58.1886Z" fill="#8C93AA"/>
<path d="M36.0481 79.5714C36.3316 79.7834 36.691 79.7232 37.047 79.7611L41.1608 80.1997L44.2066 80.4854C44.2802 80.4921 44.2936 80.6361 44.2624 80.664C43.6653 81.6328 43.6731 83.3191 44.5336 84.0948C44.7043 84.2488 44.8171 84.3571 44.7546 84.5926L29.6631 82.8348C28.9811 82.7555 28.5325 81.8917 28.4588 81.3705C28.3907 80.8861 28.4175 80.4441 28.4622 79.952C28.5012 79.5312 28.8405 79.2533 29.0894 78.9095C30.8606 80.1216 33.9443 80.1506 36.0459 79.5725L36.0481 79.5714Z" fill="#4B546B"/>
<path d="M44.9042 78.327L44.6085 79.4297C44.4656 79.8259 44.3707 80.2143 44.3853 80.6351L44.2636 80.6641C44.2937 80.6351 44.2803 80.4922 44.2078 80.4855L41.162 80.1998L37.0482 79.7612C36.6922 79.7232 36.3328 79.7835 36.0493 79.5714C37.0571 79.2947 37.7826 78.4989 38.1185 78.4889L40.45 78.4241L44.9065 78.327H44.9042Z" fill="#596279"/>
<path d="M44.2632 80.664L44.3848 80.635C44.4194 81.6395 45.0578 82.385 45.9552 82.7399C46.1114 82.8013 46.2386 82.9174 46.4574 82.914L51.8268 82.8359L54.7543 82.7712L58.4529 82.6953L69.3603 82.4241L76.1148 82.2689C76.8212 82.2522 77.5065 82.2678 78.1583 81.9721C78.2375 82.9587 76.9898 83.9118 75.9284 83.9352L72.7632 84.0055L68.9853 84.0904L65.3246 84.1897L61.309 84.2812L57.7967 84.3672L53.8391 84.4587L49.9987 84.548L45.9663 84.6328L44.7554 84.5937C44.8179 84.3582 44.7052 84.25 44.5344 84.0959C43.6739 83.3203 43.6661 81.6339 44.2632 80.6651V80.664Z" fill="#3B435B"/>
<path d="M63.6563 75.1038C63.4175 74.952 63.307 74.5848 63.4454 74.317L68.1106 65.24C68.2769 64.9152 68.8505 64.99 69.0391 65.1306C69.3137 65.3348 69.3561 65.7511 69.1708 66.1094L64.5927 74.9554C64.4387 75.2522 63.8862 75.2511 63.6563 75.1049V75.1038Z" fill="#EBEBEC"/>
<path d="M62.1864 72.4933C62.5201 72.798 62.2099 73.3415 61.9576 73.5122C61.5514 73.7879 61.1619 73.6774 60.8148 73.3694L58.3516 71.1797C58.0994 70.9553 57.913 70.7656 57.9186 70.4721C57.9242 70.1785 57.9554 69.8538 58.2199 69.6484L61.9755 66.7265C62.2545 66.51 62.7378 66.7053 62.8672 66.9453C62.9766 67.1473 63.086 67.5803 62.7958 67.808L59.711 70.2332L62.1842 72.4933H62.1864Z" fill="#EBEBEC"/>
<path d="M73.8303 70.7935L70.3448 73.5055C70.0792 73.712 69.6852 73.5044 69.5278 73.3102C69.3482 73.0892 69.327 72.6528 69.6138 72.4263L72.5948 70.0792L70.2656 67.9408C69.9698 67.6696 70.1395 67.1249 70.3973 66.9174C70.7723 66.6149 71.2176 66.7421 71.5323 67.039L72.9207 68.3493L74.1026 69.4921C74.4464 69.8247 74.2354 70.4765 73.8303 70.7924V70.7935Z" fill="#EBEBEC"/>
<path d="M70.2685 27.8925C70.0285 28.2962 69.7285 28.4681 69.27 28.317C68.9871 28.2236 68.6508 27.7385 68.8782 27.354L73.5728 19.4093C73.8068 19.013 74.1505 18.8397 74.6112 19.0167C74.9571 19.15 75.1638 19.667 74.929 20.0603L70.2685 27.8933V27.8925Z" fill="#6781FC"/>
<path d="M67.9594 24.6394C68.2912 25.0075 68.3838 25.4749 68.0571 25.8163C67.7305 26.1578 67.1964 26.1296 66.8705 25.763L64.3751 22.9594C63.9877 22.5239 64.0751 21.6743 64.5706 21.3566L67.8423 19.2633C68.2386 19.01 68.8 19.1456 68.986 19.5455C69.2067 20.0196 68.9652 20.4173 68.5408 20.6803L65.8802 22.3313L67.9594 24.6394Z" fill="#6781FC"/>
<path d="M75.9487 27.9858C75.6294 28.191 75.2435 28.1851 74.9695 27.9525C74.7413 27.7592 74.7065 27.4659 74.748 27.1629C74.7813 26.9192 74.9969 26.7659 75.248 26.6022L77.8293 24.923L75.6376 22.4372C75.3798 22.1447 75.5946 21.6165 75.8205 21.4551C76.1524 21.2173 76.5879 21.2291 76.8672 21.541L79.1122 24.049C79.4085 24.3801 79.5759 24.7016 79.53 25.1564C79.4892 25.56 79.2367 25.8741 78.8552 26.1193L75.9494 27.9866L75.9487 27.9858Z" fill="#6781FC"/>
<path d="M79.0928 51.4744C78.777 51.6094 78.4366 51.5447 78.1475 51.4867L74.9645 50.8483C74.2066 50.6965 73.6419 50.2021 73.7033 49.3829C73.758 48.6507 74.393 48.0737 75.1631 48.2322L79.0258 49.0268C79.547 49.134 79.8361 49.7289 79.883 50.1619C79.9399 50.6998 79.6352 51.2422 79.0939 51.4744H79.0928Z" fill="#3CAFFC"/>
<path d="M75.2503 44.3281C74.5806 44.731 73.8808 44.76 73.3853 44.192C72.9724 43.7188 72.9311 42.7377 73.5817 42.3438L77.0795 40.2232C77.4735 39.9844 78.0282 40.1217 78.325 40.3382C78.7023 40.6127 78.8663 41.0234 78.8384 41.5056C78.8094 42.0134 78.5393 42.3482 78.123 42.5993L75.2503 44.3292V44.3281Z" fill="#4F81FC"/>
<path d="M85.0235 54.4386C84.3059 53.7857 84.4566 52.6685 85.2177 52.1283C85.8383 51.6875 86.6943 51.8593 87.1396 52.4218C87.5927 52.9944 87.5682 53.8404 87.0559 54.3716C86.5459 54.8995 85.6463 55.0055 85.0235 54.4386Z" fill="#3CAFFC"/>
<path d="M11.9844 57.4409C11.5714 56.2132 10.4542 55.3605 9.16181 55.2846C8.67743 55.2567 8.58703 54.5804 9.04685 54.4264C10.2745 54.0134 11.1272 52.8962 11.2031 51.6038C11.231 51.1194 11.9073 51.029 12.0614 51.4889C12.4743 52.7165 13.5915 53.5692 14.8839 53.6451C15.3683 53.673 15.4587 54.3494 14.9989 54.5034C13.7712 54.9163 12.9185 56.0335 12.8426 57.3259C12.8147 57.8103 12.1384 57.9007 11.9844 57.4409Z" fill="#FFC83D"/>
</svg>
