<svg width="24" height="24" viewBox="0 0 24 24" fill="none" xmlns="http://www.w3.org/2000/svg">
<rect width="24" height="24" rx="12" fill="#092E20"/>
<path d="M10.4993 6.52185H12.4301V15.459C11.4396 15.6472 10.7124 15.7224 9.92266 15.7224C7.56559 15.7223 6.33691 14.6568 6.33691 12.6131C6.33691 10.6447 7.64086 9.36591 9.65929 9.36591C9.97275 9.36591 10.2109 9.391 10.4993 9.46618V6.52185ZM10.4993 11.0204C10.2737 10.9452 10.0856 10.9202 9.84738 10.9202C8.86954 10.9202 8.30525 11.522 8.30525 12.5751C8.30525 13.6032 8.84445 14.1673 9.83493 14.1673C10.0479 14.1673 10.2235 14.1548 10.4993 14.1173V11.0204Z" fill="white"/>
<path d="M15.5017 9.50347V13.9793C15.5017 15.5215 15.3888 16.2611 15.0503 16.9005C14.7368 17.515 14.3231 17.9035 13.4706 18.3298L11.6777 17.4774C12.5303 17.0761 12.944 16.7252 13.2072 16.1859C13.4831 15.6343 13.571 14.9949 13.571 13.3149V9.50347H15.5017ZM13.5709 6.5321H15.5017V8.51308H13.5709V6.5321Z" fill="white"/>
</svg>
