<svg width="24" height="24" viewBox="0 0 24 24" fill="none" xmlns="http://www.w3.org/2000/svg">
<rect width="24" height="24" rx="12" fill="#2560FF"/>
<path d="M19.8956 10.9824C19.5529 10.7445 18.6486 10.6425 17.9921 10.8252C17.955 10.1539 17.6205 9.58461 17.0012 9.09177L16.7741 8.93457L16.6213 9.17249C16.324 9.63984 16.196 10.2644 16.2414 10.8294C16.2745 11.1778 16.3942 11.5687 16.6213 11.8534C15.7666 12.3632 14.978 12.2485 11.489 12.2485H6.10482C6.08831 13.06 6.21631 14.6192 7.17835 15.8853C7.28571 16.0255 7.40132 16.1614 7.52932 16.2932C8.31382 17.1004 9.4947 17.6909 11.266 17.6952C13.9664 17.6952 16.2786 16.1954 17.6866 12.5629C18.149 12.5714 19.3712 12.6479 19.9699 11.4582C19.9864 11.437 20.1227 11.1438 20.1227 11.1438L19.8956 10.9866V10.9824ZM9.6227 10.2431H8.10737V11.8024H9.6227V10.2431ZM11.5798 10.2431H10.0645V11.8024H11.5798V10.2431ZM13.5328 10.2431H12.0175V11.8024H13.5328V10.2431ZM15.49 10.2431H13.9746V11.8024H15.49V10.2431ZM7.66557 10.2431H6.15024V11.8024H7.66557V10.2431ZM9.6227 8.27179H8.10737V9.83103H9.6227V8.27179ZM11.5798 8.27179H10.0645V9.83103H11.5798V8.27179ZM13.5328 8.27179H12.0175V9.83103H13.5328V8.27179ZM13.5328 6.30469H12.0175V7.86392H13.5328V6.30469Z" fill="white"/>
</svg>
