<svg width="24" height="24" viewBox="0 0 24 24" fill="none" xmlns="http://www.w3.org/2000/svg">
<rect width="24" height="24" rx="12" fill="black"/>
<path d="M18.1756 15.3906C17.9959 15.4586 17.7975 15.4584 17.6178 15.3902C17.4382 15.3219 17.2897 15.1903 17.2004 15.0201L15.425 12.5648L15.1677 12.2216L13.1076 15.0232C13.0238 15.1862 12.8833 15.3131 12.7127 15.3802C12.542 15.4473 12.3527 15.4499 12.1803 15.3875L14.8347 11.8263L12.3656 8.60942C12.5431 8.54544 12.7373 8.54459 12.9154 8.60702C13.0935 8.66945 13.2446 8.79134 13.3433 8.95216L15.1836 11.4378L17.0342 8.96245C17.1188 8.8023 17.2592 8.67879 17.4288 8.61541C17.5985 8.55203 17.7855 8.55319 17.9544 8.61869L16.9961 9.89032L15.6983 11.5798C15.6622 11.612 15.6334 11.6514 15.6136 11.6955C15.5939 11.7395 15.5837 11.7873 15.5837 11.8356C15.5837 11.8839 15.5939 11.9316 15.6136 11.9757C15.6334 12.0198 15.6622 12.0592 15.6983 12.0914L18.1705 15.3911L18.1756 15.3906ZM5.82574 11.7821L6.04188 10.7142C6.63576 8.60273 9.05654 7.72427 10.7219 9.03141C11.6971 9.79769 11.9405 10.8825 11.8926 12.1053H6.39903C6.31 14.2888 7.88577 15.6073 9.90052 14.9336C10.2271 14.8161 10.5195 14.6193 10.7514 14.361C10.9833 14.1027 11.1475 13.7909 11.2293 13.4536C11.3358 13.1108 11.5113 13.0522 11.8334 13.151C11.7798 13.569 11.632 13.9695 11.4012 14.3222C11.1704 14.6749 10.8627 14.9707 10.5011 15.1873C9.90382 15.514 9.21856 15.6435 8.54327 15.5573C7.86798 15.471 7.23725 15.1735 6.74126 14.7072C6.25084 14.1552 5.95444 13.4579 5.89727 12.7218C5.89727 12.6008 5.85611 12.4876 5.82832 12.379C5.82581 12.1802 5.82461 11.9814 5.82471 11.7826L5.82574 11.7821ZM6.40572 11.6349H11.3739C11.343 10.0519 10.3441 8.929 9.01177 8.91871C7.52863 8.89813 6.46748 9.99633 6.40212 11.6277L6.40572 11.6349Z" fill="white"/>
</svg>
