<svg width="24" height="24" viewBox="0 0 24 24" fill="none" xmlns="http://www.w3.org/2000/svg">
<path d="M11.8981 5.5C17.0092 5.50001 20.4955 8.99758 21.7535 11.0674H21.7438C22.1102 11.6689 22.0805 12.4236 21.6744 12.9844C20.7429 14.2798 17.4837 18.5 11.9967 18.5C6.50936 18.4998 3.1909 14.2484 2.29942 12.9434C1.92304 12.3928 1.90328 11.6686 2.23008 11.0977C3.42863 9.01766 6.78687 5.5 11.8981 5.5ZM11.9967 8.14062C9.92669 8.14084 8.24287 9.87411 8.24278 12.0049C8.24278 14.1357 9.92663 15.8689 11.9967 15.8691C14.0669 15.8691 15.7516 14.1359 15.7516 12.0049C15.7515 9.87398 14.0669 8.14062 11.9967 8.14062ZM11.9967 9.66016C13.2448 9.66016 14.2652 10.7104 14.2652 11.9951C14.2651 13.2797 13.2447 14.3301 11.9967 14.3301C10.7489 14.3299 9.72924 13.2796 9.72911 11.9951C9.72911 10.7105 10.7488 9.66037 11.9967 9.66016Z" fill="black"/>
</svg>
