<svg width="24" height="24" viewBox="0 0 24 24" fill="none" xmlns="http://www.w3.org/2000/svg">
<path d="M11.8916 5.5C16.9712 5.50021 20.4866 8.99764 21.7441 11.0674C22.1103 11.6587 22.0807 12.4135 21.6748 12.9844C20.7438 14.2795 17.2876 18.5 12 18.5H11.9902C6.50462 18.5 3.18724 14.2486 2.2959 12.9434C1.92952 12.3928 1.8998 11.6686 2.22656 11.0977C3.42473 9.01766 6.81177 5.5 11.8916 5.5ZM11.8857 7.0293C6.36393 7.03233 3.62269 11.679 3.50391 11.8828C3.4644 11.9439 3.46447 12.0151 3.50391 12.0762C4.28618 13.2283 7.20761 16.9805 11.9805 16.9805C16.7532 16.9804 19.635 13.2283 20.4668 12.0762C20.5061 12.0151 20.5062 11.9438 20.4668 11.8828C20.348 11.6789 17.4676 7.03179 11.8857 7.0293ZM11.9902 8.14062C14.0597 8.14062 15.7431 9.87398 15.7432 12.0049C15.7432 14.1359 14.0598 15.8691 11.9902 15.8691C9.92068 15.8691 8.2373 14.1359 8.2373 12.0049C8.2374 9.87398 9.92073 8.14063 11.9902 8.14062ZM11.9902 9.66016C10.7426 9.66016 9.72266 10.7104 9.72266 11.9951C9.72279 13.2797 10.7426 14.3301 11.9902 14.3301C13.2378 14.3301 14.2577 13.2797 14.2578 11.9951C14.2578 10.7104 13.2379 9.66016 11.9902 9.66016Z" fill="black"/>
</svg>
