<svg width="24" height="24" viewBox="0 0 24 24" fill="none" xmlns="http://www.w3.org/2000/svg">
<rect width="24" height="24" rx="12" fill="black"/>
<path d="M7.5 16.5001C7.5 15.2575 8.50736 14.2501 9.75 14.2501H12V16.5001C12 17.7428 10.9926 18.7501 9.75 18.7501C8.50736 18.7501 7.5 17.7428 7.5 16.5001Z" fill="#0ACF83"/>
<path d="M12 12.0001C12 10.7575 13.0074 9.75012 14.25 9.75012C15.4926 9.75012 16.5 10.7575 16.5 12.0001C16.5 13.2428 15.4926 14.2501 14.25 14.2501C13.0074 14.2501 12 13.2427 12 12.0001Z" fill="#1ABCFE"/>
<path d="M7.5 12.0001C7.5 13.2428 8.50736 14.2501 9.75 14.2501H12V9.75012H9.75C8.50736 9.75012 7.5 10.7575 7.5 12.0001Z" fill="#A259FF"/>
<path d="M12 5.25012V9.75012H14.25C15.4926 9.75012 16.5 8.74276 16.5 7.50012C16.5 6.25748 15.4926 5.25012 14.25 5.25012H12Z" fill="#FF7262"/>
<path d="M7.5 7.50012C7.5 8.74276 8.50736 9.75012 9.75 9.75012H12V5.25012L9.75 5.25012C8.50736 5.25012 7.5 6.25748 7.5 7.50012Z" fill="#F24E1E"/>
</svg>
