<svg width="24" height="24" viewBox="0 0 24 24" fill="none" xmlns="http://www.w3.org/2000/svg">
<rect width="24" height="24" rx="12" fill="black"/>
<g clip-path="url(#clip0_643_1490)">
<path d="M9.94531 18.5976C10.5235 18.8335 11.1506 18.9733 11.8091 18.9965C12.7003 19.028 13.5477 18.8413 14.3054 18.4867C13.3968 18.1252 12.574 17.596 11.8717 16.9384C11.4164 17.6769 10.7433 18.2602 9.94531 18.5976Z" fill="#FF9100"/>
<path d="M11.8716 16.9386C10.2685 15.4363 9.29619 13.2618 9.37825 10.8768C9.38098 10.7995 9.38496 10.7221 9.38969 10.6445C9.10248 10.5692 8.80283 10.5233 8.49449 10.5125C8.05286 10.4969 7.6254 10.5523 7.22181 10.6674C6.79386 11.4271 6.5355 12.2987 6.50342 13.2323C6.42036 15.6414 7.85915 17.7464 9.94521 18.5979C10.7432 18.2605 11.4166 17.6779 11.8719 16.9386H11.8716Z" fill="#FFC400"/>
<path d="M11.8718 16.9386C12.2445 16.3341 12.4703 15.6256 12.4967 14.8623C12.5658 12.8541 11.2337 11.1268 9.38982 10.6448C9.38509 10.7221 9.38111 10.7995 9.37838 10.8771C9.29607 13.262 10.2686 15.4366 11.8718 16.9389V16.9386Z" fill="#FF9100"/>
<path d="M12.2904 5C11.2402 5.85243 10.4109 6.97649 9.90913 8.2714C9.62192 9.01321 9.44139 9.80996 9.38867 10.645C11.2325 11.127 12.5649 12.8546 12.4955 14.8626C12.4691 15.6261 12.2426 16.3338 11.8706 16.9388C12.5728 17.5973 13.3957 18.1254 14.3043 18.4872C16.128 17.633 17.4218 15.7949 17.4967 13.6208C17.5452 12.2123 17.011 10.9569 16.2563 9.89714C15.4596 8.77661 12.2904 5 12.2904 5Z" fill="#DD2C00"/>
</g>
<defs>
<clipPath id="clip0_643_1490">
<rect width="11" height="14" fill="white" transform="translate(6.5 5)"/>
</clipPath>
</defs>
</svg>
