<svg width="24" height="24" viewBox="0 0 24 24" fill="none" xmlns="http://www.w3.org/2000/svg">
<rect width="24" height="24" rx="12" fill="#F05032"/>
<path d="M18.7238 11.5294L12.6215 5.42779C12.2698 5.07664 11.7003 5.07664 11.3474 5.42779L10.0831 6.69436L11.6904 8.30159C12.066 8.17639 12.4934 8.26082 12.7904 8.5584C13.0909 8.8583 13.1736 9.29097 13.0455 9.66482L14.5933 11.2138C14.9689 11.084 15.401 11.1684 15.6997 11.4671C16.1196 11.8864 16.1196 12.5642 15.6997 12.9835C15.281 13.4022 14.6044 13.4022 14.1857 12.9835C13.8718 12.6685 13.7932 12.2049 13.9504 11.8212L12.501 10.3793V14.179C12.6035 14.2291 12.7001 14.2973 12.7852 14.3817C13.2004 14.8016 13.2004 15.4782 12.7852 15.8958C12.3665 16.3156 11.6851 16.3156 11.2659 15.8958C10.8472 15.4771 10.8472 14.8016 11.2659 14.3829C11.3718 14.278 11.4912 14.1988 11.6182 14.1464V10.3095C11.4918 10.2565 11.3713 10.1802 11.2688 10.0759C10.9514 9.75858 10.8751 9.29446 11.0382 8.90605L9.45888 7.3192L5.27426 11.5009C4.92486 11.8532 4.92486 12.4233 5.27426 12.7756L11.3771 18.8767C11.7288 19.2284 12.2983 19.2284 12.6501 18.8767L18.7238 12.803C19.0761 12.4519 19.0761 11.8818 18.7238 11.5294Z" fill="white"/>
</svg>
