<svg width="24" height="24" viewBox="0 0 24 24" fill="none" xmlns="http://www.w3.org/2000/svg">
<rect width="24" height="24" rx="12" fill="black"/>
<g clip-path="url(#clip0_643_1492)">
<path d="M5.81402 10.8165C5.78564 10.8165 5.77855 10.8009 5.79274 10.7774L5.94172 10.5663C5.95591 10.5429 5.99139 10.5272 6.01976 10.5272H8.55251C8.58088 10.5272 8.58798 10.5507 8.57379 10.5741L8.45318 10.7774C8.43899 10.8009 8.40352 10.8244 8.38224 10.8244L5.81402 10.8165Z" fill="#FDDD00"/>
<path d="M4.74273 11.5359C4.71436 11.5359 4.70726 11.5203 4.72145 11.4968L4.87043 11.2857C4.88462 11.2622 4.9201 11.2466 4.94847 11.2466H8.18357C8.21195 11.2466 8.22614 11.27 8.21905 11.2935L8.16229 11.4812C8.1552 11.5124 8.12682 11.5281 8.09844 11.5281L4.74273 11.5359Z" fill="#FDDD00"/>
<path d="M6.45953 12.2553C6.43115 12.2553 6.42406 12.2318 6.43825 12.2084L6.53757 12.0129C6.55176 11.9894 6.58014 11.9659 6.60852 11.9659H8.02742C8.0558 11.9659 8.06999 11.9894 8.06999 12.0207L8.0558 12.2084C8.0558 12.2396 8.02742 12.2631 8.00614 12.2631L6.45953 12.2553Z" fill="#FDDD00"/>
<path d="M13.8238 10.6757C13.3769 10.8008 13.0718 10.8947 12.6319 11.0198C12.5255 11.0511 12.5184 11.0589 12.4262 10.9416C12.3198 10.8087 12.2417 10.7226 12.0928 10.6444C11.6458 10.402 11.213 10.4724 10.8087 10.7617C10.3262 11.1058 10.0779 11.6141 10.085 12.2475C10.0921 12.873 10.4823 13.3891 11.0428 13.4751C11.5252 13.5455 11.9296 13.3579 12.2488 12.959C12.3127 12.873 12.3694 12.7792 12.4404 12.6697H11.0711C10.9222 12.6697 10.8867 12.5681 10.9364 12.4351C11.0286 12.1927 11.1988 11.7861 11.2982 11.5828C11.3195 11.5359 11.3691 11.4577 11.4755 11.4577H14.0579C14.0438 11.6688 14.0438 11.8799 14.0154 12.0911C13.9373 12.6541 13.7458 13.1702 13.4336 13.6237C12.9228 14.3666 12.2559 14.8279 11.4117 14.9531C10.7164 15.0547 10.0708 14.9061 9.50326 14.437C8.97827 13.9991 8.6803 13.4204 8.60226 12.701C8.51003 11.8487 8.73705 11.0823 9.20529 10.4099C9.709 9.68263 10.3759 9.22127 11.1918 9.05706C11.8586 8.92412 12.4971 9.01014 13.0718 9.44022C13.4478 9.7139 13.7174 10.0892 13.8948 10.5428C13.9373 10.6132 13.909 10.6523 13.8238 10.6757Z" fill="#FDDD00"/>
<path d="M16.1722 15C15.5266 14.9843 14.9377 14.781 14.4411 14.3118C14.0225 13.913 13.76 13.4047 13.6749 12.8026C13.5472 11.919 13.7671 11.1371 14.2495 10.4411C14.7674 9.69042 15.3918 9.29944 16.236 9.13523C16.9596 8.99448 17.6407 9.07267 18.2579 9.53403C18.8184 9.95629 19.166 10.5271 19.2583 11.2778C19.3789 12.3335 19.1022 13.1936 18.4424 13.9287C17.9742 14.4526 17.3995 14.781 16.7397 14.9296C16.5482 14.9687 16.3566 14.9765 16.1722 15ZM17.8607 11.8408C17.8536 11.7392 17.8536 11.661 17.8394 11.5828C17.7117 10.8086 17.0661 10.3707 16.3921 10.5428C15.7323 10.707 15.3066 11.1683 15.1505 11.9034C15.0228 12.5133 15.2924 13.1311 15.8032 13.3813C16.1934 13.569 16.5836 13.5455 16.9597 13.3344C17.5201 13.0138 17.8252 12.5133 17.8607 11.8408Z" fill="#FDDD00"/>
</g>
<defs>
<clipPath id="clip0_643_1492">
<rect width="14.5714" height="6" fill="white" transform="translate(4.71436 9)"/>
</clipPath>
</defs>
</svg>
