<svg width="24" height="24" viewBox="0 0 24 24" fill="none" xmlns="http://www.w3.org/2000/svg">
<rect width="24" height="24" rx="12" fill="#E10098"/>
<path d="M12.0005 4.73157C11.6569 4.73157 11.3275 4.86804 11.0845 5.11095C10.8416 5.35387 10.7052 5.68333 10.7052 6.02686C10.7052 6.3704 10.8416 6.69986 11.0845 6.94277C11.3275 7.18569 11.6569 7.32216 12.0005 7.32216C12.344 7.32216 12.6735 7.18569 12.9164 6.94277C13.1593 6.69986 13.2958 6.3704 13.2958 6.02686C13.2958 5.68333 13.1593 5.35387 12.9164 5.11095C12.6735 4.86804 12.344 4.73157 12.0005 4.73157ZM17.1732 7.71829C16.8296 7.71829 16.5002 7.85476 16.2572 8.09767C16.0143 8.34059 15.8779 8.67005 15.8779 9.01358C15.8779 9.35712 16.0143 9.68658 16.2572 9.92949C16.5002 10.1724 16.8296 10.3089 17.1732 10.3089C17.5167 10.3089 17.8462 10.1724 18.0891 9.92949C18.332 9.68658 18.4685 9.35712 18.4685 9.01358C18.4685 8.67005 18.332 8.34059 18.0891 8.09767C17.8462 7.85476 17.5167 7.71829 17.1732 7.71829ZM17.1732 13.6917C16.8296 13.6917 16.5002 13.8282 16.2572 14.0711C16.0143 14.314 15.8779 14.6435 15.8779 14.987C15.8779 15.3306 16.0143 15.66 16.2572 15.9029C16.5002 16.1458 16.8296 16.2823 17.1732 16.2823C17.5167 16.2823 17.8462 16.1458 18.0891 15.9029C18.332 15.66 18.4685 15.3306 18.4685 14.987C18.4685 14.6435 18.332 14.314 18.0891 14.0711C17.8462 13.8282 17.5167 13.6917 17.1732 13.6917ZM12.0005 16.6784C11.657 16.6784 11.3276 16.8149 11.0848 17.0577C10.8419 17.3006 10.7055 17.63 10.7055 17.9734C10.7055 18.3169 10.8419 18.6463 11.0848 18.8891C11.3276 19.132 11.657 19.2684 12.0005 19.2684C12.3439 19.2684 12.6733 19.132 12.9162 18.8891C13.159 18.6463 13.2955 18.3169 13.2955 17.9734C13.2955 17.63 13.159 17.3006 12.9162 17.0577C12.6733 16.8149 12.3439 16.6784 12.0005 16.6784ZM6.82655 13.6923C6.65648 13.6923 6.48809 13.7258 6.33097 13.7909C6.17386 13.856 6.0311 13.9514 5.91085 14.0716C5.7906 14.1919 5.69521 14.3346 5.63013 14.4918C5.56505 14.6489 5.53155 14.8173 5.53155 14.9873C5.53155 15.1574 5.56505 15.3258 5.63013 15.4829C5.69521 15.64 5.7906 15.7828 5.91085 15.903C6.0311 16.0233 6.17386 16.1187 6.33097 16.1837C6.48809 16.2488 6.65648 16.2823 6.82655 16.2823C7.17008 16.2823 7.49954 16.1458 7.74246 15.9029C7.98537 15.66 8.12184 15.3306 8.12184 14.987C8.12184 14.6435 7.98537 14.314 7.74246 14.0711C7.49954 13.8282 7.17008 13.6923 6.82655 13.6923ZM6.82655 7.71829C6.48301 7.71829 6.15355 7.85476 5.91063 8.09767C5.66772 8.34059 5.53125 8.67005 5.53125 9.01358C5.53125 9.35712 5.66772 9.68658 5.91063 9.92949C6.15355 10.1724 6.48301 10.3089 6.82655 10.3089C7.17008 10.3089 7.49954 10.1724 7.74246 9.92949C7.98537 9.68658 8.12184 9.35712 8.12184 9.01358C8.12184 8.67005 7.98537 8.34059 7.74246 8.09767C7.49954 7.85476 7.17008 7.71829 6.82655 7.71829ZM12.0005 5.67222L6.51945 8.83641V15.1648L12.0005 18.329L17.4803 15.1648V8.83641L12.0005 5.67222ZM12.0005 6.64195L16.6401 14.6796H7.35956L12.0005 6.64195ZM11.1603 6.86667L7.13545 13.8395V9.19136L11.1603 6.86667ZM12.8406 6.86667L16.8661 9.19136V13.8395L12.8406 6.86667ZM7.97435 15.295H16.026L12.0005 17.6185L7.97435 15.295Z" fill="white"/>
</svg>
