<svg width="24" height="24" viewBox="0 0 24 24" fill="none" xmlns="http://www.w3.org/2000/svg">
<path d="M19.9805 17.5001C20.3946 17.5002 20.7305 17.836 20.7305 18.2501C20.7302 18.664 20.3944 19 19.9805 19.0001H4.01953C3.60548 19.0001 3.2698 18.6641 3.26953 18.2501C3.26953 17.8359 3.60532 17.5001 4.01953 17.5001H19.9805ZM19.9805 11.2501C20.3946 11.2502 20.7305 11.586 20.7305 12.0001C20.7303 12.4141 20.3945 12.75 19.9805 12.7501H4.01953C3.6054 12.7501 3.26966 12.4142 3.26953 12.0001C3.26953 11.5859 3.60532 11.2501 4.01953 11.2501H19.9805ZM19.9805 5.00012C20.3946 5.00024 20.7305 5.33598 20.7305 5.75012C20.7303 6.16409 20.3945 6.5 19.9805 6.50012H4.01953C3.60544 6.50012 3.26973 6.16417 3.26953 5.75012C3.26953 5.33591 3.60532 5.00012 4.01953 5.00012H19.9805Z" fill="black"/>
</svg>
