<svg width="24" height="24" viewBox="0 0 24 24" fill="none" xmlns="http://www.w3.org/2000/svg">
<path d="M20 17.25C20.5523 17.25 21 17.6977 21 18.25C20.9999 18.8022 20.5522 19.25 20 19.25H4C3.44775 19.25 3.00005 18.8022 3 18.25C3 17.6977 3.44772 17.25 4 17.25H20ZM20 11C20.5522 11 20.9999 11.4478 21 12C21 12.5523 20.5523 13 20 13H4C3.44772 13 3 12.5523 3 12C3.00011 11.4478 3.44779 11 4 11H20ZM20 4.75C20.5523 4.75003 21 5.19774 21 5.75C21 6.30226 20.5523 6.74997 20 6.75H4C3.44772 6.75 3 6.30228 3 5.75C3 5.19772 3.44772 4.75 4 4.75H20Z" fill="black"/>
</svg>
