<svg width="24" height="24" viewBox="0 0 24 24" fill="none" xmlns="http://www.w3.org/2000/svg">
<path d="M22 8.96626C22 15.2163 12.733 20.2752 12.3384 20.4841C12.2344 20.5401 12.1181 20.5694 12 20.5694C11.8819 20.5694 11.7656 20.5401 11.6616 20.4841C11.267 20.2752 2 15.2163 2 8.96626C2.00165 7.4986 2.58541 6.09153 3.6232 5.05374C4.66099 4.01595 6.06806 3.4322 7.53571 3.43054C9.37946 3.43054 10.9938 4.2234 12 5.56358C13.0063 4.2234 14.6205 3.43054 16.4643 3.43054C17.9319 3.4322 19.339 4.01595 20.3768 5.05374C21.4146 6.09153 21.9983 7.4986 22 8.96626Z" fill="black"/>
</svg>
