<svg width="24" height="24" viewBox="0 0 24 24" fill="none" xmlns="http://www.w3.org/2000/svg">
<path d="M16.4639 3.43054C17.9315 3.4322 19.3392 4.0158 20.377 5.0536C21.4147 6.0914 21.9983 7.49905 22 8.96672L21.9932 9.25872C21.7122 15.3718 12.7318 20.2763 12.3389 20.4844C12.2349 20.5403 12.1181 20.5694 12 20.5694C11.8819 20.5694 11.7651 20.5403 11.6611 20.4844C11.2682 20.2763 2.28778 15.3718 2.00684 9.25872L2 8.96672C2.00165 7.49905 2.58526 6.0914 3.62305 5.0536C4.66084 4.0158 6.06848 3.4322 7.53613 3.43054C9.37964 3.43066 10.9938 4.22337 12 5.56337C13.0062 4.22337 14.6204 3.43066 16.4639 3.43054ZM16.4629 4.93055C15.0582 4.93095 13.9024 5.52733 13.1992 6.46377C12.9159 6.84111 12.4719 7.06338 12 7.06338C11.5281 7.06338 11.0841 6.84111 10.8008 6.46377C10.0974 5.52711 8.94127 4.93067 7.53613 4.93055C6.46618 4.9321 5.44019 5.35755 4.68359 6.11416C3.92676 6.87099 3.50128 7.89738 3.5 8.9677C3.50071 11.3903 5.34904 13.8289 7.6709 15.8623C9.43724 17.4092 11.2416 18.5137 12 18.9522C12.7584 18.5137 14.5628 17.4092 16.3291 15.8623C18.651 13.8289 20.4993 11.3903 20.5 8.9677C20.4987 7.89738 20.0732 6.87099 19.3164 6.11416C18.5596 5.35732 17.5332 4.93184 16.4629 4.93055Z" fill="black"/>
</svg>
