<svg width="24" height="24" viewBox="0 0 24 24" fill="none" xmlns="http://www.w3.org/2000/svg">
<rect width="24" height="24" rx="12" fill="#EAEAEA"/>
<path d="M9.91004 15.6091C9.91004 15.6091 9.302 15.9629 10.3433 16.0823C11.6051 16.2265 12.2499 16.2058 13.64 15.943C13.64 15.943 14.0062 16.172 14.5166 16.3705C11.3994 17.7059 7.46191 16.293 9.91004 15.6091ZM9.52891 13.8661C9.52891 13.8661 8.84676 14.3711 9.88899 14.479C11.2368 14.6181 12.301 14.6295 14.1434 14.2749C14.1434 14.2749 14.3976 14.5332 14.798 14.6743C11.0298 15.7763 6.83282 14.761 9.52891 13.8661Z" fill="#0074BD"/>
<path d="M12.7404 10.9088C13.5089 11.7933 12.5389 12.5886 12.5389 12.5886C12.5389 12.5886 14.489 11.5821 13.5936 10.3211C12.757 9.14572 12.1156 8.56191 15.5879 6.5481C15.5879 6.54822 10.1374 7.90909 12.7404 10.9088Z" fill="#EA2D2E"/>
<path d="M16.8625 16.8984C16.8625 16.8984 17.3126 17.2696 16.3666 17.5565C14.5678 18.1014 8.87842 18.2657 7.2983 17.5783C6.73056 17.3311 7.79562 16.9884 8.13071 16.916C8.48008 16.8404 8.67957 16.8542 8.67957 16.8542C8.0478 16.4094 4.59621 17.7279 6.92661 18.1061C13.2814 19.1362 18.5106 17.6422 16.8625 16.8984ZM10.2028 12.0597C10.2028 12.0597 7.30914 12.7471 9.17817 12.997C9.96747 13.1026 11.5402 13.0784 13.0062 12.9554C14.2039 12.8548 15.4058 12.6398 15.4058 12.6398C15.4058 12.6398 14.9839 12.8208 14.6783 13.0292C11.7392 13.8023 6.06282 13.4423 7.69715 12.6519C9.07881 11.9837 10.2028 12.0597 10.2028 12.0597ZM15.3938 14.9612C18.3813 13.4092 16.9999 11.9177 16.0357 12.1186C15.8 12.1678 15.6942 12.2105 15.6942 12.2105C15.6942 12.2105 15.782 12.0729 15.9493 12.0137C17.8566 11.3434 19.3232 13.9911 15.3341 15.0399C15.3341 15.0396 15.3799 14.9982 15.3938 14.9612Z" fill="#0074BD"/>
<path d="M13.5932 3.2959C13.5932 3.2959 15.2473 4.95103 12.0239 7.49533C9.43892 9.53695 11.4345 10.7007 12.023 12.031C10.5139 10.6696 9.40703 9.471 10.1495 8.35555C11.2398 6.71853 14.2604 5.92451 13.5932 3.2959Z" fill="#EA2D2E"/>
<path d="M10.4965 19.1679C13.3634 19.3512 17.7671 19.0659 17.8713 17.7092C17.8713 17.7092 17.6709 18.2235 15.5017 18.6316C13.0545 19.0923 10.0356 19.0386 8.24561 18.743C8.24561 18.7432 8.61232 19.0468 10.4965 19.1679Z" fill="#0074BD"/>
</svg>
