<svg width="24" height="24" viewBox="0 0 24 24" fill="none" xmlns="http://www.w3.org/2000/svg">
<rect width="24" height="24" rx="12" fill="#F7DF1E"/>
<path d="M16.5821 14.2238C18.2614 14.9051 18.8276 15.6356 18.9665 16.505L18.93 16.4518C19.0618 17.2021 18.8943 17.6904 18.8712 17.7619C18.2511 19.8819 14.7972 19.9534 13.4156 18.5591C13.1298 18.2256 12.9392 18.0597 12.7725 17.6785L14.2255 16.844C14.6185 17.4395 14.9751 17.7619 15.619 17.9048C16.4892 18.012 17.3706 17.7143 17.18 16.7853C16.9775 16.0222 15.3927 15.8444 14.3089 15.0345C13.2132 14.2961 12.9519 12.5095 13.8571 11.4845C14.1668 11.1034 14.6781 10.8175 15.2148 10.6865L15.7746 10.6158C16.8584 10.5912 17.5246 10.8771 18.0248 11.4368C18.1693 11.579 18.2757 11.7227 18.4901 12.0562C17.9177 12.4127 17.9176 12.4127 17.0968 12.9493L17.0966 12.9494C16.9172 12.5683 16.6314 12.3301 16.3217 12.2348C15.8453 12.0919 15.2379 12.2459 15.1188 12.7589C15.0719 12.9137 15.083 13.0566 15.1553 13.3186C15.3482 13.7593 15.9977 13.9499 16.5821 14.2238Z" fill="white"/>
<path d="M10.049 10.7524H11.834L11.8308 10.7969C11.8308 12.4405 11.8403 14.0722 11.8308 15.703C11.8348 16.7162 11.9205 17.6214 11.5156 18.3598C11.2353 18.9315 10.6993 19.3007 10.0776 19.4801C9.12243 19.6945 8.21012 19.5635 7.53124 19.1586C7.07549 18.8846 6.72215 18.4543 6.47998 17.9541L7.92904 17.0608C7.94254 17.0608 7.97986 17.1331 8.02988 17.2164C8.21488 17.5253 8.37448 17.7397 8.68891 17.8953C8.99539 17.9914 9.6703 18.0612 9.93232 17.5142C10.0919 17.2379 10.0419 16.3398 10.0419 15.3616C10.0419 13.8205 10.049 12.2912 10.049 10.7524Z" fill="white"/>
</svg>
