<svg width="24" height="24" viewBox="0 0 24 24" fill="none" xmlns="http://www.w3.org/2000/svg">
<rect width="24" height="24" rx="12" fill="#F1E6D3"/>
<g clip-path="url(#clip0_643_1475)">
<path d="M18.313 12.183C18.313 15.7492 15.4866 18.6402 12.0001 18.6402C8.51343 18.6402 5.68701 15.7492 5.68701 12.183C5.68701 8.61671 8.51357 5.72546 12.0001 5.72546C15.4866 5.72546 18.313 8.61671 18.313 12.183Z" fill="#D33833"/>
<path d="M5.94422 13.7821C5.94422 13.7821 5.48719 7.04828 11.6918 6.85605L11.259 6.13464L7.89202 7.26485L6.93014 8.37114L6.08836 9.98257L5.60742 11.8584L5.75156 13.1089" fill="#EF3D3A"/>
<path d="M7.67638 7.77785C6.56882 8.91129 5.88341 10.4759 5.88341 12.207C5.88341 13.9377 6.56882 15.5027 7.67638 16.6358C8.78451 17.7688 10.3117 18.4682 12.0002 18.4682C13.6887 18.4682 15.2159 17.7688 16.324 16.6358C17.4315 15.5027 18.1171 13.9377 18.1171 12.207C18.1171 10.4759 17.4315 8.91115 16.324 7.77785C15.2159 6.64512 13.6887 5.94579 12.0002 5.94565C10.3118 5.94579 8.78451 6.64498 7.67638 7.778V7.77785ZM7.39612 16.9099C6.21909 15.706 5.49121 14.0423 5.49121 12.207C5.49121 10.3714 6.21909 8.70781 7.39612 7.50392C8.57315 6.29975 10.2021 5.55345 12.0002 5.55359C13.7985 5.55331 15.4278 6.29975 16.6044 7.50392C17.7817 8.70781 18.5096 10.3715 18.5094 12.207C18.5094 14.0421 17.7817 15.706 16.6044 16.9099C15.4278 18.1139 13.7985 18.8604 12.0003 18.8604C10.2021 18.8604 8.57287 18.1139 7.39612 16.9099Z" fill="#231F20"/>
<path d="M14.6576 12.2186L13.6955 12.3629L12.3969 12.5072L11.5551 12.5312L10.7373 12.5073L10.1121 12.3148L9.55891 11.7137L9.12607 10.4871L9.02988 10.2226L8.45261 10.0302L8.11596 9.47702L7.87549 8.68333L8.14 7.98583L8.76522 7.76955L9.27035 8.01002L9.51082 8.53905L9.79952 8.49095L9.89557 8.37072L9.79952 7.81764L9.77533 7.12014L9.91961 6.15827L9.91399 5.6087L10.3526 4.90769L11.1221 4.35447L12.469 3.77734L13.9601 3.99377L15.2587 4.93173L15.86 5.89361L16.2448 6.59111L16.341 8.32262L16.0523 9.81381L15.5232 11.1364L15.0183 11.8339" fill="#F0D6B7"/>
<path d="M15.3787 11.5213L14.8017 12.0985V14.335L14.2983 16.3966L14.0562 16.4032L14.2485 18.712L15.1623 18.5918L14.946 16.3792L14.5379 16.3903L15.6436 16.3309C15.6436 16.3309 16.1966 14.9361 16.1966 14.8639C16.1966 14.7918 16.6778 12.8439 16.6778 12.8439L15.5952 11.7137L15.3788 11.521L15.3787 11.5213ZM9.58282 11.8818L8.98165 12.1224L7.05762 13.4452L7.17799 13.8301L7.73121 15.4652L7.97154 18.1831L8.13987 18.4714L10.5447 19.2894L10.6893 19.1207L10.4006 17.1006V16.5236L13.8395 16.3792L14.1039 16.2349L12.012 15.2488L12.3967 14.5035L11.8436 14.6957L11.6271 14.4312L11.3385 13.1807L11.0979 13.1085L10.5689 12.94L10.1119 12.5314L9.58282 11.8818Z" fill="#335061"/>
<path d="M8.14013 7.98598L8.76535 7.76941L9.27048 8.01002L9.51095 8.53906L9.79965 8.49096L9.87179 8.2024L9.72751 7.64932L9.87179 6.32646L9.75141 5.60506L10.1844 5.09993L11.1224 4.35448L10.8577 3.99377L9.53499 4.64304L8.98191 5.07602L8.66916 5.74934L8.18823 6.3986L8.04395 7.16824L8.14013 7.98598Z" fill="#6D6B6D"/>
<path d="M11.3596 4.07458C11.1948 4.07289 11.002 4.08977 11.002 4.08977L9.43895 4.69122L8.83749 5.29253L8.57298 5.77347L9.1262 5.72538C9.1262 5.72538 9.4869 4.8355 10.9299 4.40266C11.8317 4.1321 11.6344 4.07753 11.3596 4.07458ZM9.75155 5.605L8.42884 5.91761L8.04395 7.16819L8.14013 7.98578L8.40451 7.81774C8.40451 7.81774 7.89952 6.13389 9.82341 5.89343L9.75155 5.605Z" fill="#DCD9D8"/>
<path d="M12.8418 3.57592C12.6566 3.57921 12.4733 3.61481 12.3004 3.68111C10.8576 4.23419 9.79936 5.24416 9.82327 5.89342C9.86433 6.9993 9.84745 7.00014 9.84745 7.00014C9.84745 7.00014 10.2564 4.8836 12.3248 4.47466C14.0275 4.13814 14.9219 4.54666 15.2587 4.93141C15.2587 4.93141 14.0985 3.55047 12.8419 3.57578L12.8418 3.57592ZM15.4192 5.17202C15.3425 5.1716 14.7283 5.1872 14.7056 5.77347C14.7056 5.77347 14.7056 5.86952 14.7537 5.9657C14.7537 5.9657 15.3069 5.34035 15.6436 5.677L15.4272 5.17216C15.4272 5.17216 15.4244 5.17202 15.4192 5.17202ZM11.8775 5.45467C11.7594 5.45749 11.6137 5.50685 11.4347 5.62905C10.9057 5.98975 10.9537 6.49488 11.0499 6.59106C11.1461 6.68725 11.1201 6.88075 11.1934 6.74786C11.2665 6.61497 11.2425 6.18227 11.507 6.06203C11.7715 5.9418 12.2053 5.80722 12.3732 6.03081C12.3732 6.03081 12.2998 5.44497 11.8775 5.45481V5.45467ZM15.5952 6.92786C15.5952 6.92786 15.1989 7.01139 15.1624 7.36071C15.1258 7.70988 15.5954 7.4327 15.6675 7.40866L15.5952 6.92772V6.92786ZM12.6853 6.95191C12.6853 6.95191 12.1562 7.02405 12.1562 7.36071C12.1562 7.69736 12.7575 7.67331 12.9259 7.52903L12.6853 6.95191ZM8.4045 7.81788L7.85156 8.39472L7.94775 9.11627L8.23603 9.86158L8.54892 9.95805C8.09189 9.40497 8.30831 9.01994 8.4045 8.49091C8.50055 7.96174 9.41461 8.5151 9.41461 8.5151L9.39042 8.15411L9.02986 7.86583L8.4045 7.81788ZM13.8339 8.92136C13.6755 8.91433 13.6151 9.43253 13.6021 9.56627C13.6457 9.43689 14.0481 9.17674 14.0481 9.17674C14.0481 9.17674 14.0481 8.98042 13.8517 8.92446C13.8459 8.92273 13.8399 8.92169 13.8339 8.92136ZM13.6021 9.56627C13.5982 9.57614 13.5973 9.58693 13.5993 9.59735C13.5993 9.59735 13.6002 9.58596 13.6021 9.56627ZM9.48914 9.74922L9.17414 10.0544L9.24628 11.1126L10.0159 12.3151C10.0159 12.3151 10.8798 12.51 10.7854 12.4354C9.75141 11.6177 9.67927 10.1025 9.65522 9.934C9.63131 9.76581 9.48914 9.74922 9.48914 9.74922ZM12.1953 10.1077C12.1004 10.1091 12.0375 10.1397 12.0198 10.1634C11.9598 10.2435 12.0841 10.6797 12.0841 10.6797L12.2043 10.7039C12.1804 10.2228 12.4688 10.1746 12.4688 10.1746C12.3622 10.1234 12.2692 10.1065 12.1953 10.1077Z" fill="#F7E4CD"/>
<path d="M9.41449 11.858L7.05762 13.4451L7.32213 14.1909L7.94763 16.8841L7.97154 18.3033L8.3082 18.4234C8.78913 17.2689 7.85145 13.5413 7.85145 13.5413L10.1119 12.5313L9.41449 11.858ZM10.3446 14.5929L10.2802 14.7438C10.2802 14.7438 10.2322 15.1766 10.2322 15.2969C10.2322 15.4173 10.2802 16.4275 10.2802 16.4275H10.6651V14.9843L10.3444 14.5928L10.3446 14.5929ZM10.3525 16.6438L9.27035 16.6919L9.58282 16.9084L10.3525 17.0287V16.6438ZM15.3787 11.5212L14.9219 12.0262L16.6054 13.2769L16.6534 12.6998L15.3787 11.5214V11.5212ZM14.8977 16.235L14.0562 16.4032L14.1763 17.0768C14.4889 17.2211 15.0181 16.8362 15.0181 16.8362L14.8977 16.235Z" fill="#49728B"/>
<path d="M10.1118 12.3151V12.5314L10.4175 12.8682L11.3794 13.301L11.4036 12.5797L10.7372 12.5072L10.1118 12.3151ZM17.1514 15.73L16.3817 15.9706L15.6434 16.3311L15.2512 16.2593L14.9458 16.3793L15.2034 18.3998L16.1411 18.135L17.9209 18.0388L18.1854 17.2212L17.7044 15.8023L17.1514 15.73ZM14.0562 16.4032L12.6542 16.4035L10.4005 16.5236L10.4414 17.6301L10.6892 19.1208L11.187 21.1414L12.2932 21.3817L14.121 21.2375L14.1449 20.8766L13.9284 18.9287L14.0562 16.4032ZM14.2414 16.2111L13.7122 14.8643L13.159 14.0706C13.159 14.0706 13.2793 13.734 13.4477 13.734H14.0008L14.5298 13.9264L14.4819 14.8162L14.2414 16.2111Z" fill="white"/>
<path d="M10.3285 12.6517L10.2563 12.7481L10.6653 13.0365L11.3385 13.1806L11.3146 12.8923C11.0741 12.9645 10.3285 12.6517 10.3285 12.6517ZM13.6711 13.6857L13.1182 13.7577L14.0562 15.9703L14.2484 15.9945L14.3446 15.7541C14.3446 15.7541 13.671 14.4552 13.671 14.2629C13.671 14.2629 13.7914 13.9743 13.9597 14.0463C14.1282 14.1186 14.489 14.311 14.489 14.311V13.8541L13.6711 13.6857ZM15.956 16.211L15.6434 16.331L15.9079 17.6538C15.8117 17.6297 15.1865 17.9186 15.1865 17.9186L15.2582 18.3033L15.5232 18.207L16.3647 18.0869L16.6053 18.3995L17.3267 18.4234L17.7597 18.3272L18.1444 17.7502L18.1202 17.3171L17.8559 16.5475C17.928 17.1246 17.6393 17.678 17.6393 17.678C17.5191 17.678 16.1724 17.6057 16.1724 17.6057C16.1724 17.4614 15.956 16.211 15.956 16.211ZM14.104 16.2349L13.7433 16.3793C13.7433 16.3793 13.6232 18.8806 13.9839 20.6602C13.9839 20.6602 13.2625 21.1171 12.2041 21.2372L14.2242 21.165L14.4648 21.0207L14.1763 17.0766L14.104 16.2349ZM14.7326 18.8079C14.6291 18.8084 14.4752 18.8818 14.3665 18.8747C14.3506 19.2545 14.4039 19.8637 14.4218 20.2622C14.6744 20.2625 14.7825 20.2071 14.9711 20.1435C14.9923 19.6745 14.8224 19.2404 14.7736 18.8122C14.7603 18.809 14.7464 18.8075 14.7326 18.8079Z" fill="#DCD9D8"/>
<path d="M14.9216 12.4835C14.6133 12.4979 14.1977 12.8909 14.004 12.9598C14.029 13.0318 14.0701 13.0888 14.0732 13.1806C14.2089 13.1471 14.3741 13.1701 14.4918 13.2279C14.3557 13.243 14.2053 13.2422 14.1153 13.307C14.0822 13.4022 14.123 13.532 14.1009 13.6642C14.4238 13.7553 14.7926 13.804 15.2006 13.8159C15.2802 13.7129 15.3072 13.516 15.2976 13.3212C15.2864 13.0864 15.2246 12.6035 15.0797 12.519C15.0318 12.4913 14.9787 12.481 14.9216 12.4835ZM11.7526 12.5887C11.4258 12.5957 11.4598 13.1664 11.4757 13.5157C11.4891 13.8107 11.6428 14.1229 11.7092 14.3191C11.7407 14.4105 11.7477 14.5078 11.8259 14.5258C11.9643 14.5582 12.4207 14.3758 12.5508 14.3049C12.8257 14.155 13.0392 13.9168 13.2726 13.7569L13.2813 13.5237C13.141 13.4537 12.979 13.4039 12.7727 13.3949C12.9126 13.3246 13.1182 13.3256 13.2456 13.2419L13.2493 13.1488C13.0167 13.131 12.928 13.0273 12.7747 12.9434C12.5238 12.8064 12.1469 12.6569 11.8229 12.595C11.7998 12.5905 11.7762 12.5884 11.7526 12.5887ZM13.6412 13.0749C13.579 13.0754 13.5049 13.0989 13.4204 13.1554C13.4044 13.3325 13.4457 13.3903 13.4813 13.5935C13.9725 13.7472 13.977 13.0726 13.6412 13.0749Z" fill="#D33833"/>
<path d="M14.8908 12.3152L13.977 12.8442L13.9286 13.1086V13.6376L14.2653 13.758C14.2653 13.758 14.097 13.5175 14.2174 13.4454C14.3376 13.3732 14.458 13.4454 14.5301 13.3252C14.6022 13.2048 14.5301 13.1326 14.554 12.9884C14.5781 12.8441 14.6983 12.8202 14.8185 12.7961C14.9388 12.7722 15.2756 12.724 15.3236 12.8442L15.1794 12.4114L14.8908 12.3152ZM11.8623 12.46C11.7432 12.4575 11.6346 12.4772 11.555 12.5313C10.9896 12.9159 11.4454 13.8048 11.7224 14.3277C11.6989 14.0271 11.6737 13.7267 11.6467 13.4264C11.5958 12.8667 11.7813 12.9645 12.2666 12.9645C12.3409 12.9645 12.7229 13.0528 12.7504 13.1087C12.8816 13.3766 12.531 13.317 12.9014 13.5191C13.2141 13.6895 13.7665 13.4154 13.6402 13.0365C13.5695 12.9521 13.2718 13.0102 13.1651 12.9549L12.6014 12.6627C12.4372 12.5773 12.1244 12.4655 11.8623 12.46ZM11.7222 14.3275C11.7281 14.4023 11.7343 14.477 11.7401 14.5517L11.8262 14.526C11.7975 14.469 11.7616 14.4018 11.7224 14.3277L11.7222 14.3275Z" fill="#EF3D3A"/>
<path d="M12.5012 3.51005C11.9963 3.51961 11.5026 3.60357 11.0911 3.75502C10.7853 3.86752 10.489 3.96821 10.2204 4.12599C9.50164 4.54786 8.73861 4.83024 8.52556 5.67947C8.00047 5.9146 7.84212 6.58665 7.86856 7.36655C7.87362 7.51857 7.95617 7.70855 7.92762 7.85157C7.913 7.92413 7.81456 8.01708 7.79487 8.06433C7.54315 8.66438 7.74495 9.45315 8.03576 9.87966C8.21154 10.1373 8.50264 10.3658 8.88654 10.4264C8.90187 10.6563 8.95714 10.8542 9.06331 11.0872C9.13053 11.2346 9.38154 11.4995 9.28915 11.6875C9.24275 11.7823 8.83395 11.9881 8.69839 12.0695C8.24065 12.344 7.90892 12.5123 7.48634 12.8165C7.21297 13.0133 6.78533 13.0387 6.85283 13.4926C6.89825 13.7989 7.07262 14.1786 7.17233 14.4857C7.28033 14.8171 7.43501 15.1208 7.52389 15.4647C7.72147 16.2313 7.76267 16.9535 7.81076 17.7022C7.82961 17.9954 7.79839 18.3056 7.87447 18.4675C7.95293 18.6348 8.24375 18.6883 8.45384 18.7859C9.06064 19.0664 9.70442 19.4949 10.5002 19.4098C10.6899 20.0477 10.8692 20.7271 11.0969 21.2858C11.9129 21.5791 13.2012 21.5333 14.0496 21.4313C14.3075 21.4001 14.5796 21.2728 14.6402 21.0492C14.6221 20.9114 14.602 20.775 14.6107 20.612C14.8759 20.5572 15.2369 20.5119 15.2952 20.2183C15.3771 19.8065 15.0352 19.2166 15.1493 18.7648C15.3028 18.715 15.4668 18.676 15.4423 18.4336C15.7011 18.2989 16.0081 18.2688 16.3357 18.2814C16.3779 18.363 16.438 18.4415 16.492 18.4863C16.951 18.5786 17.3955 18.5862 17.7766 18.4619C18.2079 18.321 18.4136 17.4388 18.315 17.0191C18.245 16.7216 18.0867 16.2344 17.9517 15.9464C17.5859 15.1645 16.4958 15.6553 15.9123 15.9452C16.1954 15.2006 16.4388 14.4286 16.6886 13.5933C16.7631 13.343 16.9105 12.9882 16.8774 12.7289C16.8465 12.485 16.4662 12.2288 16.2661 12.0356C16.1549 11.9284 15.6363 11.5347 15.6062 11.3873C15.5771 11.2447 15.8177 10.9217 15.895 10.7601C16.0061 10.5289 16.0857 10.246 16.1404 10.0535C16.5482 8.61966 16.5897 6.64979 16.0067 5.47107C15.7859 5.02458 15.1685 4.40794 14.7825 4.11586C14.2133 3.68555 13.3422 3.4943 12.5012 3.51005ZM12.5684 3.90943C13.25 3.90282 14.008 4.14329 14.5212 4.43283C14.9502 4.67471 15.2666 5.14271 15.5683 5.5321C15.1452 5.40652 14.7851 5.62238 14.8507 5.97141C15.205 5.64671 15.8101 5.9679 15.9891 6.32691C16.1602 6.67004 16.1591 7.17868 16.1854 7.68886C16.2491 8.92608 15.959 10.2025 15.3373 11.0968C15.1711 11.3356 15.0316 11.5966 14.7979 11.7609C14.2345 12.1565 13.3782 12.5151 12.645 12.2692C11.6761 11.944 11.236 11.2984 10.703 10.5592C10.7175 10.9653 11.0031 11.2986 11.2852 11.6092C11.5306 11.8799 11.8267 12.1858 12.1454 12.3121C11.8796 12.2496 11.4715 12.2301 11.3607 12.4687C10.7405 12.4275 10.1643 12.3641 9.87092 11.9438C9.63973 11.6124 9.40489 11.049 9.29956 10.6137C9.27804 10.5243 9.2412 10.3339 9.2502 10.2851C9.28479 10.0962 9.62117 10.0133 9.48884 9.7493C9.24472 9.74705 9.18973 9.97149 8.96572 9.99371C8.38564 10.0511 7.97642 9.22491 8.00272 8.7264C8.02508 8.30255 8.38339 7.89699 8.87347 7.95057C9.21983 7.98854 9.33753 8.36654 9.40475 8.70291C9.60443 8.7136 9.89286 8.69433 9.98736 8.53852C9.97372 8.15841 9.79723 7.85354 9.80933 7.50422C9.83211 6.84779 10.1897 6.25547 9.91381 5.60888C10.2091 4.93894 11.0755 4.41019 11.7163 4.09055C11.9645 3.9668 12.2586 3.9128 12.5685 3.90971L12.5684 3.90943ZM10.8052 4.23933C10.8331 4.24383 10.8587 4.26549 10.8834 4.29193C10.8792 4.40597 10.7667 4.40358 10.6908 4.44015C10.5726 4.58541 10.4 4.65333 10.2562 4.81252C10.1087 4.97565 9.94376 5.41383 9.74829 5.46221C9.65028 5.48668 9.53834 5.44533 9.45298 5.45096C9.22728 5.46516 9.06837 5.58076 8.83943 5.61394C9.13503 4.96777 10.0571 4.44493 10.7764 4.24116C10.7858 4.23842 10.7956 4.2378 10.8052 4.23933ZM12.0343 5.64179C11.6635 5.64221 11.2412 6.03863 11.1311 6.34111C11.0863 6.46402 11.0157 6.70533 11.1931 6.74822C11.3918 6.3054 11.7175 5.87846 12.3729 6.03104C12.4988 5.82418 12.2738 5.67216 12.1076 5.64713C12.0833 5.64351 12.0589 5.64172 12.0343 5.64179ZM9.69204 5.70929C9.94545 6.35419 9.51022 7.1206 9.67236 7.82583C9.722 8.04183 9.8937 8.37708 9.61948 8.3844C9.62665 7.76986 8.86433 7.37991 8.28987 7.74118C8.25148 7.27515 8.18497 6.61997 8.50278 6.27038C8.79598 5.94751 9.20014 5.74655 9.69204 5.70929ZM15.5668 6.77762C15.5458 7.13157 15.6773 7.34461 15.7686 7.59493C15.6108 7.69421 15.3038 7.63233 15.1259 7.7101C15.1133 8.23365 15.9359 7.9756 16.0611 7.68408C15.8741 7.4124 15.7459 7.08643 15.5977 6.77888L15.5668 6.77747V6.77762ZM12.7086 6.78563C12.6113 7.06182 12.8757 7.53066 13.0239 7.76776C12.8308 7.95521 12.4836 7.79954 12.2253 7.78744C11.9787 8.17683 12.7066 8.2501 13.019 8.15785C13.1045 8.13268 13.2524 8.00457 13.2728 7.94691C13.3595 7.70321 13.1846 7.59633 13.0946 7.50858C12.8949 7.31396 12.8491 7.04311 12.7086 6.78563ZM14.192 7.04016C14.1732 7.03763 14.1506 7.04438 14.1234 7.06407C14.1058 7.71319 14.5882 8.25052 14.9479 8.68407C15.1237 8.89571 15.3355 9.01665 15.1404 9.34543C14.826 9.46496 14.3171 9.80738 13.8799 9.73257C13.6478 9.69291 13.7001 9.42952 13.6169 9.28636C13.4569 9.49688 13.5196 9.8154 13.6844 9.95855C14.4549 10.0348 14.9793 9.70627 15.4495 9.40407C15.4308 9.28566 15.5918 9.07219 15.5471 8.89416C15.5316 8.83285 15.3921 8.74397 15.3075 8.6513C14.9625 8.27513 14.4899 7.71305 14.302 7.27346C14.2851 7.23408 14.2737 7.05099 14.192 7.04016ZM8.71048 8.25446C8.53231 8.25165 8.37087 8.36907 8.33276 8.64582C8.41179 8.59407 8.4755 8.44683 8.61795 8.51686C8.49279 8.76113 8.52289 9.23687 8.69318 9.39155C8.6922 9.10158 8.64706 8.60588 8.89428 8.62093C9.06739 8.63133 9.1024 9.00202 9.24978 9.08611C9.35145 8.59702 9.00762 8.25896 8.71048 8.25446ZM15.7489 9.71133C15.373 9.8829 15.0697 10.1328 14.5786 10.1799C14.5549 10.261 14.565 10.4658 14.5781 10.6004C15.2203 10.587 15.5301 10.128 15.7489 9.71133ZM12.6715 9.98147C12.8592 10.4839 13.7055 10.6611 14.4213 10.6254C14.4201 10.4766 14.4208 10.3259 14.391 10.2038C13.8342 10.2201 13.0811 10.1968 12.6715 9.98147ZM12.5937 10.3834C12.2319 10.3838 12.537 10.585 12.5983 10.6638C12.7252 10.8269 12.874 11.1052 13.1057 11.2284C13.4711 11.4225 14.1967 11.341 14.4599 11.234C14.5572 11.1946 14.6357 11.0854 14.6719 10.9931C13.8506 11.0128 12.8771 11.0947 12.5937 10.3834ZM15.3269 11.7657C15.6081 11.9923 15.778 12.2055 16.0477 12.4478C16.194 12.579 16.482 12.7362 16.5111 12.9484C16.5273 13.0668 16.4547 13.3569 16.428 13.4901C16.3099 14.0742 16.0441 14.846 15.7909 15.4581C15.699 15.6806 15.611 15.9587 15.4896 16.0068C15.1572 16.1385 14.7537 15.994 14.4712 16.17C14.8509 15.5111 15.2643 14.8887 15.6364 14.222C15.5797 14.0898 15.4408 14.0334 15.4004 13.8862C15.6617 13.3928 15.5416 11.8608 14.8748 12.1842C14.968 12.0473 15.2128 11.9342 15.3269 11.7657ZM9.45945 12.1145C9.52006 12.0906 9.96247 12.6661 10.0279 12.7128C10.3865 12.9674 10.8317 13.1685 11.2481 13.3672C11.2735 13.5583 11.3324 13.8059 11.4362 14.1372C11.5505 14.5031 11.6449 15.0195 12.1284 14.7557C12.0824 14.9647 11.8138 15.0943 11.8879 15.338C11.9343 15.4909 12.442 15.6797 12.6028 15.7706C12.8997 15.9379 13.1705 16.0305 13.3986 16.1283C12.3622 16.1567 11.389 16.2411 10.4312 16.3715C10.3164 16.1937 10.3627 15.9198 10.3506 15.6367C10.3374 15.3293 10.4652 14.6363 10.3444 14.5933C10.2079 14.5448 10.1823 14.8215 10.1773 14.8825C10.1517 15.2071 10.3319 15.8943 10.1543 16.2829C9.95993 16.2279 9.86417 16.0818 9.68206 16.0154C9.61062 16.2404 9.83 16.2512 9.8075 16.3941C9.77768 16.583 9.41979 16.4251 9.42176 16.7059C9.65478 16.7433 10.0122 16.6335 10.2613 16.7385C10.3264 17.5025 10.431 18.2265 10.5456 19.038C9.55451 18.9865 8.91298 18.4941 8.18243 18.1525C8.13701 16.5367 7.87953 14.8605 7.24193 13.4922C7.91075 12.9761 8.65915 12.4302 9.45959 12.1146L9.45945 12.1145ZM14.9554 12.4838C14.9998 12.4859 15.0416 12.497 15.0797 12.5192C15.2248 12.6038 15.2865 13.0868 15.2978 13.3216C15.3072 13.5164 15.2801 13.713 15.2007 13.8162C14.7927 13.8042 14.4239 13.7557 14.1011 13.6646C14.1231 13.5324 14.0821 13.4023 14.1151 13.307C14.205 13.2423 14.3557 13.2434 14.4917 13.2282C14.3742 13.1703 14.2091 13.1474 14.0734 13.1808C14.0701 13.0889 14.0289 13.0321 14.004 12.9601C14.2047 12.8885 14.6444 12.4684 14.9554 12.4838ZM14.2241 12.5016C14.0528 12.6133 13.907 12.7529 13.7426 12.8722C13.378 12.8903 13.179 12.847 12.9111 12.6376C12.9153 12.6207 12.9423 12.6283 12.9434 12.6076C13.3337 12.7816 13.8301 12.5368 14.2241 12.5016ZM10.3784 12.5085C10.5819 12.6498 10.9757 12.615 11.2753 12.6676C11.2908 12.7636 11.2132 12.8897 11.2146 13.0235C10.9625 13.008 10.1702 12.7197 10.3784 12.5085ZM11.7526 12.5891C11.7744 12.5885 11.7978 12.5906 11.8229 12.5954C12.1469 12.6573 12.5238 12.8066 12.7747 12.9437C12.928 13.0276 13.0167 13.1311 13.2493 13.1491C13.2483 13.18 13.2469 13.2109 13.2458 13.2421C13.1184 13.3258 12.9126 13.3248 12.7729 13.3951C12.979 13.4041 13.1413 13.4538 13.2816 13.5238L13.2725 13.7571C13.0389 13.917 12.8256 14.1551 12.5507 14.305C12.4206 14.3759 11.9643 14.5584 11.826 14.5261C11.7477 14.5079 11.7407 14.4107 11.7093 14.3193C11.6428 14.1232 11.4894 13.8111 11.4759 13.5161C11.46 13.1666 11.4258 12.5957 11.7526 12.5891ZM13.6221 13.0761C13.6414 13.0745 13.6596 13.0751 13.6769 13.0776C13.9759 13.1216 13.9542 13.7416 13.4812 13.5937C13.4456 13.3906 13.4044 13.3327 13.4203 13.1557C13.4965 13.1049 13.564 13.0807 13.6221 13.0761ZM13.8943 13.7812C14.0656 13.7994 14.2012 14.0357 14.4456 14.0202C14.4064 14.6575 14.4269 15.2971 14.249 15.881C13.9175 15.2732 13.7225 14.5394 13.2934 14.0223C13.3387 13.9742 13.3792 13.9209 13.4237 13.8717C13.618 13.953 13.7449 13.7651 13.8943 13.7812ZM14.8798 13.9839C15.1158 13.9821 15.309 14.1364 15.4152 14.307C15.0828 14.8765 14.7647 15.4612 14.3704 15.9635C14.5356 15.4772 14.6065 14.6634 14.6315 14.043C14.709 14.0055 14.7938 13.9854 14.8798 13.9839ZM13.0841 14.2009C13.4778 14.7007 13.7174 15.3435 13.9812 15.9639C13.358 15.7761 12.7212 15.4712 12.1751 15.1621C12.2822 14.6975 12.7024 14.4567 13.0841 14.2009ZM17.234 15.8502C17.4052 15.8544 17.5752 15.9933 17.6496 16.106C17.784 16.309 17.9096 16.9068 17.9801 17.2242C18.0851 17.6966 17.849 18.1564 17.4734 18.2476C17.2 18.3139 16.7807 18.3315 16.6017 18.245C16.8207 18.1253 17.15 18.1246 17.4035 18.0425C17.0403 17.8861 16.5028 18.0335 16.066 18.0062C16.0133 17.4669 15.9735 16.8822 15.8457 16.4566C16.1006 16.1856 16.7165 16.1205 17.0663 15.8967C17.1162 15.8645 17.1747 15.8483 17.234 15.8502ZM17.2044 16.3533C16.7568 16.3666 16.407 16.4851 16.2073 16.7665C16.5706 16.7897 16.8321 16.4279 17.2044 16.3533ZM15.4409 16.4637C15.4726 16.4651 15.5038 16.4686 15.5337 16.4754C15.7717 16.8846 15.8229 17.5651 15.815 18.059C15.6666 18.0877 15.5703 18.1726 15.3903 18.167C15.3443 17.6043 15.2137 17.0127 15.16 16.4767C15.2457 16.475 15.3457 16.4598 15.4409 16.4637ZM12.6843 16.4698C13.1539 16.4622 13.6096 16.4897 14.004 16.5719C14.1004 17.1981 14.0645 17.8157 14.1348 18.4295C14.2279 19.2463 14.1582 20.1781 14.3176 20.9433C13.4495 21.2123 12.2659 21.1863 11.2838 20.8882C10.8412 19.5322 10.5999 18.245 10.4334 16.7138C11.0785 16.5931 11.9011 16.4824 12.6843 16.4698ZM14.7689 16.5238C14.924 17.0844 14.9147 17.7978 14.9909 18.4316C14.7564 18.4831 14.5848 18.5083 14.3324 18.5462C14.2822 17.8878 14.2438 17.2391 14.2528 16.5816C14.4317 16.5217 14.5895 16.5253 14.7689 16.5238ZM16.806 16.8466C16.6288 16.8489 16.4693 16.8874 16.401 16.9918C16.709 17.0171 17.065 16.9679 17.3685 16.9358C17.2301 16.888 17.0068 16.844 16.806 16.8466ZM16.7552 17.3023C16.5966 17.3042 16.4567 17.3343 16.3848 17.4115C16.7088 17.4387 17.1327 17.4454 17.4737 17.4381C17.3354 17.3737 17.0196 17.2989 16.7552 17.3023ZM14.6855 18.812C14.7187 18.8068 14.7488 18.8057 14.7737 18.8123C14.8226 19.2405 14.9923 19.6745 14.9711 20.1435C14.7827 20.207 14.6744 20.2627 14.4217 20.2623C14.404 19.8638 14.3505 19.2546 14.3666 18.8746C14.4597 18.8808 14.5861 18.8276 14.6855 18.812Z" fill="#231F20"/>
<path d="M14.8799 13.9838C14.7938 13.9852 14.709 14.0054 14.6314 14.0428C14.6064 14.6633 14.5358 15.4771 14.3704 15.9632C14.7649 15.461 15.0829 14.8762 15.4153 14.3068C15.309 14.1362 15.1159 13.982 14.8799 13.9838ZM13.0842 14.2009C12.7025 14.4568 12.2826 14.6976 12.1753 15.1622C12.7215 15.4713 13.3582 15.776 13.9815 15.9639C13.7177 15.3438 13.478 14.7008 13.0842 14.2009Z" fill="#81B0C4"/>
<path d="M14.2241 12.5015C14.0529 12.6133 13.907 12.7528 13.7426 12.8722C13.378 12.8902 13.179 12.8468 12.9111 12.6374C12.9155 12.6206 12.9425 12.6282 12.9435 12.6075C13.3337 12.7814 13.83 12.5366 14.2241 12.5015Z" fill="#F0D6B7"/>
<path d="M14.1283 14.299C14.1283 14.3341 14.1144 14.3677 14.0895 14.3925C14.0647 14.4173 14.0311 14.4313 13.996 14.4313C13.961 14.4313 13.9273 14.4173 13.9025 14.3925C13.8777 14.3677 13.8638 14.3341 13.8638 14.299C13.8638 14.2639 13.8777 14.2303 13.9025 14.2055C13.9273 14.1807 13.961 14.1667 13.996 14.1667C14.0311 14.1667 14.0647 14.1807 14.0895 14.2055C14.1144 14.2303 14.1283 14.2639 14.1283 14.299ZM14.2606 14.9123C14.2606 14.9474 14.2467 14.981 14.2219 15.0058C14.197 15.0307 14.1634 15.0446 14.1283 15.0446C14.0932 15.0446 14.0595 15.0307 14.0347 15.0058C14.0099 14.981 13.996 14.9474 13.996 14.9123C13.996 14.8772 14.0099 14.8435 14.0347 14.8187C14.0595 14.7939 14.0932 14.7799 14.1283 14.7799C14.1634 14.7799 14.197 14.7939 14.2219 14.8187C14.2467 14.8435 14.2606 14.8772 14.2606 14.9123Z" fill="#1D1919"/>
</g>
<defs>
<clipPath id="clip0_643_1475">
<rect width="18" height="18" fill="white" transform="translate(3 3.50916)"/>
</clipPath>
</defs>
</svg>
