<svg width="24" height="24" viewBox="0 0 24 24" fill="none" xmlns="http://www.w3.org/2000/svg">
<rect width="24" height="24" rx="12" fill="#99425B"/>
<path d="M8.57214 11.9099C8.57214 11.4075 8.16486 11.0002 7.66245 11.0002C7.16003 11.0002 6.75273 11.4075 6.75273 11.9099C6.75274 12.073 6.79568 12.2261 6.87084 12.3584C6.94048 12.1972 7.03079 12.0313 7.15219 11.9014C7.2367 11.8109 7.34405 11.7294 7.47831 11.684C7.61548 11.6376 7.76187 11.6353 7.91065 11.6759C8.10945 11.7305 8.26964 11.845 8.35786 12.0248C8.41812 12.1477 8.43364 12.2786 8.42862 12.4005C8.51945 12.259 8.57214 12.0906 8.57214 11.9099ZM14.0462 12.0982C13.7292 12.0868 13.3972 12.0867 13.0901 12.098C12.9937 12.8325 12.3654 13.3996 11.6045 13.3996C11.5289 13.3996 11.4547 13.3939 11.3821 13.3831C11.1299 13.781 10.8278 14.1407 10.4934 14.4558C9.96531 14.9528 9.35956 15.3316 8.7006 15.5669L8.58074 15.6097L8.4674 15.5517C7.66657 15.1417 7.23916 14.2438 7.49435 13.399C7.35919 13.384 7.22948 13.3509 7.10763 13.3023C7.00747 13.513 6.90218 13.723 6.8075 13.9257C6.61955 14.328 6.45795 14.7303 6.3866 15.1585C6.22971 16.097 6.40158 16.9983 7.11826 17.4975C7.98289 18.0957 8.89087 17.9334 9.93968 17.4877C10.468 17.2631 10.9943 16.9837 11.5621 16.71C12.1196 16.4413 12.7036 16.1854 13.3032 16.0372C13.729 15.9323 14.1978 15.8838 14.5912 15.8184C15.0025 15.75 15.3682 15.6597 15.6846 15.4765C16.1551 15.2044 16.4636 14.7547 16.5488 14.2541L16.549 14.253C16.5687 14.1392 16.5775 14.0252 16.5758 13.9123C16.5715 13.6413 16.5064 13.3757 16.3873 13.1314C16.1447 13.3004 15.8499 13.3996 15.5319 13.3996C14.7711 13.3996 14.1427 12.8326 14.0462 12.0982ZM7.75549 12.2439C7.71012 12.2316 7.68398 12.236 7.66699 12.2417C7.64706 12.2485 7.6186 12.2647 7.58241 12.3034C7.50382 12.3875 7.42961 12.5327 7.35853 12.7246L7.35816 12.7256C7.35358 12.7378 7.34893 12.7501 7.34421 12.7623C7.44327 12.7993 7.55049 12.8196 7.66245 12.8196C7.68326 12.8196 7.70389 12.8188 7.72435 12.8174C7.77802 12.6763 7.81807 12.5499 7.83406 12.4404C7.84848 12.3416 7.83603 12.298 7.82923 12.2842C7.82923 12.2842 7.82433 12.2629 7.75549 12.2439ZM14.6528 12.1359C14.7564 12.5245 15.1106 12.8108 15.5319 12.8108C15.7255 12.8108 15.9051 12.7502 16.0526 12.647C15.9024 12.4867 15.7222 12.3464 15.5153 12.2337C15.5007 12.232 15.4848 12.2301 15.4681 12.228C15.403 12.2198 15.3204 12.2088 15.2121 12.1955L15.2087 12.1951L15.1929 12.2416L15.1677 12.1901C15.0232 12.1726 14.8475 12.153 14.6528 12.1359ZM11.9777 12.0607C11.9044 12.319 11.8106 12.5678 11.6991 12.8059C12.0867 12.7659 12.402 12.4825 12.4898 12.1112C12.4529 12.1083 12.4171 12.105 12.3827 12.1013C12.2538 12.0875 12.1708 12.0746 12.0724 12.0659C12.0325 12.0624 12.0015 12.0609 11.9777 12.0607ZM14.7771 11.3931C14.7443 11.4417 14.7161 11.4937 14.693 11.5484C14.7507 11.5534 14.8067 11.5587 14.8608 11.564L14.7771 11.3931ZM12.2491 11.4927C12.3114 11.5001 12.3754 11.508 12.4279 11.5139C12.3992 11.453 12.364 11.3958 12.3231 11.3432L12.2491 11.4927ZM12.6008 10.7818C12.8153 10.9728 12.9745 11.2246 13.0515 11.5101C13.3838 11.4974 13.7429 11.4976 14.0848 11.5103C14.1569 11.2427 14.3012 11.0048 14.4956 10.8186L13.5434 8.87578L12.6008 10.7818ZM11.8994 10.4316C11.965 10.4447 12.0291 10.4621 12.0914 10.4835L13.5458 7.54271L14.9957 10.5013C15.0556 10.4783 15.1174 10.4591 15.1807 10.4439L16.6491 6.1131H10.4343L11.8994 10.4316ZM16.4415 11.9011C16.4415 11.4268 16.0787 11.0375 15.6155 10.9952L15.4016 11.6259C15.4556 11.6328 15.5019 11.6387 15.5367 11.6431L15.5951 11.6081L15.7412 11.684C15.9905 11.8135 16.2128 11.9756 16.4033 12.1626C16.4282 12.0797 16.4415 11.992 16.4415 11.9011ZM10.6948 11.9011C10.6948 12.2222 10.8612 12.5044 11.1124 12.6663C11.2477 12.3967 11.3568 12.1121 11.4345 11.8149C11.4709 11.6757 11.5587 11.5895 11.6533 11.5392L11.4708 11.0011C11.0318 11.0658 10.6948 11.4441 10.6948 11.9011ZM17.0303 11.9011C17.0303 12.1863 16.9506 12.4529 16.8123 12.6798C17.0376 13.0545 17.1625 13.4814 17.165 13.9241V13.9502C17.1644 14.0834 17.1527 14.2179 17.1292 14.3527C17.0141 15.0296 16.5984 15.6281 15.9796 15.986C15.5689 16.2238 15.1176 16.3278 14.6877 16.3993C14.2398 16.4737 13.8429 16.5107 13.4443 16.6089C12.9062 16.7419 12.3671 16.9757 11.8178 17.2405C11.2786 17.5003 10.7144 17.7981 10.17 18.0295C9.07363 18.4955 7.90773 18.7602 6.7824 17.9812C5.79155 17.291 5.633 16.0955 5.80584 15.0615C5.89053 14.5535 6.07929 14.0933 6.27404 13.6765C6.39188 13.4242 6.50724 13.1962 6.6103 12.9768C6.33478 12.7051 6.16393 12.3275 6.16393 11.9099C6.16393 11.0823 6.83485 10.4114 7.66245 10.4114C8.49005 10.4114 9.16095 11.0823 9.16095 11.9099C9.16094 12.5655 8.74 13.1226 8.15368 13.326C8.13577 13.3684 8.11823 13.4096 8.10147 13.4493C7.87131 13.9921 8.09091 14.6295 8.62682 14.9657C9.15713 14.7573 9.65088 14.4402 10.0897 14.0272C10.3603 13.7722 10.6054 13.4865 10.815 13.1748C10.3894 12.9105 10.106 12.4389 10.106 11.9011C10.106 11.185 10.6083 10.5862 11.2797 10.4379L9.61279 5.52429H17.4705L15.8078 10.4279C16.5036 10.5575 17.0303 11.1677 17.0303 11.9011Z" fill="white"/>
<circle cx="15.5327" cy="11.9013" r="0.941345" fill="#99425B"/>
<circle cx="11.6078" cy="11.9013" r="0.936951" fill="#99425B"/>
<circle cx="7.64941" cy="11.9012" r="0.938965" fill="#99425B"/>
</svg>
