<svg width="24" height="24" viewBox="0 0 24 24" fill="none" xmlns="http://www.w3.org/2000/svg">
<rect width="24" height="24" rx="12" fill="#D2E1FF"/>
<ellipse cx="12.1198" cy="12.1378" rx="5.97572" ry="6.04734" fill="white"/>
<path d="M10.8655 13.4844L10.8699 13.4907L10.2389 15.0149C9.63339 14.6272 9.17268 14.0506 8.92823 13.3745L10.5566 13.0984L10.5592 13.1016C10.6086 13.0925 10.6596 13.097 10.7067 13.1146C10.7538 13.1322 10.7952 13.1622 10.8266 13.2015C10.8579 13.2408 10.8781 13.2878 10.8848 13.3376C10.8916 13.3875 10.8847 13.4382 10.8649 13.4844H10.8655ZM10.3394 12.1396C10.3878 12.1263 10.4318 12.1001 10.4666 12.0639C10.5014 12.0276 10.5257 11.9825 10.5369 11.9335C10.5481 11.8845 10.5458 11.8334 10.5303 11.7856C10.5147 11.7378 10.4865 11.6951 10.4486 11.6621L10.4499 11.6551L9.21122 10.5472C8.83334 11.1623 8.6711 11.8857 8.75011 12.6032L10.3381 12.1453L10.3394 12.1396ZM11.0626 10.8889C11.1032 10.9186 11.1512 10.9366 11.2013 10.9412C11.2514 10.9458 11.3018 10.9366 11.3471 10.9148C11.3925 10.8929 11.431 10.8592 11.4587 10.8171C11.4863 10.7751 11.502 10.7263 11.5041 10.676L11.5104 10.6729L11.6052 9.01795C10.8878 9.10181 10.2188 9.4223 9.70391 9.92879L11.0601 10.8908L11.0626 10.8889ZM11.5427 12.626L11.9993 12.8464L12.4554 12.6272L12.5691 12.1345L12.2533 11.741H11.7454L11.4296 12.1345L11.5427 12.626ZM12.4901 10.671C12.4923 10.7213 12.508 10.7701 12.5358 10.8122C12.5635 10.8542 12.6021 10.888 12.6475 10.9098C12.693 10.9316 12.7434 10.9406 12.7936 10.9359C12.8437 10.9313 12.8917 10.913 12.9323 10.8832L12.9373 10.8851L14.2853 9.92943C13.7722 9.42691 13.1082 9.10689 12.3954 9.01858L12.4889 10.6704L12.4901 10.671ZM19.36 14.442L15.7135 18.9779C15.6185 19.0954 15.4983 19.1901 15.3619 19.255C15.2255 19.3199 15.0763 19.3534 14.9252 19.3531L9.07541 19.355C8.92433 19.3551 8.77514 19.3213 8.63883 19.2562C8.50251 19.191 8.38254 19.0962 8.28774 18.9785L4.6393 14.4432C4.54542 14.3258 4.47924 14.1887 4.44566 14.0422C4.41209 13.8956 4.41199 13.7434 4.44538 13.5968L5.74659 7.94035C5.81481 7.64347 6.01504 7.3946 6.29171 7.26258L11.561 4.74417C11.6976 4.6789 11.847 4.64502 11.9984 4.64502C12.1498 4.64502 12.2992 4.6789 12.4358 4.74417L17.707 7.26132C17.9836 7.39333 18.1839 7.64284 18.2521 7.93908L19.5546 13.5956C19.6228 13.8924 19.5514 14.2038 19.36 14.442ZM17.2825 13.1427C17.256 13.1363 17.2174 13.1262 17.1909 13.1212C17.081 13.1003 16.9919 13.1054 16.8883 13.0972C16.6673 13.0738 16.4854 13.0549 16.323 13.0037C16.2567 12.9784 16.2093 12.8995 16.1866 12.8673L16.0596 12.83C16.1273 12.339 16.1048 11.8399 15.9933 11.357C15.8816 10.8692 15.6812 10.406 15.4021 9.9907C15.4349 9.96101 15.4968 9.90669 15.5139 9.89026C15.5189 9.83342 15.5145 9.77467 15.5732 9.71214C15.6977 9.59528 15.8537 9.49864 16.0426 9.38241C16.1323 9.32935 16.215 9.29588 16.3047 9.22955C16.3249 9.21439 16.3527 9.19039 16.3742 9.17334C16.5258 9.05269 16.5605 8.84488 16.4519 8.70844C16.3432 8.572 16.1323 8.55937 15.9813 8.68001C15.9598 8.69707 15.9308 8.71918 15.9112 8.7356C15.8265 8.80887 15.7741 8.88088 15.7027 8.95668C15.5473 9.11459 15.4185 9.24598 15.2776 9.34136C15.2164 9.37673 15.1267 9.36473 15.0862 9.3622L14.9662 9.44747C14.2753 8.72246 13.3448 8.27288 12.3474 8.18227L12.3398 8.04141C12.2987 8.00225 12.2495 7.96877 12.2368 7.8835C12.2229 7.71421 12.2463 7.53167 12.2728 7.31185C12.2874 7.20889 12.3114 7.12362 12.3158 7.01181C12.3164 6.98655 12.3152 6.94928 12.3152 6.92212C12.3152 6.72883 12.1737 6.57155 11.9993 6.57155C11.8256 6.57155 11.6841 6.72883 11.6841 6.92212L11.6848 6.93096C11.6848 6.95686 11.6835 6.98907 11.6848 7.01181C11.6886 7.12362 11.7126 7.20889 11.7271 7.31185C11.7536 7.53167 11.7764 7.71421 11.7625 7.88413C11.7445 7.94707 11.709 8.0036 11.6601 8.0471L11.6526 8.18037C10.6488 8.26098 9.71087 8.71193 9.02109 9.44558C8.98283 9.41913 8.94493 9.39218 8.90739 9.36473C8.85054 9.37231 8.79369 9.38999 8.71979 9.34641C8.57893 9.25166 8.45007 9.12028 8.29468 8.96236C8.22331 8.88656 8.17151 8.81456 8.08687 8.74192C8.06792 8.72549 8.03823 8.70275 8.01676 8.68633C7.95431 8.63571 7.87725 8.60648 7.79694 8.60295C7.74925 8.60042 7.70163 8.60916 7.65795 8.62848C7.61427 8.6478 7.57576 8.67714 7.54554 8.71412C7.4369 8.85056 7.47164 9.05901 7.62323 9.17965L7.62766 9.18281L7.69335 9.23524C7.78304 9.30156 7.86516 9.33567 7.95485 9.3881C8.14372 9.50495 8.29974 9.6016 8.42417 9.71782C8.47218 9.76962 8.48102 9.86058 8.48734 9.89974L8.5884 9.99007C8.03024 10.827 7.8008 11.8406 7.94412 12.8363L7.81273 12.8742C7.77799 12.9197 7.72872 12.9904 7.67693 13.0113C7.51459 13.0624 7.33204 13.0808 7.11159 13.1041C7.008 13.113 6.91894 13.1079 6.8084 13.1288C6.78503 13.1332 6.75155 13.1414 6.72439 13.1477L6.72186 13.149L6.71744 13.1502C6.5311 13.1951 6.41172 13.3663 6.45025 13.5343C6.48878 13.7029 6.6707 13.8053 6.85767 13.7648L6.86209 13.7642L6.86841 13.7623L6.94989 13.744C7.05727 13.7149 7.1356 13.6726 7.23287 13.6353C7.44132 13.5608 7.61439 13.4983 7.78241 13.4736C7.85316 13.468 7.92769 13.5172 7.96433 13.5374L8.1014 13.5141C8.41012 14.4679 9.05719 15.2759 9.92056 15.7855L9.86371 15.9232C9.88456 15.9763 9.9073 16.0489 9.89151 16.1013C9.83024 16.2605 9.72538 16.4279 9.606 16.6149C9.54852 16.7008 9.48914 16.7677 9.43672 16.8669C9.42408 16.8903 9.40829 16.9269 9.39629 16.9515C9.31544 17.1252 9.37481 17.3248 9.53083 17.4C9.68748 17.4758 9.88203 17.3956 9.96667 17.2219V17.2206C9.97931 17.196 9.99573 17.1638 10.0058 17.1404C10.0501 17.0381 10.0652 16.9503 10.0968 16.8511C10.1802 16.6414 10.2263 16.4216 10.3412 16.2845C10.3728 16.2466 10.4234 16.2327 10.4771 16.2182L10.5484 16.0887C11.4848 16.4495 12.5214 16.4522 13.4597 16.0963L13.5267 16.2176C13.581 16.2352 13.6404 16.2441 13.6884 16.3155C13.7743 16.462 13.833 16.6357 13.9044 16.846C13.936 16.9446 13.9512 17.0324 13.996 17.1347C14.0061 17.1581 14.0232 17.1916 14.0352 17.2162C14.1192 17.3905 14.3144 17.4701 14.471 17.3943C14.627 17.3198 14.6864 17.1196 14.6055 16.9458C14.5929 16.9212 14.5771 16.8852 14.5645 16.8612C14.5121 16.7627 14.4527 16.6963 14.3952 16.6098C14.2752 16.4228 14.1767 16.2681 14.1154 16.1089C14.0901 16.0268 14.1198 15.9763 14.1394 15.9232C14.128 15.9093 14.1021 15.8322 14.087 15.7956C14.9535 15.282 15.601 14.4677 15.9061 13.5078C15.9466 13.5141 16.0173 13.5267 16.0407 13.5318C16.088 13.5002 16.1316 13.4597 16.2175 13.4661C16.3856 13.4907 16.5586 13.5532 16.7671 13.6278C16.8643 13.6657 16.942 13.7086 17.0501 13.737C17.0728 13.7434 17.1056 13.749 17.1322 13.7547L17.1379 13.7566L17.1423 13.7573C17.3299 13.7977 17.5112 13.6954 17.5497 13.5267C17.5876 13.3587 17.4688 13.1875 17.2825 13.1427ZM14.7793 10.5478L13.5475 11.6507V11.6538C13.5095 11.6869 13.4811 11.7296 13.4655 11.7775C13.4498 11.8254 13.4475 11.8766 13.4587 11.9257C13.4699 11.9748 13.4943 12.02 13.5292 12.0563C13.5641 12.0926 13.6082 12.1188 13.6568 12.132L13.6587 12.1383L15.2543 12.5982C15.2889 12.2443 15.2659 11.8872 15.186 11.5408C15.1058 11.1895 14.9683 10.8539 14.7793 10.5472V10.5478ZM12.2444 13.9114C12.22 13.8654 12.1831 13.8272 12.138 13.8013C12.0928 13.7753 12.0413 13.7627 11.9892 13.7648C11.9406 13.7667 11.8933 13.7812 11.8521 13.807C11.8108 13.8329 11.7771 13.8691 11.7543 13.912H11.753L10.9521 15.3598C11.633 15.5921 12.3716 15.5927 13.0529 15.3617L12.2507 13.9114H12.2444ZM13.437 13.0946C13.3792 13.084 13.3195 13.092 13.2664 13.1174C13.2015 13.1484 13.1512 13.2034 13.126 13.2708C13.1007 13.3382 13.1027 13.4127 13.1313 13.4787L13.1294 13.4812L13.7673 15.0212C14.3769 14.632 14.8395 14.0508 15.0818 13.3694L13.4395 13.0915L13.437 13.0946Z" fill="#326CE5"/>
</svg>
