<svg width="24" height="24" viewBox="0 0 24 24" fill="none" xmlns="http://www.w3.org/2000/svg">
<path d="M9.50781 12.6455C10.5275 12.6455 11.3545 13.4766 11.3545 14.502V19.1436C11.3544 20.1689 10.5274 21 9.50781 21H4.84668C3.82705 21 3.00007 20.1689 3 19.1436V14.502C3 13.4766 3.827 12.6455 4.84668 12.6455H9.50781ZM19.1533 12.5713C20.173 12.5713 21 13.4023 21 14.4277V19.0693C20.9998 20.0946 20.1729 20.9258 19.1533 20.9258H14.4922C13.4726 20.9258 12.6457 20.0946 12.6455 19.0693V14.4277C12.6455 13.4023 13.4725 12.5713 14.4922 12.5713H19.1533ZM4.84668 14.1455C4.66271 14.1455 4.5 14.2977 4.5 14.502V19.1436C4.50007 19.3479 4.6629 19.5 4.84668 19.5H9.50781C9.69159 19.5 9.85442 19.3479 9.85449 19.1436V14.502C9.85449 14.2977 9.69178 14.1455 9.50781 14.1455H4.84668ZM14.4922 14.0713C14.3082 14.0713 14.1455 14.2235 14.1455 14.4277V19.0693L14.1533 19.1436C14.1872 19.3095 14.3317 19.4258 14.4922 19.4258H19.1533C19.3139 19.4258 19.4583 19.3095 19.4922 19.1436L19.5 19.0693V14.4277C19.5 14.2235 19.3373 14.0713 19.1533 14.0713H14.4922ZM9.50781 3C10.5274 3 11.3544 3.83114 11.3545 4.85645V9.49805C11.3545 10.5234 10.5275 11.3545 9.50781 11.3545H4.84668C3.827 11.3545 3 10.5234 3 9.49805V4.85645C3.0001 3.83114 3.82706 3 4.84668 3H9.50781ZM19.1533 3C20.1729 3 20.9999 3.83114 21 4.85645V9.49805C21 10.5234 20.173 11.3545 19.1533 11.3545H14.4922C13.4725 11.3545 12.6455 10.5234 12.6455 9.49805V4.85645C12.6456 3.83114 13.4726 3 14.4922 3H19.1533ZM4.84668 4.5C4.66296 4.5 4.50009 4.65209 4.5 4.85645V9.49805C4.5 9.70231 4.66271 9.85449 4.84668 9.85449H9.50781C9.69178 9.85449 9.85449 9.70231 9.85449 9.49805V4.85645C9.8544 4.65209 9.69154 4.5 9.50781 4.5H4.84668ZM14.4922 4.5C14.3085 4.5 14.1456 4.65209 14.1455 4.85645V9.49805C14.1455 9.70231 14.3082 9.85449 14.4922 9.85449H19.1533C19.3373 9.85449 19.5 9.70231 19.5 9.49805V4.85645C19.4999 4.65209 19.337 4.5 19.1533 4.5H14.4922Z" fill="black"/>
</svg>
