<svg width="100" height="100" viewBox="0 0 100 100" fill="none" xmlns="http://www.w3.org/2000/svg">
<path d="M46.5982 90.5212C65.7063 90.5212 81.1964 87.8229 81.1964 84.4944C81.1964 81.1659 65.7063 78.4677 46.5982 78.4677C27.4901 78.4677 12 81.1659 12 84.4944C12 87.8229 27.4901 90.5212 46.5982 90.5212Z" fill="#DDE7FF"/>
<path d="M47.441 70.4632C20.0459 72.0379 23.2434 74.9721 22.1028 47.5257C21.4421 34.2556 31.7624 22.8527 45.0358 22.1931C76.3171 20.2411 78.7613 69.3036 47.441 70.4632Z" fill="#3368FF"/>
<path d="M42.7253 52.6975C47.2108 52.6975 50.8481 49.0613 50.8481 44.577C50.8481 40.0926 47.2119 36.4564 42.7253 36.4564C38.2387 36.4564 34.6025 40.0926 34.6025 44.577C34.6025 49.0613 38.2387 52.6975 42.7253 52.6975Z" fill="white"/>
<path d="M57.8103 52.6975C62.2958 52.6975 65.933 49.0613 65.933 44.577C65.933 40.0926 62.2969 36.4564 57.8103 36.4564C53.3237 36.4564 49.6875 40.0926 49.6875 44.577C49.6875 49.0613 53.3237 52.6975 57.8103 52.6975Z" fill="white"/>
<path d="M45.5456 49.038C48.0098 49.038 50.0076 47.0402 50.0076 44.577C50.0076 42.1139 48.0098 40.1161 45.5456 40.1161C43.0813 40.1161 41.0835 42.1139 41.0835 44.577C41.0835 47.0402 43.0813 49.038 45.5456 49.038Z" fill="#1D2955"/>
<path d="M60.5455 49.038C63.0098 49.038 65.0076 47.0402 65.0076 44.577C65.0076 42.1139 63.0098 40.1161 60.5455 40.1161C58.0813 40.1161 56.0835 42.1139 56.0835 44.577C56.0835 47.0402 58.0813 49.038 60.5455 49.038Z" fill="#1D2955"/>
<path d="M44.1069 56.3962C44.1069 59.4095 46.6739 61.9765 49.6873 61.9765C52.7007 61.9765 55.2676 59.4095 55.2676 56.3962C55.2676 55.3917 54.4864 54.722 53.4819 54.722H45.8926C44.8882 54.722 44.1069 55.3917 44.1069 56.3962Z" fill="#18224A"/>
<path d="M31.4452 48.4732L28.9609 54.3081C28.9296 54.394 26.7935 60.0413 26.0926 61.0168C25.308 62.3326 23.2209 62.0882 22.4229 61.6485C21.3225 61.0413 20.6004 59.4732 20.9173 58.4353L25.5289 47.5179L26.0781 47.4208C26.1807 47.5156 26.3403 47.6005 26.5457 47.6351L31.4441 48.4732H31.4452Z" fill="#1D2854"/>
<path d="M22.6683 60.5558C25.455 60.5558 27.7141 58.2967 27.7141 55.51C27.7141 52.7233 25.455 50.4642 22.6683 50.4642C19.8816 50.4642 17.6226 52.7233 17.6226 55.51C17.6226 58.2967 19.8816 60.5558 22.6683 60.5558Z" fill="#4D7BFF"/>
<path d="M72.6564 28.6596L70.3807 29.9096C70.1363 30.0446 69.8673 30.0267 69.6631 29.8716C69.4477 29.7075 69.3919 29.4531 69.4332 29.1462L69.6095 27.8292C67.2234 27.5145 65.5749 25.3125 66.1609 22.9442L67.4321 18.4509C67.9767 16.5245 70.0292 15.3069 72.0001 15.6763L78.335 17.2165C80.5437 17.7533 82.0827 19.808 81.4834 22.0937L80.1173 26.6462C79.5169 28.6484 77.3528 29.731 75.3562 29.3259L72.6564 28.6607V28.6596ZM73.2412 25.625C74.2736 25.3046 75.2434 24.8738 76.1452 24.2868C76.6943 23.9296 77.1285 23.4698 77.3684 22.8694C77.72 21.9888 77.4655 21.0156 76.7133 20.5134C75.9722 20.0189 75.0213 20.0569 74.2646 20.7288C73.9388 19.9252 73.3037 19.3727 72.4689 19.3482C71.6341 19.3236 70.8963 19.7834 70.5671 20.5747C69.9153 22.1651 71.3238 23.9263 72.422 25.2723C72.6207 25.5156 72.9075 25.7276 73.2423 25.6238L73.2412 25.625Z" fill="#91BDFC"/>
<path d="M80.04 40.7143L78.0344 41.7232C77.8313 41.8259 77.5925 41.7545 77.453 41.6317C77.3135 41.5089 77.2298 41.308 77.2733 41.0703L77.4764 39.9632C75.7119 39.3136 74.7052 37.4978 75.1293 35.6629L75.8615 33.0056C76.4943 31.2098 78.2945 30.0446 80.1717 30.4788L86.2744 31.8895C88.3112 32.3605 89.8202 34.0759 89.4329 36.2411C89.2532 37.2478 88.9786 38.2533 88.6182 39.2232C87.9764 40.9498 86.2644 41.9922 84.424 41.7176L80.0411 40.7154L80.04 40.7143ZM78.9039 34.4118C78.3146 34.5056 78.0356 35.0324 78.1394 35.567C78.232 36.0435 78.6851 36.394 79.2476 36.2746C79.6996 36.1786 80.0657 35.7388 79.992 35.1797C79.9351 34.7466 79.4686 34.3214 78.9039 34.4118ZM81.5099 36.7165C81.8581 37.1373 82.386 37.1183 82.7577 36.8783C83.1461 36.6272 83.2744 36.1629 83.107 35.7199C82.9641 35.3415 82.5389 35.0714 82.0679 35.1562C81.7231 35.2187 81.4563 35.5045 81.3693 35.7634C81.2588 36.0882 81.2778 36.4353 81.511 36.7176L81.5099 36.7165ZM84.7856 37.615C85.1449 37.9118 85.6349 37.8694 85.953 37.6228C86.2722 37.3739 86.4128 36.9408 86.2454 36.5112C86.117 36.1819 85.7565 35.8895 85.3146 35.9319C84.9039 35.971 84.6059 36.2623 84.4976 36.5949C84.3838 36.9475 84.4608 37.346 84.7867 37.615H84.7856Z" fill="#FDC933"/>
<path d="M73.2412 25.625C72.9075 25.7288 72.6196 25.5168 72.4209 25.2735C71.3227 23.9264 69.9142 22.1663 70.566 20.5759C70.8952 19.7846 71.6519 19.3259 72.4678 19.3494C73.2836 19.3728 73.9377 19.9264 74.2635 20.7299C75.0202 20.0581 75.9711 20.019 76.7122 20.5145C77.4644 21.0168 77.7189 21.99 77.3673 22.8706C77.1274 23.471 76.6932 23.9308 76.1441 24.288C75.2423 24.875 74.2714 25.3058 73.2401 25.6262L73.2412 25.625Z" fill="#FDFDFD"/>
<path d="M81.5102 36.7166C81.2769 36.4353 81.2591 36.0882 81.3684 35.7623C81.4555 35.5045 81.7222 35.2177 82.0671 35.1552C82.5392 35.0692 82.9633 35.3393 83.1062 35.7188C83.2736 36.163 83.1452 36.6262 82.7568 36.8773C82.3852 37.1184 81.8573 37.1362 81.5091 36.7155L81.5102 36.7166Z" fill="#FBFBFC"/>
<path d="M78.904 34.4118C79.4676 34.3225 79.9353 34.7466 79.9922 35.1796C80.0658 35.7388 79.6998 36.1796 79.2478 36.2745C78.6864 36.3928 78.2333 36.0435 78.1395 35.5669C78.0357 35.0323 78.3136 34.5055 78.904 34.4118Z" fill="#FBFBFC"/>
<path d="M84.7858 37.6149C84.4599 37.346 84.3829 36.9475 84.4968 36.5948C84.6039 36.2611 84.9019 35.9698 85.3137 35.9319C85.7557 35.8906 86.1173 36.1819 86.2445 36.5111C86.4119 36.9408 86.2724 37.375 85.9521 37.6227C85.634 37.8694 85.1441 37.9118 84.7847 37.6149H84.7858Z" fill="#FBFBFC"/>
<path d="M71.2089 61.682C71.1286 61.5458 71.2089 61.2556 71.2257 61.0916C71.2781 60.5291 70.9567 60.1329 70.6978 59.6775C70.5984 59.5023 70.806 58.9822 70.4835 58.8739C70.3004 58.8126 70.0449 59.1541 69.9199 59.3025L69.8149 59.1094C69.9132 58.8483 70.1152 58.7523 70.306 58.5726C72.6587 56.3695 74.7904 54.028 76.7558 51.4074L75.3283 50.1853C75.0906 49.9811 75.0069 49.6797 75.0772 49.3974C75.133 49.173 75.2993 48.9331 75.5862 48.8527L80.8183 47.3751C81.1263 47.288 81.4399 47.4688 81.6029 47.6318C81.7982 47.8282 81.8317 48.0726 81.8172 48.3784L81.5605 53.7992C81.5471 54.0905 81.3183 54.307 81.1487 54.3795C80.8953 54.4889 80.5817 54.5068 80.3696 54.3416L79.0203 53.2847C76.7413 56.4175 74.0839 59.2891 71.21 61.682H71.2089Z" fill="#2F3D70"/>
<path d="M71.2712 61.6306C70.942 61.9052 70.7065 62.1797 70.2868 62.4096C70.6429 61.3192 70.4665 60.2199 69.7578 59.0369C69.8839 58.9141 70.3292 58.5525 70.3292 58.5525C70.3292 58.5525 70.6841 58.9353 70.7846 59.1094C71.0435 59.5636 71.4888 60.5592 71.4353 61.1217C71.4196 61.2858 71.3337 61.4911 71.2712 61.6295V61.6306Z" fill="#1D2854"/>
<path d="M62.5379 64.3795C62.7209 64.288 62.8939 64.6451 62.9944 64.7522C63.7566 65.5681 64.837 65.7567 64.8169 66.1763C61.5055 68.1261 57.972 69.6875 54.1986 70.6362C53.597 70.788 53.0915 70.3884 52.9229 69.885C52.8046 69.5279 52.9017 68.7388 53.4285 68.5558C56.6004 67.4598 59.6618 66.096 62.5368 64.3795H62.5379Z" fill="#2F3D70"/>
<path d="M83.2153 80.8103L76.6115 80.8382L76.5713 59.1105C76.5713 58.4085 77.0903 57.8985 77.7577 57.8973L82.0066 57.8895C82.5412 57.8895 83.1472 58.3505 83.1483 58.9464L83.2164 80.8114L83.2153 80.8103Z" fill="#FDC933"/>
<path d="M17.7033 65.5435C21.7301 65.1796 25.5124 67.1171 27.9008 70.2321L25.9287 71.4977C23.2669 68.0245 18.2223 66.7053 14.6118 69.3448C14.4555 69.4598 14.3752 69.5781 14.2881 69.6986C12.1453 71.3682 11.4243 74.3225 12.0437 76.9363C12.9053 80.5736 15.9075 83.4519 19.6531 83.9888C22.5147 84.3995 25.2903 83.2488 26.8249 80.8069C27.893 79.1071 28.1553 77.0848 27.7379 75.1841L27.595 74.8013C27.5973 74.7834 27.595 74.7533 27.6062 74.7377C27.5046 73.9296 27.0716 73.1941 26.6921 72.4252L28.6296 71.2042C31.1263 75.4676 30.9232 80.8839 27.2267 84.2745C24.8149 86.4877 21.1274 87.1015 17.9533 86.1886C13.4633 84.8984 10.0772 80.9419 9.42092 76.2968C9.07159 73.8214 9.63744 71.4107 10.9656 69.4151C12.4432 67.1941 14.8774 65.8783 17.5258 65.539L17.7011 65.5435H17.7033Z" fill="#DDE7FF"/>
<path d="M59.5125 80.8348L66.1007 80.8281C66.0549 80.8169 66.0516 80.9944 66.0951 81.0078L76.1911 81.0133C76.2859 81.0133 76.3451 80.9921 76.3741 80.9598C76.3964 80.9341 76.3942 80.8616 76.4154 80.8281L76.6107 80.837L83.2145 80.8091C84.6118 80.8035 85.815 81.779 85.6821 83.25C85.5906 84.2645 84.7391 85.2142 83.6409 85.2142H58.7201C57.796 85.2142 57.0326 84.4598 56.8038 83.6495C56.5996 82.9263 56.7614 82.2098 57.2212 81.6361C57.5996 81.164 58.2625 80.8571 58.9712 80.8437L59.5103 80.8337L59.5125 80.8348Z" fill="#2F3D70"/>
<path d="M74.6572 80.8259H68.0433L67.9897 66.5625C67.9897 65.9274 68.4808 65.3672 69.1036 65.3661L73.5188 65.3605C74.2319 65.3605 74.6203 65.9788 74.6203 66.6562L74.6572 80.827V80.8259Z" fill="#44DEF2"/>
<path d="M66.1015 77.711V80.8282L59.5122 80.8349L59.4888 71.6195C59.4888 71.0358 59.9542 70.4498 60.5446 70.4509L65.0401 70.4543C65.5859 70.4543 66.0379 70.9989 66.0435 71.5358L66.1015 77.7121V77.711Z" fill="#5086FC"/>
<path d="M90.3628 55.8527C88.4834 56.24 88.9834 58.0402 88.2802 58.1351C88.0392 58.1674 87.8026 57.9442 87.7635 57.6585C87.6396 56.7445 87.0537 56.0491 86.1374 55.8706C85.8974 55.8237 85.7066 55.6507 85.6776 55.4498C85.6418 55.2054 85.8126 54.9565 86.0838 54.9007C88.0191 54.5056 87.5101 52.6072 88.22 52.5603C88.4476 52.5458 88.6787 52.7489 88.7133 53.0145C88.8394 53.9911 89.4711 54.7076 90.4354 54.8985C90.6697 54.9453 90.8104 55.1808 90.8182 55.3706C90.8293 55.625 90.6385 55.7958 90.3639 55.8516L90.3628 55.8527Z" fill="#27A9FD"/>
<path d="M87.7956 66.0536C88.5266 65.9453 89.0769 66.4933 89.1528 67.0826C89.2398 67.7589 88.7699 68.3337 88.1594 68.4319C87.4675 68.5435 86.9106 68.1071 86.7978 67.4944C86.6762 66.8281 87.0668 66.1607 87.7956 66.0536Z" fill="#44DEF2"/>
<path d="M62.3662 64.481C62.3662 64.481 62.8026 64.2299 63.3707 63.7689C63.3707 63.7689 64.124 64.6774 65.3048 64.9776C65.326 64.9832 65.5928 65.0546 65.614 65.0591C66.0939 65.1629 66.6173 65.1495 66.6173 65.1495L64.6642 66.2645C64.6642 66.2645 63.3707 65.76 62.3662 64.4799V64.481Z" fill="#1D2854"/>
<path d="M18.5299 64.7244C22.5567 64.3605 26.3391 66.298 28.7275 69.413L26.7554 70.6786C24.0936 67.2054 19.0489 65.8862 15.4384 68.5257C15.2822 68.6407 15.2018 68.759 15.1148 68.8795C12.9719 70.5492 12.2509 73.5034 12.8703 76.1172C13.732 79.7545 16.7342 82.6329 20.4797 83.1697C23.3413 83.5804 26.117 82.4297 27.6516 79.9878C28.7197 78.288 28.982 76.2657 28.5645 74.365L28.4217 73.9822C28.4239 73.9643 28.4217 73.9342 28.4328 73.9186C28.3313 73.1105 27.8983 72.3751 27.5188 71.6061L29.4563 70.3851C31.9529 74.6485 31.7498 80.0648 28.0534 83.4554C25.6416 85.6686 21.9541 86.2824 18.7799 85.3695C14.29 84.0793 10.9038 80.1228 10.2476 75.4777C9.89825 73.0023 10.4641 70.5916 11.7922 68.596C13.2699 66.375 15.7041 65.0592 18.3525 64.7199L18.5277 64.7244H18.5299Z" fill="#FBFBFC"/>
<path d="M34.2603 66.029C34.0504 66.0122 33.844 66.1383 33.6386 66.27L29.5493 68.8627L29.9098 65.991C29.9734 65.4832 30.2736 65.1908 30.6877 64.9308L33.4455 63.202C33.6386 63.0814 33.9143 63.1361 34.0716 63.2354C34.1911 63.3102 34.3272 63.4999 34.3228 63.7042L34.2603 66.0267V66.029Z" fill="#6493FF"/>
<path d="M29.5457 68.877C29.5323 69.2966 29.8615 69.6417 30.2142 69.8459C29.9944 69.9854 29.7918 70.1367 29.5868 70.2897L29.4575 70.385L27.52 71.606L25.4151 72.9442L23.3783 74.26L22.4039 74.8872L21.1048 75.6495C20.8236 75.8147 20.4564 75.4799 20.4129 75.1953C20.3638 74.8761 20.5167 74.6596 20.8102 74.4765L22.6584 73.3258L24.7377 71.9866L26.7555 70.6774L28.7276 69.4118C28.9899 69.2433 29.3101 69.0202 29.5457 68.877Z" fill="#2F3D70"/>
<path d="M32.1446 68.6027L30.2292 69.8515L30.6841 69.9944L32.9955 70.6831C33.3136 70.7746 33.616 70.6976 33.8839 70.5235L36.8359 68.6027C37.0636 68.4543 37.1506 68.2132 37.1305 67.9598C37.116 67.769 36.9609 67.5201 36.7109 67.4386L34.8281 66.827L34.3147 67.2322L32.1446 68.6027Z" fill="#6493FF"/>
<path d="M34.2602 66.029C34.6821 66.0636 34.8618 66.4442 34.8272 66.827L34.3138 67.2322L30.2134 69.8449C29.8607 69.6407 29.5314 69.3873 29.5448 68.9665L29.5482 68.8616L33.6375 66.269C33.8428 66.1373 34.0493 66.0101 34.2591 66.0279L34.2602 66.029Z" fill="#2153E2"/>
<path d="M26.7557 70.6774L24.7379 71.9866C23.5571 70.6852 21.9834 69.7991 20.1843 69.779C17.5113 69.7488 15.4265 71.7276 15.3729 74.4486C15.3104 77.625 17.941 80.3247 21.1073 80.5189C23.3562 80.6562 25.2267 79.3314 25.8874 77.2678C25.9767 77.3169 26.0716 77.2834 26.085 77.2209L26.1453 76.943C26.1888 76.7388 26.268 76.4988 26.0649 76.4185L26.095 76.0435C26.2881 76.0736 26.3082 75.962 26.3082 75.8035C26.3082 75.645 26.2881 75.5334 26.0984 75.5647L26.066 75.0803C26.3428 75.0647 26.1185 74.6618 26.249 74.5156C26.4064 74.3404 27.0493 74.4854 27.4511 74.2265C27.7557 74.0301 28.0839 73.8191 28.4354 73.9174C28.4243 73.933 28.4254 73.9631 28.4243 73.981L28.3874 74.3426C28.4142 74.4308 28.5147 74.4408 28.5671 74.3638C28.9845 76.2645 28.7223 78.2868 27.6542 79.9866C26.1196 82.4285 23.3439 83.5792 20.4823 83.1685C16.7368 82.6316 13.7345 79.7522 12.8729 76.116C12.9633 76.0758 13.0225 75.9732 12.999 75.8504C12.6051 73.7723 12.9689 71.6238 14.2513 69.9341C14.3127 69.8526 14.6575 69.9129 14.6754 69.8192L14.7569 69.3828L15.1185 68.8783C15.2055 68.7578 15.2848 68.6383 15.4421 68.5245C19.0526 65.885 24.0973 67.2042 26.7591 70.6774H26.7557Z" fill="#3D74FC"/>
<path d="M27.5199 71.6049C27.8983 72.3738 28.3325 73.1093 28.434 73.9174C28.0825 73.8191 27.7543 74.0301 27.4496 74.2265C27.049 74.4854 26.4061 74.3403 26.2476 74.5156C26.117 74.6607 26.3403 75.0636 26.0646 75.0803C26.0144 74.3426 25.7253 73.6629 25.415 72.9441L27.5199 71.606V71.6049Z" fill="#2867FC"/>
<path d="M15.115 68.8783L14.7534 69.3828L14.6719 69.8191C14.654 69.9129 14.3103 69.8526 14.2478 69.9341C12.9654 71.6238 12.6016 73.7734 12.9956 75.8504C13.019 75.972 12.9599 76.0747 12.8694 76.116C12.25 73.5022 12.971 70.5479 15.1139 68.8783H15.115Z" fill="#2867FC"/>
<path d="M28.5649 74.3639C28.5125 74.4409 28.412 74.4309 28.3853 74.3427L28.4221 73.9811L28.5649 74.3639Z" fill="#2867FC"/>
<path d="M24.7365 71.9866L22.6573 73.3259C22.0401 72.6127 21.1327 72.2522 20.1762 72.3404C18.7812 72.4676 17.8202 73.6864 17.9675 75.1015C18.1428 76.7824 19.6305 78.0335 21.3046 77.9542C21.8771 77.9274 22.2912 77.7031 22.6807 77.4219C23.3794 76.9174 23.732 76.0413 23.5769 75.1786C23.5245 74.8895 23.5457 74.5725 23.3794 74.26L25.4162 72.9442C25.7265 73.6629 26.0155 74.3426 26.0658 75.0803L26.0981 75.5647L26.0948 76.0435L26.0646 76.4185L25.8872 77.2678C25.2265 79.3315 23.3559 80.6562 21.107 80.519C17.9408 80.3248 15.3102 77.625 15.3727 74.4486C15.4262 71.7277 17.5111 69.75 20.1841 69.779C21.9832 69.7991 23.5557 70.6853 24.7376 71.9866H24.7365Z" fill="#FBFBFC"/>
<path d="M22.6574 73.3247L20.8092 74.4754C20.5157 74.6584 20.3639 74.875 20.4119 75.1941C20.4554 75.4787 20.8226 75.8136 21.1038 75.6484C21.0971 75.9129 21.2835 76.0044 21.4744 76.1785L22.0692 76.7209C22.3114 76.9419 22.5581 77.0959 22.6797 77.4207C22.2902 77.702 21.8773 77.9252 21.3036 77.9531C19.6295 78.0323 18.1418 76.7801 17.9666 75.1004C17.8192 73.6852 18.7802 72.4676 20.1753 72.3392C21.1317 72.2522 22.0391 72.6116 22.6563 73.3247H22.6574Z" fill="#3D74FC"/>
<path d="M22.4039 74.8861C22.4597 75.0636 22.5657 75.1975 22.751 75.1941L23.5758 75.1774C23.732 76.0401 23.3794 76.9162 22.6796 77.4207C22.5579 77.0959 22.3113 76.9419 22.0691 76.7209L21.4742 76.1785C21.2834 76.0044 21.097 75.9129 21.1037 75.6484L22.4028 74.8861H22.4039Z" fill="#2867FC"/>
<path d="M23.3781 74.26C23.5444 74.5725 23.5232 74.8895 23.5757 75.1785L22.7509 75.1953C22.5656 75.1975 22.4596 75.0647 22.4038 74.8872L23.3781 74.26Z" fill="#3D74FC"/>
<path d="M25.8872 77.2667L26.0647 76.4174C26.2678 76.4966 26.1885 76.7377 26.145 76.9419L26.0848 77.2198C26.0714 77.2823 25.9765 77.3158 25.8872 77.2667Z" fill="#2867FC"/>
<path d="M26.0938 76.0436L26.0971 75.5648C26.2868 75.5335 26.3069 75.6463 26.3069 75.8036C26.3069 75.961 26.2868 76.0737 26.0938 76.0436Z" fill="#2867FC"/>
<path d="M23.5436 30.0347C25.4275 31.7266 27.3416 33.3271 29.3885 34.8293C30.365 37.355 29.8673 40.0335 29.1106 42.4922L28.9621 42.7668L26.8639 42.3985L20.6619 41.1061C19.999 40.9677 19.3862 40.942 18.903 40.3494L18.5034 40.576C19.8248 36.5425 19.9777 29.6016 18.749 25.548C19.0269 25.4934 20.1418 27.038 20.3706 27.2422L21.1976 27.9811C21.9141 28.6217 22.5492 29.2958 23.3717 29.807L23.5447 30.0347H23.5436Z" fill="#F2F2F8"/>
<path d="M35.742 44.5C35.3023 45.644 34.934 46.3817 34.3224 47.1551C34.2688 47.2221 34.2655 47.3694 34.2566 47.4152C33.3604 48.1462 32.7097 48.6897 31.4452 48.4732L26.5467 47.635C26.3403 47.5993 26.1818 47.5156 26.0791 47.4207C27.4184 46.1417 28.405 44.5178 28.9619 42.7667C29.2342 42.8694 33.328 43.8694 34.3659 44.1462C34.8325 44.2712 35.2577 44.3661 35.7432 44.4989L35.742 44.5Z" fill="#2153E2"/>
<path d="M36.3015 46.4475C35.7446 47.0033 35.0158 47.3895 34.2568 47.4151C34.2658 47.3694 34.2691 47.2232 34.3227 47.1551C34.9343 46.3816 35.3104 45.5312 35.6653 44.6886C36.3707 43.0167 36.6653 41.183 36.4388 39.3627C36.97 39.6037 37.3718 40.1171 37.5894 40.7332C38.2814 42.6975 37.749 45.0044 36.3026 46.4475H36.3015Z" fill="#2F3D70"/>
<path d="M18.0881 34.741L15.3905 34.3035C14.8102 34.2165 14.2544 34.2645 13.7767 34.789C12.6494 36.0245 12.1963 37.8526 12.5613 39.4855C12.7075 40.1384 13.1651 40.4017 13.6528 40.5814L16.2443 41.5736C15.4787 43.5334 14.568 45.375 13.1863 46.9598L12.7019 47.4553L12.0222 47.914C11.2923 48.3995 10.3883 47.9866 10.0021 47.1953C8.83694 44.8113 9.42623 40.1451 10.097 37.3359C10.7331 34.673 11.626 32.1852 12.9463 29.8058C13.6249 28.5826 14.9675 26.6685 16.0936 26.3772C17.4787 26.0189 18.0367 27.5323 18.2488 29.0279C18.5211 30.9475 18.376 32.8281 18.0881 34.7433V34.741Z" fill="#2153E2"/>
<path d="M18.0881 34.7411C17.7298 37.1217 17.1149 39.3438 16.2444 41.5726L13.6528 40.5804L14.3638 40.0168C15.4843 38.6708 15.9921 36.8404 15.6283 35.1228L15.3894 34.3036L18.087 34.7411H18.0881Z" fill="#C9D6FB"/>
<path d="M15.3894 34.3036L15.6282 35.1227C15.9909 36.8404 15.4842 38.6707 14.3637 40.0167L13.6528 40.5803C13.165 40.4018 12.7075 40.1384 12.5613 39.4844C12.1963 37.8515 12.6494 36.0234 13.7767 34.7879C14.2543 34.2645 14.8101 34.2154 15.3905 34.3024L15.3894 34.3036Z" fill="#F2F2F8"/>
<path d="M28.9611 42.7668C28.9611 42.7668 28.2646 45.2768 26.0783 47.4208L11.3193 50.1362L18.5035 40.5759L28.9611 42.7668Z" fill="#E4E4F2"/>
<path d="M13.9443 48.7656C16.1754 46.6786 17.5593 43.4609 18.5035 40.577C19.8249 36.5435 20.8193 30.9788 19.5906 26.9252C19.3696 26.1964 19.0124 25.5402 18.4611 25.0223C17.5113 24.1306 16.1999 24.3159 15.1251 25.0402C15.0013 25.1172 14.7156 25.327 14.4946 25.548C13.3874 26.6551 12.5303 27.9007 11.7903 29.327C9.75685 33.2455 8.56711 37.51 8.15528 41.9219C7.88185 44.8426 8.42091 50.7935 11.3205 50.1362C12.6843 49.827 13.316 49.3538 13.9455 48.7656H13.9443ZM12.0035 47.8672C11.2736 48.3527 10.3885 47.9844 10.0024 47.1931C8.8372 44.8092 9.42649 40.1429 10.0972 37.3337C10.7334 34.6708 11.6263 32.183 12.9466 29.8036C13.6251 28.5804 14.9678 26.6663 16.0939 26.375C17.4789 26.0167 18.037 27.5301 18.249 29.0257C18.5214 30.9453 18.3763 32.8259 18.0883 34.7411C17.7301 37.1217 17.1151 39.3438 16.2446 41.5725C15.4789 43.5324 14.5682 45.3739 13.1865 46.9587C13.1865 46.9587 12.8796 47.2634 12.6743 47.4275C12.4019 47.6451 12.0046 47.8672 12.0046 47.8672H12.0035Z" fill="#3D74FC"/>
<path d="M29.3883 34.8292L36.4385 39.3638C36.4385 39.3638 36.9775 41.4219 35.7432 44.5L28.9619 42.7667C28.9619 42.7667 30.607 38.981 29.3894 34.8292H29.3883Z" fill="#3368FF"/>
<path d="M66.418 56.2318C67.913 56.2807 69.1635 57.0382 70.0571 58.2053L70.1813 58.434C70.8039 59.5801 71.0366 60.8213 70.6162 62.1127C70.0161 63.9554 68.2012 65.2019 66.2713 65.3605L66.0056 65.3552C64.6428 65.3301 63.3394 64.7538 62.426 63.7241C61.9925 63.235 61.6514 62.623 61.4955 61.9858C61.1267 60.4816 61.6237 58.9998 62.6362 57.8299C63.5285 56.7989 64.9772 56.1842 66.4194 56.2318H66.418Z" fill="#467EFC"/>
</svg>
