<svg width="24" height="24" viewBox="0 0 24 24" fill="none" xmlns="http://www.w3.org/2000/svg">
<rect width="24" height="24" rx="12" fill="#001E2A"/>
<path d="M15.203 10.8601C14.4234 7.4185 12.5805 6.28732 12.3825 5.85496C12.2098 5.61195 12.0556 5.26655 11.9292 4.9668C11.907 5.2721 11.8952 5.38929 11.6066 5.69707C11.1607 6.04616 8.86931 7.96805 8.68304 11.8772C8.50911 15.5236 11.3167 17.6965 11.6979 17.9735L11.741 18.0043C11.8204 18.5913 11.8883 19.1798 11.9446 19.7695H12.2412C12.3116 19.133 12.4164 18.5014 12.5558 17.876C12.813 17.6934 12.9283 17.5904 13.0801 17.4486C13.7986 16.7839 14.3696 15.9758 14.7562 15.0765C15.1429 14.1773 15.3365 13.2069 15.3245 12.2282C15.3307 11.7261 15.261 11.2031 15.203 10.8601ZM11.9119 15.9147C11.9119 15.9147 11.9119 10.8009 12.0815 10.8015C12.2129 10.8015 12.3837 17.398 12.3837 17.398C12.1487 17.3703 11.9119 16.3125 11.9119 15.9147Z" fill="#01EE65"/>
</svg>
