<svg width="24" height="24" viewBox="0 0 24 24" fill="none" xmlns="http://www.w3.org/2000/svg">
<g clip-path="url(#clip0_1965_3097)">
<path d="M12.2215 0C10.6411 1.73264 9.68079 4.01736 9.68079 6.52431C9.68079 11.9375 14.1598 16.3264 19.684 16.3264C21.229 16.3264 22.6925 15.9826 24 15.3681C22.5117 20.3542 17.8166 24 12.2463 24C5.48177 24 0 18.6285 0 12C0 5.37153 5.47114 0.0138889 12.2215 0Z" fill="url(#paint0_radial_1965_3097)"/>
<path d="M12.1187 0.159668C10.5418 1.89231 9.58509 4.17356 9.58509 6.67703C9.58509 12.0902 14.064 16.4791 19.5883 16.4791C21.1333 16.4791 22.5968 16.1354 23.9043 15.5208C22.0759 17.4965 19.4324 18.7395 16.4949 18.7395C10.9706 18.7395 6.49163 14.3506 6.49163 8.93745C6.49163 5.06245 8.78781 1.73606 12.1187 0.159668Z" fill="white"/>
<path d="M12.2144 0.00683594C10.6375 1.73947 9.68079 4.02073 9.68079 6.5242C9.68079 11.9374 14.1598 16.3263 19.684 16.3263C21.229 16.3263 22.6925 15.9825 24 15.3679C22.168 17.3471 19.5281 18.5867 16.5906 18.5867C11.0663 18.5867 6.58733 14.1978 6.58733 8.78461C6.58733 4.90961 8.88351 1.5867 12.2144 0.00683594Z" fill="url(#paint1_radial_1965_3097)"/>
<path d="M2.41686 17.8437C2.94838 18.7847 3.9193 19.2569 4.58547 18.8958C5.25519 18.5347 5.36504 17.4792 4.83352 16.5382C4.30199 15.5972 3.33108 15.125 2.66491 15.4861C1.99873 15.8472 1.88534 16.9028 2.41686 17.8437Z" fill="#D3D9E0"/>
<path d="M6.79261 21.7152C7.59344 22.0486 8.43324 21.8784 8.67066 21.3333C8.90807 20.7881 8.45096 20.0763 7.65013 19.743C6.84931 19.4097 6.0095 19.5798 5.77209 20.125C5.53467 20.6701 5.99178 21.3819 6.79261 21.7152Z" fill="#D3D9E0"/>
<path d="M6.30073 18.4341C6.80036 18.941 7.49488 19.073 7.85277 18.7327C8.21067 18.3924 8.09727 17.7084 7.59764 17.2014C7.09801 16.6945 6.40349 16.5626 6.0456 16.9028C5.68771 17.2431 5.8011 17.9271 6.30073 18.4341Z" fill="#D3D9E0"/>
<path d="M8.67119 21.3299C8.9086 20.7848 8.45149 20.073 7.65066 19.7396C7.02347 19.4792 6.37147 19.5278 6.00649 19.823C6.35021 19.4618 7.05536 19.382 7.73216 19.6632C8.53299 19.9966 8.9901 20.7084 8.75269 21.2535C8.70308 21.3716 8.62158 21.4723 8.51882 21.5521C8.5826 21.4862 8.63575 21.4098 8.67119 21.3264V21.3299Z" fill="white"/>
<path d="M7.88422 18.6945C8.19959 18.3438 8.08266 17.6911 7.60074 17.2015C7.12237 16.7154 6.46683 16.58 6.09831 16.8647C6.10894 16.8543 6.11602 16.8369 6.12665 16.8265C6.48455 16.4862 7.17907 16.6216 7.6787 17.1251C8.17833 17.632 8.29172 18.3161 7.93383 18.6563C7.91966 18.6702 7.89839 18.6772 7.88422 18.6911V18.6945Z" fill="white"/>
<path d="M4.83354 16.5347C4.30202 15.5938 3.33111 15.1216 2.66493 15.4827C2.60824 15.5139 2.55509 15.5521 2.50548 15.5938C2.57635 15.5209 2.6543 15.4584 2.74643 15.4063C3.41261 15.0452 4.38707 15.5174 4.91504 16.4584C5.4005 17.3195 5.34735 18.2709 4.82646 18.7049C5.26939 18.2431 5.2942 17.3438 4.83354 16.5313V16.5347Z" fill="white"/>
<path d="M6.59056 18.2638C6.98388 18.6597 7.4906 18.8263 7.86621 18.7152C7.86267 18.7187 7.85912 18.7291 7.85204 18.7326C7.49415 19.0729 6.79962 18.9374 6.29999 18.434C5.80036 17.927 5.68697 17.243 6.04486 16.9027C6.12282 16.8298 6.21849 16.7812 6.32125 16.7534C5.98108 17.0972 6.09801 17.7673 6.59056 18.2673V18.2638Z" fill="#D3D9E0"/>
<path d="M6.27866 19.6666C6.18298 19.7464 6.10857 19.8436 6.05896 19.9548C5.82155 20.4999 6.27865 21.2117 7.07948 21.545C7.56848 21.7499 8.0752 21.7638 8.44727 21.6179C8.08229 21.9235 7.4232 21.9791 6.78892 21.7117C5.98809 21.3784 5.53098 20.6666 5.76839 20.1214C5.86052 19.9096 6.04479 19.7568 6.27866 19.6631V19.6666Z" fill="#D3D9E0"/>
<path d="M2.66473 15.486C2.70725 15.4617 2.75332 15.4444 2.79584 15.427C2.27495 15.861 2.2218 16.8159 2.70371 17.677C3.1998 18.5589 4.08212 19.0277 4.74121 18.7881C4.6916 18.8298 4.63845 18.868 4.58175 18.8992C3.91204 19.2603 2.94467 18.7881 2.41314 17.8471C1.88162 16.9062 1.99501 15.8506 2.66119 15.4895L2.66473 15.486Z" fill="#D3D9E0"/>
</g>
<defs>
<radialGradient id="paint0_radial_1965_3097" cx="0" cy="0" r="1" gradientUnits="userSpaceOnUse" gradientTransform="translate(16.4843 5.64931) rotate(180) scale(17.9477 17.5868)">
<stop offset="0.09" stop-color="white"/>
<stop offset="0.12" stop-color="#FEFEFE"/>
<stop offset="0.49" stop-color="#FAFAFA"/>
<stop offset="0.8" stop-color="#E3E7EB"/>
<stop offset="1" stop-color="#D3D9E0"/>
</radialGradient>
<radialGradient id="paint1_radial_1965_3097" cx="0" cy="0" r="1" gradientUnits="userSpaceOnUse" gradientTransform="translate(15.7366 -0.95497) rotate(180) scale(16.1547 0.693789)">
<stop offset="0.09" stop-color="white"/>
<stop offset="0.12" stop-color="#FEFEFE"/>
<stop offset="0.49" stop-color="#FAFAFA"/>
<stop offset="0.8" stop-color="#E3E7EB"/>
<stop offset="1" stop-color="#D3D9E0"/>
</radialGradient>
<clipPath id="clip0_1965_3097">
<rect width="24" height="24" fill="white" transform="matrix(-1 0 0 1 24 0)"/>
</clipPath>
</defs>
</svg>
