<svg width="24" height="24" viewBox="0 0 24 24" fill="none" xmlns="http://www.w3.org/2000/svg">
<rect width="24" height="24" rx="12" fill="#4479A1"/>
<path d="M15.6445 5.25809C15.5652 5.25809 15.5114 5.26774 15.4556 5.28084V5.2898H15.4652C15.5025 5.36151 15.5659 5.41391 15.6128 5.47803C15.65 5.55181 15.6817 5.62558 15.719 5.69867L15.7286 5.68833C15.7934 5.64282 15.8252 5.56974 15.8252 5.45873C15.7976 5.42632 15.7934 5.39392 15.77 5.3622C15.7424 5.31601 15.6831 5.29325 15.6459 5.25671L15.6445 5.25809ZM8.31183 14.3552H7.67268C7.6547 13.3394 7.59259 12.3249 7.48652 11.3145H7.481L6.50882 14.3552H6.02274L5.05746 11.3145H5.05056C4.97506 12.3265 4.93022 13.3405 4.91611 14.3552H4.3335C4.37142 12.9996 4.46588 11.7282 4.61619 10.5423H5.40909L6.32956 13.3444H6.33507L7.26381 10.5423H8.0188C8.18565 11.9316 8.28356 13.2037 8.3139 14.3552H8.31183ZM11.0815 11.5421C10.8209 12.9521 10.4775 13.978 10.0528 14.6172C9.72045 15.1108 9.3564 15.357 8.96133 15.357C8.85583 15.357 8.7269 15.3253 8.57108 15.2618V14.9212C8.64692 14.933 8.73655 14.9392 8.83722 14.9392C9.022 14.9392 9.17024 14.8875 9.28332 14.7861C9.41915 14.662 9.48671 14.5227 9.48671 14.369C9.48671 14.2621 9.43362 14.0449 9.32813 13.7181L8.62899 11.5421H9.25643L9.75768 13.1693C9.87076 13.5388 9.91833 13.7967 9.89903 13.9435C10.1748 13.2099 10.3665 12.4081 10.4747 11.5421H11.0815ZM19.5794 14.3552H17.7661V10.5423H18.3763V13.8863H19.5794V14.3552ZM17.2903 14.4482L16.5898 14.1035C16.6519 14.0511 16.7118 13.9946 16.7656 13.9311C17.0642 13.5823 17.2124 13.0638 17.2124 12.3777C17.2124 11.116 16.7174 10.4844 15.7266 10.4844C15.2412 10.4844 14.8619 10.6444 14.5889 10.965C14.2924 11.3152 14.1435 11.831 14.1435 12.5129C14.1435 13.183 14.2745 13.6753 14.5393 13.9884C14.7806 14.271 15.1439 14.4124 15.6307 14.4124C15.8127 14.4124 15.9796 14.3896 16.1306 14.3448L17.0442 14.8771L17.2924 14.4482H17.2903ZM15.0205 13.5919C14.8654 13.3437 14.7882 12.9438 14.7882 12.395C14.7882 11.4345 15.0805 10.9539 15.6638 10.9539C15.9693 10.9539 16.1947 11.0691 16.3374 11.2987C16.4919 11.5483 16.5691 11.944 16.5691 12.4867C16.5691 13.4547 16.2768 13.9401 15.6935 13.9401C15.3866 13.9401 15.1626 13.825 15.0192 13.5954L15.0205 13.5919ZM13.8774 13.2989C13.8774 13.6229 13.7588 13.8891 13.5216 14.0959C13.2844 14.3028 12.9679 14.4062 12.5673 14.4062C12.1929 14.4062 11.8337 14.2876 11.4828 14.0511L11.6462 13.7229C11.9482 13.8746 12.2205 13.9491 12.4667 13.9491C12.6956 13.9491 12.8755 13.8987 13.0065 13.7974C13.072 13.748 13.1249 13.6839 13.1608 13.6102C13.1968 13.5365 13.2148 13.4553 13.2134 13.3733C13.2134 13.1458 13.0548 12.9528 12.7666 12.7907C12.4991 12.6439 11.9647 12.3377 11.9647 12.3377C11.6738 12.1261 11.529 11.8992 11.529 11.5262C11.529 11.2159 11.6372 10.9677 11.853 10.7781C12.0702 10.5864 12.3495 10.492 12.6942 10.492C13.0472 10.492 13.3699 10.5857 13.6595 10.7747L13.5126 11.1029C13.2812 11.0012 13.0317 10.9473 12.779 10.9443C12.5839 10.9443 12.4329 10.9912 12.3281 11.0863C12.2749 11.1304 12.232 11.1856 12.2025 11.248C12.1729 11.3104 12.1574 11.3785 12.1571 11.4476C12.1571 11.6738 12.3184 11.8682 12.6163 12.0337C12.8873 12.1819 13.4347 12.4956 13.4347 12.4956C13.7333 12.7059 13.8815 12.93 13.8815 13.3009L13.8774 13.2989ZM20.3461 9.264C19.9772 9.25435 19.6911 9.29158 19.4519 9.39363C19.3829 9.4212 19.2726 9.42121 19.2629 9.50877C19.3009 9.54531 19.3064 9.6053 19.3388 9.65632C19.3939 9.74871 19.4891 9.87213 19.5773 9.93694C19.6739 10.0128 19.7704 10.0859 19.8718 10.1507C20.051 10.261 20.2544 10.3265 20.4302 10.4375C20.5302 10.5023 20.6323 10.5844 20.7336 10.6533C20.7839 10.6878 20.8163 10.7498 20.8812 10.7719V10.7581C20.8494 10.7167 20.8398 10.6568 20.8088 10.6106C20.7626 10.5644 20.7164 10.523 20.6709 10.4775C20.5355 10.2991 20.3739 10.1422 20.1917 10.0121C20.0441 9.91143 19.7214 9.77077 19.6608 9.60185L19.6518 9.5922C19.7525 9.58323 19.8724 9.54669 19.969 9.51911C20.1255 9.47774 20.2689 9.48671 20.4309 9.44603C20.504 9.42741 20.5778 9.40466 20.6516 9.38121V9.33985C20.5688 9.25711 20.5068 9.14472 20.4213 9.0675C20.1826 8.8589 19.9281 8.66918 19.6601 8.50005C19.5153 8.40766 19.3319 8.34837 19.1795 8.26976C19.1243 8.24218 19.032 8.22839 19.0002 8.1822C18.9175 8.08153 18.8692 7.94777 18.8106 7.8278C18.6752 7.56517 18.5494 7.2977 18.4335 7.02593C18.3507 6.84528 18.3004 6.66533 18.1991 6.49985C17.7233 5.71591 17.2083 5.24085 16.416 4.77614C16.2457 4.67961 16.0417 4.63824 15.8258 4.58722C15.7107 4.5817 15.5956 4.57343 15.4811 4.5686C15.4053 4.5362 15.3322 4.44863 15.2674 4.40657C15.0054 4.2411 14.3269 3.88256 14.1339 4.35693C14.0097 4.65617 14.3179 4.95127 14.4248 5.10295C14.5041 5.20845 14.6041 5.32911 14.6592 5.4477C14.6916 5.52768 14.7006 5.60973 14.733 5.69315C14.8061 5.89586 14.8757 6.12201 14.9723 6.31162C15.0226 6.40815 15.0778 6.50951 15.1426 6.59638C15.1798 6.64671 15.2432 6.67016 15.2577 6.75289C15.1929 6.84666 15.1888 6.98318 15.1515 7.09764C14.9861 7.61958 15.0509 8.26494 15.2853 8.64898C15.3591 8.76344 15.5349 9.01717 15.77 8.91995C15.9768 8.83721 15.9313 8.57521 15.9906 8.34423C16.0044 8.28907 15.9955 8.25253 16.0237 8.21529V8.22564C16.0885 8.35526 16.1534 8.47868 16.2127 8.6083C16.3547 8.83445 16.6029 9.06888 16.8104 9.22539C16.9208 9.30813 17.0083 9.45154 17.1462 9.50256V9.48877H17.1359C17.1062 9.44878 17.0669 9.42948 17.0297 9.39707C16.9423 9.31149 16.8616 9.21929 16.7884 9.12128C16.5941 8.85584 16.4219 8.57497 16.2733 8.28148C16.1975 8.13669 16.134 7.98087 16.0734 7.83815C16.0458 7.78299 16.0458 7.70025 15.9996 7.67267C15.9307 7.77333 15.8293 7.8609 15.779 7.98501C15.6914 8.18358 15.6824 8.42766 15.6493 8.68139C15.6307 8.68621 15.6397 8.68139 15.6307 8.69104C15.4832 8.65519 15.4328 8.50212 15.3777 8.37388C15.2398 8.04637 15.217 7.52029 15.3363 7.14314C15.3687 7.04661 15.5066 6.74186 15.4515 6.64947C15.4225 6.56191 15.3315 6.51157 15.2812 6.44056C15.2164 6.34813 15.161 6.24951 15.1157 6.14615C15.0054 5.88828 14.9502 5.60283 14.8302 5.34496C14.7751 5.22568 14.6785 5.10089 14.5999 4.99126C14.5124 4.86715 14.4159 4.77958 14.3462 4.63272C14.3235 4.58239 14.2911 4.49896 14.3276 4.44381C14.3372 4.40657 14.3566 4.39209 14.3924 4.38175C14.4531 4.33211 14.6234 4.39692 14.6834 4.4245C14.8537 4.49345 14.9971 4.55826 15.1398 4.65479C15.2046 4.70029 15.2743 4.78786 15.357 4.81061H15.4535C15.6011 4.84302 15.7672 4.82026 15.9051 4.86094C16.1499 4.93955 16.3705 5.054 16.5684 5.17811C17.1782 5.56761 17.6741 6.11136 18.006 6.75427C18.0612 6.86045 18.0853 6.95767 18.1356 7.06799C18.2322 7.29552 18.3514 7.52512 18.4493 7.74506C18.5459 7.96225 18.639 8.18358 18.7775 8.36353C18.8465 8.46006 19.1237 8.51039 19.2478 8.56073C19.3395 8.6021 19.4822 8.64002 19.5649 8.69035C19.7235 8.78688 19.878 8.8972 20.0269 9.00338C20.1027 9.05578 20.3323 9.17092 20.3461 9.264Z" fill="white"/>
</svg>
