<svg width="24" height="24" viewBox="0 0 24 24" fill="none" xmlns="http://www.w3.org/2000/svg">
<rect width="24" height="24" rx="12" fill="black"/>
<path d="M13.2005 6.1748C13.1053 6.1748 13.0101 6.19464 12.9255 6.22438C13.1053 6.33346 13.2005 6.4822 13.2533 6.65077C13.2533 6.6706 13.2639 6.69043 13.2639 6.71026C13.2639 6.7301 13.2745 6.74993 13.2745 6.76976C13.2851 7.05732 13.1899 7.09698 13.1264 7.26556C13.0207 7.48371 13.0524 7.72169 13.1793 7.91009C13.1899 7.92992 13.2005 7.95967 13.2216 7.9795C13.0841 7.14656 13.8245 7.02757 13.962 6.76976C13.9726 6.54169 13.7716 6.39295 13.613 6.28388C13.4543 6.19464 13.3274 6.1748 13.2005 6.1748ZM14.311 6.35329C14.3005 6.43262 14.311 6.41279 14.3005 6.45245C14.3005 6.4822 14.3005 6.51195 14.2899 6.54169C14.2793 6.57144 14.2793 6.59127 14.2687 6.62102C14.2582 6.65077 14.2476 6.6706 14.237 6.70035C14.2264 6.72018 14.2158 6.74001 14.2053 6.76976C14.1947 6.77968 14.1841 6.79951 14.1735 6.80942C14.163 6.81934 14.163 6.82925 14.1524 6.83917C14.1312 6.859 14.1207 6.88875 14.0995 6.90858L14.036 6.96808C14.0149 6.98791 13.9937 7.00774 13.9726 7.01766C13.8985 7.06724 13.8139 7.1069 13.7399 7.15648C13.7187 7.17631 13.687 7.18623 13.6658 7.20606C13.6447 7.22589 13.6235 7.23581 13.6024 7.25564L13.5389 7.31513C13.5178 7.33497 13.4966 7.3548 13.486 7.38455C13.4649 7.40438 13.4543 7.43413 13.4332 7.45396C13.4226 7.48371 13.412 7.50354 13.3908 7.53328C13.3803 7.56303 13.3697 7.58286 13.3591 7.61261C13.3485 7.64236 13.338 7.67211 13.338 7.69194C13.338 7.70186 13.338 7.72169 13.3274 7.7316C13.3274 7.74152 13.3274 7.76135 13.3168 7.77127V7.91009C13.3168 7.93984 13.3168 7.95967 13.3274 7.98942C13.3274 8.01916 13.338 8.039 13.3485 8.06874C13.3591 8.09849 13.3697 8.11832 13.3803 8.14807C13.3908 8.1679 13.4014 8.17782 13.4014 8.19765L12.5976 7.91009C12.4601 7.87043 12.3331 7.84068 12.1956 7.81093C12.1216 7.7911 12.0476 7.78118 11.9735 7.76135C11.762 7.72169 11.5505 7.69194 11.3389 7.67211H11.3178C11.1062 7.65228 10.9053 7.64236 10.6937 7.64236C10.5351 7.64236 10.387 7.65228 10.2389 7.66219C10.0274 7.67211 9.81583 7.70186 9.60429 7.7316L9.44563 7.76135C9.33986 7.78118 9.23409 7.80101 9.12832 7.83076C9.07544 7.84068 9.02255 7.86051 8.96967 7.87043C8.91679 7.89026 8.8639 7.91009 8.82159 7.92992C8.77928 7.94975 8.74755 7.95967 8.70525 7.9795C8.69467 7.9795 8.69467 7.9795 8.68409 7.98942C8.65236 8.00925 8.62063 8.01916 8.5889 8.039C8.57832 8.039 8.56774 8.04891 8.56774 8.04891C8.52544 8.06874 8.49371 8.08858 8.46198 8.09849C8.44082 8.10841 8.40909 8.11832 8.38794 8.12824C8.37736 8.13816 8.36678 8.13816 8.35621 8.14807C8.32447 8.1679 8.29274 8.17782 8.26101 8.19765C8.22928 8.21748 8.19755 8.2274 8.1764 8.24723C8.15524 8.26706 8.12351 8.27698 8.10236 8.29681C8.10236 8.29681 8.09178 8.29681 8.09178 8.30673C8.07063 8.31664 8.04947 8.33647 8.02832 8.35631L8.01774 8.36622C7.99659 8.37614 7.98601 8.39597 7.96486 8.40589C7.95428 8.40589 7.95428 8.4158 7.9437 8.4158C7.92255 8.42572 7.91197 8.44555 7.89082 8.45546C7.89082 8.46538 7.88024 8.46538 7.88024 8.46538L7.81678 8.52488L7.8062 8.53479L7.74274 8.59429C7.74274 8.59429 7.74274 8.6042 7.73216 8.6042L7.67928 8.65378C7.6687 8.6637 7.65813 8.6637 7.65813 8.67361L7.59466 8.73311C7.59466 8.74303 7.58409 8.74303 7.58409 8.75294L7.49947 8.83227L7.48889 8.84219C7.43601 8.90168 7.37255 8.95126 7.30908 9.00084C7.24562 9.05042 7.18216 9.1 7.10812 9.14958C7.03408 9.19916 6.97062 9.23882 6.89658 9.27849C6.82254 9.31815 6.74851 9.3479 6.67447 9.37764C6.60043 9.40739 6.52639 9.43714 6.45235 9.45697C6.30427 9.48672 6.15619 9.54622 6.02927 9.55613C6.02927 9.50655 5.99754 9.51647 5.96581 9.51647C5.93408 9.52638 5.90235 9.52638 5.88119 9.5363C5.84946 9.54622 5.82831 9.55613 5.79658 9.56605C5.76485 9.57596 5.74369 9.58588 5.71196 9.60571C5.69081 9.62554 5.65908 9.63546 5.63792 9.65529C5.61677 9.67512 5.58504 9.69495 5.56388 9.71479C5.54273 9.73462 5.511 9.75445 5.48985 9.77428C5.46869 9.79411 5.44754 9.81395 5.42638 9.84369C5.40523 9.87344 5.38408 9.89327 5.3735 9.92302C5.35234 9.94285 5.34177 9.9726 5.32061 10.0023C5.31004 10.0321 5.28888 10.0618 5.27831 10.0916L5.24657 10.1808C5.236 10.2106 5.236 10.2304 5.22542 10.2602V10.2701C5.21484 10.2998 5.21484 10.3395 5.21484 10.3593C5.22542 10.3494 5.22542 10.3692 5.22542 10.3891V10.4287C5.22542 10.4486 5.236 10.4684 5.236 10.4882C5.24657 10.5081 5.24657 10.5279 5.25715 10.5477C5.26773 10.5676 5.27831 10.5874 5.29946 10.6072C5.31004 10.627 5.33119 10.6469 5.34177 10.6667C5.36292 10.6865 5.38408 10.7064 5.40523 10.7163C5.42638 10.7361 5.44754 10.756 5.46869 10.7659C5.55331 10.8353 5.57446 10.8551 5.68023 10.9146C5.70138 10.9245 5.71196 10.9344 5.73312 10.9444H5.74369V10.9642C5.74369 10.9939 5.75427 11.0138 5.76485 11.0435C5.77542 11.0733 5.786 11.103 5.79658 11.1228L5.82831 11.1823C5.82831 11.1923 5.83889 11.1923 5.83889 11.2022C5.84946 11.2319 5.87062 11.2518 5.88119 11.2716C5.90235 11.2914 5.91292 11.3212 5.93408 11.341L5.99754 11.4005L6.061 11.46H6.07158C6.09273 11.4798 6.11389 11.4897 6.13504 11.5096C6.15619 11.5294 6.18793 11.5393 6.20908 11.5492C6.23023 11.5591 6.26196 11.579 6.2937 11.5889C6.31485 11.5988 6.336 11.6087 6.36773 11.6087C6.36773 11.6087 6.37831 11.6087 6.37831 11.6186C6.38889 11.6186 6.41004 11.6286 6.42062 11.6286C6.41004 11.807 6.41004 11.9756 6.4312 12.0351C6.46293 12.1045 6.62158 11.8963 6.76966 11.6682C6.74851 11.8963 6.73793 12.164 6.76966 12.2433C6.81197 12.3227 7.01293 12.0649 7.20332 11.7872C9.67833 11.2518 11.9418 12.8581 12.1851 15.1289C12.1428 14.7719 11.6774 14.5736 11.4553 14.6232C11.3495 14.8611 11.1697 15.1785 10.8841 15.3669C10.9053 15.1487 10.8947 14.9306 10.8524 14.7124C10.7783 15.0099 10.6303 15.2974 10.4187 15.5354C10.0908 15.5553 9.75237 15.4065 9.58313 15.1785C9.57256 15.1685 9.56198 15.1487 9.5514 15.1388C9.54083 15.119 9.53025 15.0892 9.51967 15.0694C9.5091 15.0495 9.49852 15.0198 9.49852 15V14.9306V14.881C9.49852 14.8611 9.5091 14.8314 9.51967 14.8116C9.53025 14.7917 9.53025 14.762 9.54083 14.7422C9.5514 14.7223 9.56198 14.6926 9.58313 14.6727C9.6466 14.5141 9.6466 14.3852 9.53025 14.3158L9.46679 14.286C9.45621 14.286 9.43506 14.2761 9.42448 14.2761C9.4139 14.2761 9.40333 14.2662 9.39275 14.2662C9.37159 14.2563 9.33986 14.2563 9.31871 14.2464C9.29756 14.2364 9.26583 14.2364 9.24467 14.2364C9.22352 14.2364 9.19179 14.2265 9.17063 14.2265H9.11775C9.08602 14.2265 9.06486 14.2265 9.04371 14.2364C9.02255 14.2364 8.99082 14.2464 8.96967 14.2464C8.94852 14.2563 8.91679 14.2563 8.89563 14.2662C8.87448 14.2761 8.85332 14.286 8.82159 14.2959L8.75813 14.3257C7.9437 14.8215 8.43024 15.9916 8.98025 16.3287C8.76871 16.3684 8.55717 16.408 8.49371 16.4477L8.48313 16.4576C8.63121 16.5469 8.78986 16.6163 8.95909 16.6758C9.18121 16.7452 9.42448 16.8047 9.53025 16.8344C9.81583 16.8939 10.112 16.9137 10.4081 16.8939C11.9524 16.7947 13.2216 15.6842 13.4543 14.2364C13.4649 14.2662 13.4649 14.2959 13.4755 14.3257C13.486 14.3852 13.4966 14.4447 13.5072 14.5141C13.5178 14.5438 13.5178 14.5736 13.5178 14.6033V14.6132C13.5178 14.643 13.5283 14.6727 13.5283 14.7025C13.5283 14.7422 13.5389 14.7719 13.5389 14.8116V15.228C13.5389 15.2578 13.5283 15.2776 13.5283 15.3074V15.3371C13.5283 15.3669 13.5178 15.3966 13.5178 15.4363C13.5072 15.466 13.5072 15.4958 13.4966 15.5255V15.5354C13.486 15.5652 13.486 15.5949 13.4755 15.6247V15.6346C13.4649 15.6643 13.4649 15.6941 13.4543 15.7238V15.7337L13.4226 15.823V15.8329C13.412 15.8627 13.4014 15.9023 13.3908 15.9321C13.3803 15.9618 13.3697 15.9916 13.3485 16.0312C13.338 16.061 13.3274 16.1006 13.3062 16.1304C13.2957 16.1601 13.2745 16.1899 13.2639 16.2295C13.2533 16.2593 13.2322 16.289 13.2216 16.3188C13.2216 16.3287 13.211 16.3386 13.211 16.3386C13.211 16.3386 13.211 16.3485 13.2005 16.3485C12.9783 16.7749 12.6399 17.1517 12.2168 17.4492C12.1851 17.469 12.1639 17.4889 12.1322 17.5087C12.1216 17.5186 12.111 17.5186 12.111 17.5285C12.0899 17.5484 12.0581 17.5583 12.037 17.5781L12.0476 17.5979C12.1005 17.588 12.1428 17.588 12.1956 17.5781C12.2908 17.5682 12.3755 17.5484 12.4706 17.5285C12.4918 17.5285 12.5235 17.5186 12.5447 17.5087C12.5658 17.5087 12.5764 17.4988 12.5976 17.4988C12.6187 17.4988 12.6505 17.4889 12.6716 17.4889C12.6928 17.4789 12.7139 17.4789 12.7351 17.469C13.0841 17.3897 13.4226 17.2806 13.7505 17.1517C13.1899 17.8657 12.4495 18.4408 11.5822 18.8176C11.9841 18.7878 12.386 18.7284 12.7774 18.6193C14.1841 18.2326 15.3687 17.3401 16.0774 16.1403C15.9293 16.8939 15.612 17.6178 15.136 18.2524C15.4745 18.0442 15.7812 17.7963 16.0668 17.5285C16.8495 16.765 17.3678 15.7833 17.537 14.7422C17.6534 15.2578 17.6957 15.7932 17.6428 16.3188C20.1707 13.0168 17.8543 9.5958 16.8812 8.69345C16.8812 8.68353 16.8707 8.68353 16.8707 8.67361C16.8707 8.71328 16.8707 8.75294 16.8601 8.79261C16.8495 8.87193 16.8389 8.94134 16.8284 9.01076C16.8072 9.08017 16.7861 9.15949 16.7649 9.22891C16.7437 9.29832 16.712 9.36773 16.6803 9.43714C16.6486 9.50655 16.6168 9.57596 16.5745 9.63546C16.5322 9.69495 16.4899 9.76437 16.4476 9.82386C16.4053 9.88336 16.3524 9.94285 16.2995 10.0023C16.2466 10.0618 16.1937 10.1114 16.1303 10.1709C16.0986 10.2007 16.0668 10.2304 16.0245 10.2502C15.9928 10.2701 15.9716 10.2899 15.9399 10.3197C15.8764 10.3692 15.813 10.4089 15.7389 10.4486C15.6755 10.4882 15.6014 10.5279 15.5274 10.5576L15.3053 10.6469C15.2312 10.6766 15.1572 10.6965 15.0832 10.7163C15.0091 10.7361 14.9245 10.756 14.8505 10.7659C14.7659 10.7758 14.6918 10.7857 14.6178 10.7956C14.5649 10.7956 14.5014 10.8055 14.4485 10.8055C14.3639 10.8055 14.2899 10.7956 14.2158 10.7956C14.1312 10.7857 14.0572 10.7758 13.9832 10.7659C13.8985 10.756 13.8245 10.7361 13.7505 10.7064C13.8245 10.6965 13.9091 10.6965 13.9832 10.6766C14.0678 10.6667 14.1418 10.6469 14.2158 10.627C14.2899 10.6072 14.3745 10.5874 14.438 10.5576L14.6601 10.4684C14.7341 10.4386 14.7976 10.399 14.8716 10.3593C14.9351 10.3197 15.0091 10.2701 15.0726 10.2304C15.136 10.1808 15.1995 10.1313 15.2524 10.0817C15.3159 10.0321 15.3687 9.9726 15.4216 9.92302C15.4745 9.86352 15.5274 9.80403 15.5697 9.74453C15.5803 9.73462 15.5803 9.7247 15.5909 9.71479C15.6226 9.66521 15.6649 9.60571 15.6966 9.55613C15.7389 9.48672 15.7707 9.42722 15.8024 9.35781C15.8341 9.2884 15.8659 9.21899 15.887 9.14958L15.9505 8.94134C15.9611 8.86202 15.9822 8.79261 15.9822 8.72319C15.9928 8.64387 15.9928 8.57446 15.9928 8.50504C15.9928 8.45546 15.9928 8.39597 15.9822 8.34639C15.9716 8.26706 15.9611 8.19765 15.9505 8.12824C15.9399 8.04891 15.9187 7.9795 15.8976 7.91009C15.8764 7.84068 15.8447 7.77127 15.8235 7.70186C15.7918 7.63244 15.7601 7.56303 15.7284 7.50354C15.686 7.43413 15.6543 7.37463 15.612 7.30522C15.5697 7.24572 15.5168 7.18623 15.4745 7.12673C15.4216 7.06724 15.3687 7.01766 15.3159 6.95816C15.2841 6.92841 15.2524 6.89867 15.2207 6.87883C15.062 6.75984 14.9034 6.66068 14.7341 6.56153C14.713 6.55161 14.6918 6.54169 14.6601 6.53178C14.5226 6.4227 14.4168 6.39295 14.311 6.35329Z" fill="#DF234F"/>
</svg>
