<svg width="24" height="24" viewBox="0 0 24 24" fill="none" xmlns="http://www.w3.org/2000/svg">
<rect width="24" height="24" rx="12" fill="#339933"/>
<path d="M11.9991 18.8607C11.8155 18.8607 11.6326 18.8127 11.4719 18.7195L9.79339 17.7264C9.54298 17.5864 9.66533 17.5366 9.74765 17.5075C10.0821 17.3914 10.1496 17.3645 10.5069 17.1622C10.5441 17.141 10.5932 17.149 10.6315 17.1719L11.9213 17.9374C11.9682 17.9631 12.0339 17.9631 12.0768 17.9374L17.1051 15.0354C17.1519 15.0085 17.1817 14.9548 17.1817 14.8993V9.09639C17.1817 9.03979 17.1514 8.98662 17.1033 8.95803L12.0774 6.05829C12.0311 6.03142 11.9693 6.03142 11.9225 6.05829L6.89765 8.95861C6.84906 8.98662 6.81818 9.0415 6.81818 9.09639V14.8993C6.81818 14.9548 6.84906 15.0074 6.89765 15.0337L8.27491 15.8295C9.02215 16.2034 9.48009 15.7632 9.48009 15.3207V9.5915C9.48009 9.51031 9.54527 9.44685 9.62645 9.44685H10.2639C10.3434 9.44685 10.4097 9.51088 10.4097 9.5915V15.3207C10.4097 16.3183 9.86657 16.89 8.92095 16.89C8.63052 16.89 8.40126 16.89 7.76266 16.575L6.44314 15.8163C6.11726 15.6282 5.91602 15.2761 5.91602 14.8993V9.09639C5.91602 8.71963 6.11783 8.36745 6.44314 8.17993L11.4714 5.27447C11.7898 5.09438 12.2123 5.09438 12.5279 5.27447L17.5556 8.17993C17.8814 8.36802 18.0838 8.71963 18.0838 9.09639V14.8993C18.0838 15.2761 17.8814 15.6271 17.5556 15.8163L12.5279 18.7195C12.3678 18.8127 12.1854 18.8607 11.9991 18.8607ZM16.0588 13.1396C16.0588 12.0533 15.3247 11.764 13.7794 11.5599C12.218 11.3535 12.0591 11.2466 12.0591 10.8813C12.0591 10.5794 12.1935 10.1764 13.35 10.1764C14.3831 10.1764 14.7639 10.3988 14.9205 11.0951C14.9343 11.1609 14.9943 11.2089 15.0617 11.2089H15.7141C15.7547 11.2089 15.793 11.1912 15.8204 11.1626C15.8479 11.1317 15.8627 11.0922 15.8587 11.0505C15.7575 9.85105 14.9606 9.29192 13.35 9.29192C11.9162 9.29192 11.0609 9.89679 11.0609 10.9116C11.0609 12.0121 11.9116 12.3163 13.2877 12.4524C14.9343 12.6136 15.0617 12.8543 15.0617 13.1779C15.0617 13.7399 14.6107 13.9794 13.5513 13.9794C12.2209 13.9794 11.9282 13.6455 11.8298 12.9835C11.8184 12.9126 11.7578 12.8606 11.6852 12.8606H11.0352C10.9545 12.8606 10.8899 12.9246 10.8899 13.0052C10.8899 13.8525 11.3507 14.8621 13.5513 14.8621C15.1452 14.8627 16.0588 14.2355 16.0588 13.1396Z" fill="white"/>
</svg>
