<svg width="24" height="24" viewBox="0 0 24 24" fill="none" xmlns="http://www.w3.org/2000/svg">
<rect width="24" height="24" rx="12" fill="#777BB4"/>
<path d="M7.33177 10.7697H6.45527L5.97709 13.2283H6.75517C7.27142 13.2283 7.65582 13.1309 7.90837 12.9368C8.16092 12.7418 8.33083 12.4178 8.41904 11.9628C8.50446 11.5264 8.46547 11.2181 8.30391 11.0389C8.14142 10.8597 7.8183 10.7697 7.33177 10.7697ZM8.93807 13.492C8.69573 13.7242 8.40419 13.8987 8.08664 14.0036C7.77466 14.1039 7.37634 14.1559 6.89352 14.1559H5.79696L5.49334 15.7167H4.21387L5.35592 9.84303H7.81645C8.55646 9.84303 9.09592 10.0371 9.43575 10.4261C9.77558 10.8142 9.87772 11.3565 9.74215 12.0529C9.69023 12.3284 9.59463 12.5939 9.45896 12.8393C9.32619 13.0761 9.15256 13.2943 8.93807 13.492ZM12.6744 14.1559L13.1785 11.557C13.237 11.2618 13.2147 11.0594 13.1154 10.9526C13.016 10.8449 12.8034 10.791 12.4775 10.791H11.4636L10.8099 14.1568H9.53974L10.6818 8.28223H11.9511L11.6474 9.84396H12.7783C13.4905 9.84396 13.9808 9.96838 14.2509 10.2163C14.5211 10.4642 14.6019 10.8662 14.4951 11.4224L13.964 14.1559H12.6744ZM19.7282 12.0529C19.6771 12.3286 19.5814 12.5943 19.445 12.8393C19.3122 13.0761 19.1386 13.2943 18.9241 13.492C18.6816 13.7235 18.3908 13.8982 18.0727 14.0036C17.7607 14.1039 17.3624 14.1559 16.8786 14.1559H15.783L15.4794 15.7177H14.1999L15.3419 9.84396H17.8015C18.5415 9.84396 19.081 10.038 19.4208 10.4271C19.7607 10.8142 19.8637 11.3565 19.7282 12.0529ZM17.3187 10.7697H16.4431L15.964 13.2283H16.7421C17.2593 13.2283 17.6437 13.1309 17.8953 12.9368C18.1479 12.7418 18.3178 12.4178 18.4069 11.9628C18.4923 11.5264 18.4524 11.2181 18.2908 11.0389C18.1293 10.8597 17.8043 10.7697 17.3187 10.7697Z" fill="white"/>
</svg>
