<svg width="100" height="100" viewBox="0 0 100 100" fill="none" xmlns="http://www.w3.org/2000/svg">
<path d="M49.1682 89.1885C70.5311 89.1885 87.8491 86.4589 87.8491 83.0917C87.8491 79.7245 70.5311 76.9949 49.1682 76.9949C27.8053 76.9949 10.4873 79.7245 10.4873 83.0917C10.4873 86.4589 27.8053 89.1885 49.1682 89.1885Z" fill="#DDE7FF"/>
<path d="M50.5009 70.5561C22.7875 72.1492 26.0222 75.1174 24.8683 47.3521C24.1999 33.9278 34.6401 22.3924 48.0678 21.7251C79.7125 19.7504 82.1851 69.383 50.5009 70.5561Z" fill="#3368FF"/>
<path d="M45.5673 52.6101C50.1049 52.6101 53.7844 48.9317 53.7844 44.3952C53.7844 39.8587 50.106 36.1803 45.5673 36.1803C41.0285 36.1803 37.3501 39.8587 37.3501 44.3952C37.3501 48.9317 41.0285 52.6101 45.5673 52.6101Z" fill="white"/>
<path d="M60.8275 52.6101C65.3651 52.6101 69.0447 48.9317 69.0447 44.3952C69.0447 39.8587 65.3662 36.1803 60.8275 36.1803C56.2888 36.1803 52.6104 39.8587 52.6104 44.3952C52.6104 48.9317 56.2888 52.6101 60.8275 52.6101Z" fill="white"/>
<path d="M48.4192 48.9069C50.9121 48.9069 52.9331 46.8859 52.9331 44.3941C52.9331 41.9023 50.9121 39.8813 48.4192 39.8813C45.9263 39.8813 43.9053 41.9023 43.9053 44.3941C43.9053 46.8859 45.9263 48.9069 48.4192 48.9069Z" fill="#1D2955"/>
<path d="M63.594 48.9069C66.0869 48.9069 68.1079 46.8859 68.1079 44.3941C68.1079 41.9023 66.0869 39.8813 63.594 39.8813C61.1011 39.8813 59.0801 41.9023 59.0801 44.3941C59.0801 46.8859 61.1011 48.9069 63.594 48.9069Z" fill="#1D2955"/>
<path d="M46.9648 56.3507C46.9648 59.3991 49.5616 61.9959 52.61 61.9959C55.6585 61.9959 58.2552 59.3991 58.2552 56.3507C58.2552 55.3345 57.4649 54.6571 56.4488 54.6571H48.7713C47.7552 54.6571 46.9648 55.3345 46.9648 56.3507Z" fill="#18224A"/>
<path d="M45.3988 68.6128L44.7858 69.5115C44.5995 69.7847 44.3838 70.085 44.1558 70.2623L43.0267 71.1407L42.5322 71.3202C39.7966 72.6096 36.5641 71.6284 34.9868 69.1265C33.4209 66.6426 33.8939 63.3514 36.1746 61.4039C36.4964 61.1295 36.922 60.8382 37.3081 60.6417C38.0161 60.2805 38.7725 60.0716 39.5685 60.0129C42.3933 59.8029 45.0161 61.5822 45.8008 64.3089C46.223 65.7778 46.0119 67.2624 45.3988 68.615V68.6128Z" fill="#4F84FC"/>
<path d="M39.5687 60.0106C38.7728 60.0693 38.0163 60.277 37.3084 60.6394C37.2474 60.4667 37.1978 60.3583 37.0984 60.2217L32.9514 54.5709C32.8295 54.4038 32.8419 54.1339 32.606 54.1204C33.0835 53.4305 34.3176 52.98 34.9194 53.7805L39.5676 60.0094L39.5687 60.0106Z" fill="#4F5873"/>
<path d="M37.3083 60.6394C36.9222 60.837 36.4966 61.1272 36.1748 61.4015L32.3214 56.1888C31.8223 55.5317 31.9477 54.5855 32.6059 54.1204C32.8407 54.1339 32.8283 54.4037 32.9514 54.5708L37.0983 60.2217C37.1977 60.3572 37.2474 60.4667 37.3083 60.6394Z" fill="#343F5E"/>
<path d="M44.1561 70.2611L45.2727 71.7661L46.8771 70.6088L47.3896 72.9313C47.4608 73.2564 47.6832 73.5421 47.7013 73.8831C47.7216 74.2489 47.314 74.4781 46.9832 74.3527C46.6524 74.2274 46.5135 73.9429 46.2437 73.7871L44.234 72.6231L43.0293 71.1395L44.1583 70.2611H44.1561Z" fill="#343F5E"/>
<path d="M46.8772 70.6099L45.2729 71.7672L44.1562 70.2622C44.3843 70.0849 44.5988 69.7846 44.7863 69.5114L45.3993 68.6127L46.8772 70.6099Z" fill="#4F5873"/>
<path d="M49.3343 85.6759L46.6359 87.8493C46.4078 88.0334 46.1312 88.1226 45.8106 88.1226L35.3545 88.1271C35.0034 88.1271 34.7629 87.9803 34.6319 87.7138C34.5981 87.5321 34.6263 87.365 34.6985 87.1493L36.6811 81.2659C36.8008 80.9103 36.9634 80.6348 37.4015 80.6348L47.9083 80.6404C48.2527 80.6404 48.3983 80.9001 48.4593 81.1711C48.7472 82.4435 49.218 83.6188 49.8141 84.7693C49.9428 85.0188 49.8119 85.2514 49.6143 85.4275L49.3332 85.6771L49.3343 85.6759Z" fill="#AB97FB"/>
<path d="M28.0851 73.5422L33.7292 74.9038C33.8941 74.9433 34.0363 74.9941 34.0374 75.1432L33.3724 75.4006L26.7416 78.659C26.3792 78.8374 26.0597 78.9853 25.6329 78.8351L15.9355 75.4344C15.9435 75.3125 16.0372 75.2312 16.1772 75.1838L23.3093 72.7767C23.9596 72.5576 24.6709 72.7643 25.3043 72.9088L28.084 73.5422H28.0851Z" fill="#FDD86F"/>
<path d="M18.0014 78.4218C17.9687 78.5336 17.9687 78.7809 18.1166 78.8396L20.1635 79.648L26.2445 81.9919L28.6945 80.9757L34.0846 78.5867C34.2652 78.5065 34.4131 78.4151 34.4628 78.2401C34.5125 78.2649 34.6085 78.2559 34.6356 78.3191C34.6593 78.3722 34.6706 78.4286 34.6694 78.511L34.6649 79.0123L34.613 80.5919L27.0755 83.9564C26.529 84.2003 26.1316 84.2906 25.5479 84.0569L15.8416 80.1741L15.8325 78.2096L15.9093 77.7749L17.5825 78.3123L18.0014 78.4218Z" fill="#43ADFC"/>
<path d="M34.0383 75.1431L34.0586 77.2939C33.8532 77.4203 33.6319 77.4892 33.4964 77.6337C33.4523 77.68 33.3259 77.7749 33.2582 77.7207L26.6612 80.8955C26.3755 81.0897 26.0537 81.2229 25.7026 81.1021L21.5331 79.6683L18.0014 78.4229L17.5826 78.3134L15.9093 77.776C15.8698 77.6021 15.8167 77.4249 15.8303 77.19L15.9364 75.4344L25.6337 78.835C26.0605 78.9852 26.3789 78.8373 26.7425 78.6589L33.3733 75.4005L34.0383 75.1431Z" fill="#FCC23D"/>
<path d="M34.4629 78.2401C34.4132 78.4151 34.2653 78.5065 34.0847 78.5867L28.6946 80.9757L26.2446 81.9919L20.1636 79.648L18.1166 78.8396C17.9687 78.7809 17.9687 78.5336 18.0015 78.4219L21.5331 79.6672C21.6347 80.0025 21.9497 80.2023 22.3054 80.3209L24.7035 81.1191C25.2736 81.3088 25.9669 81.5301 26.5483 81.2817L27.9653 80.6765L29.468 79.9686L31.5093 78.9209L33.1408 78.1475C33.2639 78.0899 33.4174 78.0549 33.4208 77.8878C33.7719 77.9138 34.158 78.0899 34.4618 78.2401H34.4629Z" fill="#61B5FC"/>
<path d="M33.258 77.7196L33.4228 77.8878C33.4194 78.0549 33.2648 78.0888 33.1428 78.1475L31.5114 78.9209L29.47 79.9687L27.9673 80.6766L26.5504 81.2817C25.9678 81.5301 25.2757 81.31 24.7055 81.1191L22.3074 80.3209C21.9518 80.2024 21.6368 80.0025 21.5352 79.6672L25.7047 81.1011C26.0558 81.2219 26.3776 81.0875 26.6633 80.8945L33.2602 77.7196H33.258Z" fill="#43ADFC"/>
<path d="M49.8154 84.7683L46.8777 84.4578C46.8777 84.4578 45.6854 84.1597 45.6436 85.2414C45.6233 85.7743 45.8107 88.1227 45.8107 88.1227C45.8107 88.1227 46.347 88.1227 46.6361 87.8494C46.8303 87.6654 49.6145 85.4265 49.6145 85.4265C49.6145 85.4265 50.0164 85.1691 49.8143 84.7683H49.8154Z" fill="#907EFC"/>
<path d="M74.512 72.1997L73.3796 76.0858C73.331 76.2033 73.2633 76.3162 73.1402 76.4381L69.3161 80.2351L68.8973 80.5817L53.1596 80.9362C52.4799 80.9531 51.9526 80.5704 51.7302 79.9878C51.6297 79.7236 51.623 79.2946 51.7009 79.0202L52.1762 77.3459L55.0654 67.1698L57.529 58.4028C57.8248 57.3494 58.5101 56.7849 59.6222 56.7555L64.0198 56.5975L63.6506 58.3328L60.4441 58.3881C60.1032 58.3927 59.6087 58.6343 59.4991 59.0204L56.436 69.7892L54.0843 78.187C53.9804 78.5573 54.388 78.9389 54.7662 78.9299L66.314 78.6646L69.691 78.5923C70.0828 78.5844 70.5886 78.3349 70.7071 77.9375L72.1907 72.946L76.4043 58.8872C76.4731 58.658 76.3625 58.422 76.2654 58.2956C76.1547 58.1522 75.9459 58.0957 75.7257 58.1014L72.4041 58.1883L72.6954 56.401L77.6157 56.2509C78.4083 56.2305 79.0575 57.0423 78.8339 57.8089L77.8675 61.1249L74.5142 72.1997H74.512ZM73.042 57.9997C72.9675 57.9218 72.7552 57.9218 72.6152 57.9862C72.6152 57.9873 72.6344 58.0076 72.6592 58.0302C72.7823 58.037 72.9155 58.0573 73.042 57.9997Z" fill="#4F5873"/>
<path d="M78.3627 72.7382C78.2746 72.8996 78.2475 73.1209 78.2114 73.3332C78.1707 73.5691 78.357 73.7554 78.549 73.7656C78.7544 73.7758 78.9735 73.6312 78.943 73.3558C78.9125 73.0803 79.2625 72.6298 79.5369 72.8387C79.8112 73.0475 80.0732 73.2395 80.4006 73.2338L80.597 73.3106L81.0972 73.3964C81.1785 73.6256 80.7822 74.1641 81.0995 74.4351C81.2349 74.5503 81.4145 74.539 81.5443 74.4667C81.6911 74.3832 81.7577 74.2635 81.7407 74.0479C81.7204 73.7882 82.0637 73.4009 82.3132 73.5861C82.7896 73.9395 83.23 74.1258 83.2683 73.813C83.3677 74.0829 83.8024 74.0422 83.9921 74.2567C83.9175 74.4114 83.8825 74.6067 83.8543 74.8156C83.8171 75.0922 83.9604 75.3203 84.228 75.3022C84.7734 75.2661 84.4087 74.2342 85.1143 74.2692C85.2746 74.2771 85.3006 74.5164 85.3672 74.5683C85.5682 74.7264 85.8843 74.74 86.0887 74.7953C86.2614 74.8416 86.4093 74.8788 86.5866 74.828C86.5629 74.9138 86.6374 75.0053 86.7932 75.0143L86.6442 75.5811C86.5945 75.7696 86.6747 75.9537 86.8079 76.0237C86.9535 76.0993 87.1455 76.0925 87.2651 75.9943C87.3577 75.9187 87.4243 75.7617 87.4006 75.5766C87.3713 75.3508 87.736 74.898 87.9482 75.0775C88.261 75.3406 88.4676 75.4987 88.8898 75.5077L89.6926 75.8227C89.574 75.9729 89.4216 76.7474 89.8777 76.8705C90.0595 76.919 90.2176 76.7801 90.3147 76.604C90.6331 76.4956 90.7945 76.1208 91.0666 76.1772L91.735 76.3172C91.7723 76.2043 91.7429 76.1219 91.7361 76.0203C92.0749 75.8633 91.9202 76.3274 92.4136 76.5013C92.7286 76.613 92.9691 76.8569 93.0131 77.1505C93.056 77.4282 93.0232 77.7376 92.7986 77.9735L91.2845 79.5564L89.565 81.3629L87.7201 83.2936L85.7884 85.3089L83.2785 87.9113C82.6982 88.5131 82.0072 88.9557 81.1164 88.7039L66.4411 84.5412C66.02 84.4215 65.9714 83.9461 65.9737 83.6074L67.1253 82.4219C67.2777 82.265 67.4787 82.1657 67.4979 81.9432C67.6052 81.9398 67.6707 81.906 67.7711 81.8055L68.61 80.9677L68.8957 80.585L69.3145 80.2384L73.1386 76.4414C73.2617 76.3195 73.3294 76.2055 73.3779 76.0892C73.4649 76.053 73.5857 75.9943 73.6896 75.8905L76.4252 73.1819L76.7493 72.8556C77.1512 72.4525 77.8681 72.4164 78.3593 72.7416L78.3627 72.7382ZM83.2943 85.6194L84.4606 84.3876L86.5256 82.1747L90.2605 78.1147C90.3542 78.0119 90.3429 77.8448 90.2898 77.7545C90.2469 77.6834 90.1498 77.575 90.0155 77.5366L85.1787 76.1806L81.2948 75.1137L80.2414 74.8235L77.5475 74.1201L75.0523 76.6593L73.4626 78.3427L72.2365 79.5576L70.6818 81.1879L68.9882 82.9311C68.855 83.0689 68.7805 83.2044 68.846 83.3974C68.8855 83.5137 68.9882 83.5871 69.1745 83.6402L81.3433 87.1379C81.5104 87.1865 81.7611 87.2 81.8683 87.0894L83.2943 85.6194Z" fill="#F6F8FB"/>
<path d="M93.7436 78.7572C93.7166 78.834 93.6601 78.992 93.5675 79.0857L83.1149 89.4932C82.5741 90.0318 81.6392 89.9697 80.9765 89.7834L72.7875 87.4802L66.6252 85.7595C66.2256 85.6477 65.7943 85.4727 65.6226 85.1182C65.3551 84.5638 65.5865 84.005 65.9749 83.6053C65.9726 83.9451 66.0212 84.4193 66.4423 84.539L81.1176 88.7018C82.0084 88.9547 82.6994 88.511 83.2797 87.9092L85.7896 85.3068L87.7214 83.2914L89.5662 81.3608L91.2857 79.5543L92.7998 77.9714C93.0245 77.7365 93.0561 77.4272 93.0143 77.1483C93.3711 77.1686 93.6816 77.443 93.7662 77.8461C93.8295 78.143 93.8193 78.5088 93.7425 78.7561L93.7436 78.7572Z" fill="#728DCD"/>
<path d="M72.1401 55.6062C72.5387 55.6073 72.7532 56.0295 72.6922 56.401L72.4009 58.1883C72.3546 58.4694 72.06 58.8363 71.7675 58.8442L68.9686 58.9097L65.4912 58.9809L64.2233 59.0272C63.8564 59.0407 63.5752 58.6839 63.6497 58.3317L64.0189 56.5963C64.0878 56.2746 64.2526 55.7857 64.6297 55.7676L66.7862 55.6592C67.0843 54.3823 68.0067 54.3179 69.3277 54.4568C69.8786 54.5144 70.1801 55.0541 70.1767 55.5994L72.139 55.6073L72.1401 55.6062Z" fill="#343F5E"/>
<path d="M65.6222 85.1182C65.7927 85.4727 66.224 85.6477 66.6248 85.7595L72.7871 87.4802L80.976 89.7834C81.6388 89.9697 82.5736 90.0318 83.1144 89.4932L93.5671 79.0857C93.6608 78.9932 93.7161 78.8351 93.7432 78.7572C94.1824 78.9593 94.3732 79.7677 93.951 80.1651L90.8608 83.0701L89.3942 84.4589L88.0145 85.7651L86.4598 87.2306L85.2032 88.4071L83.5209 90.0137C82.9699 90.5399 82.0689 90.7916 81.238 90.5771L66.0614 86.6706C65.4924 86.5239 65.2192 85.9187 65.3354 85.4298C65.3772 85.2526 65.4709 85.178 65.6245 85.1182H65.6222Z" fill="#C4D2F8"/>
<path d="M51.7302 79.9878C51.9526 80.5715 52.4799 80.9532 53.1596 80.9362L68.8973 80.5817L68.6116 80.9644L67.7728 81.8022C67.6723 81.9027 67.6079 81.9365 67.4995 81.9399L63.6574 82.0607L59.5556 82.1454L53.5739 82.1996C52.9383 82.2053 52.3377 82.1206 51.8318 81.7604C51.326 81.4003 51.1341 80.7691 51.413 80.2125C51.4762 80.0872 51.6026 80.0149 51.7302 79.9867V79.9878Z" fill="#C4D2F8"/>
<path d="M95.7494 57.004L94.2918 65.0924C94.1834 65.6964 93.8086 66.2621 93.0657 66.1131L84.6137 64.4195C84.2253 64.3416 83.9543 64.2569 83.7827 63.9239C83.636 63.6405 83.6913 63.2589 83.8572 62.9901L84.3292 63.3672L91.0662 64.5719L94.3607 62.2845L95.527 57.2896C95.5643 57.1282 95.6343 57.0209 95.7483 57.0017L95.7494 57.004Z" fill="#C4D2F8"/>
<path d="M79.0496 41.8116C78.6883 41.4436 78.6476 40.7142 79.0462 40.3845L81.7062 38.1795C82.0889 37.8623 82.6885 37.9989 82.982 38.306C83.3365 38.6774 83.3094 39.2239 83.026 39.6868L80.2994 41.8816C79.9472 42.165 79.4018 42.1707 79.0507 41.8128L79.0496 41.8116Z" fill="#2E67FC"/>
<path d="M84.1098 47.2468L80.7622 46.9375C80.2395 46.8889 79.9301 46.3775 79.9572 45.9191C79.9843 45.4607 80.3129 44.9278 80.8525 44.9786L84.2769 45.3026C84.7489 45.3478 84.9837 45.9292 84.96 46.3154C84.9318 46.7772 84.6326 47.1215 84.1109 47.2468H84.1098Z" fill="#FCC23D"/>
<path d="M82.6549 51.6242C83.0772 51.9426 82.8909 52.6347 82.6425 52.9068C82.3004 53.2816 81.7382 53.3437 81.3193 53.0174L78.937 51.1613C78.5712 50.8756 78.6931 50.1847 78.9415 49.908C79.2068 49.6134 79.7285 49.4124 80.1123 49.7026L82.6561 51.6242H82.6549Z" fill="#5DDEE5"/>
<path d="M88.8891 75.5044C88.4657 75.4954 88.2591 75.3373 87.9475 75.0743C87.7341 74.8948 87.3706 75.3475 87.3999 75.5733C87.4236 75.7585 87.357 75.9154 87.2644 75.9911C87.1447 76.0893 86.9528 76.0961 86.8072 76.0204C86.6739 75.9515 86.5938 75.7664 86.6434 75.5778L86.7925 75.011C86.6367 75.0031 86.5622 74.9106 86.5859 74.8248L86.6468 74.8067C86.9325 74.9704 87.0589 74.6283 87.2283 74.5188C87.5851 74.2873 88.066 74.2817 88.398 74.5052C88.7265 74.7277 88.888 75.0912 88.8891 75.5022V75.5044Z" fill="#728DCD"/>
<path d="M86.0864 74.7932C85.882 74.7379 85.5659 74.7244 85.3649 74.5663C85.2983 74.5132 85.2723 74.275 85.112 74.2671C84.4064 74.2321 84.7711 75.264 84.2257 75.3002C83.9581 75.3182 83.8148 75.0902 83.852 74.8135C83.8802 74.6047 83.9152 74.4094 83.9898 74.2547C84.246 73.7184 84.8636 73.3977 85.4451 73.6631C85.8978 73.8697 86.0695 74.345 86.0875 74.7932H86.0864Z" fill="#728DCD"/>
<path d="M83.2647 73.8108C83.2263 74.1236 82.7859 73.9373 82.3095 73.5839C82.06 73.3987 81.7168 73.786 81.7371 74.0457C81.754 74.2613 81.6874 74.3821 81.5406 74.4646C81.4119 74.5379 81.2313 74.5492 81.0958 74.4329C80.7774 74.162 81.1748 73.6234 81.0935 73.3942L81.0597 73.2983C81.1917 73.3457 81.2764 73.2892 81.3769 73.1684C81.6772 72.8037 82.1661 72.7145 82.6087 72.8997C82.9553 73.0442 83.1247 73.4326 83.2635 73.8097L83.2647 73.8108Z" fill="#728DCD"/>
<path d="M91.7374 76.0181C91.743 76.1197 91.7735 76.2021 91.7363 76.315L91.0679 76.175C91.0848 76.0034 90.9979 75.8329 90.8624 75.7979C90.6998 75.7561 90.5632 75.8318 90.4548 75.9582C90.2956 76.1423 90.29 76.3726 90.3159 76.6006C90.22 76.7768 90.0608 76.9156 89.879 76.8671C89.4217 76.744 89.5753 75.9695 89.6938 75.8193L89.9682 75.4705C90.2369 75.1295 90.6908 75.029 91.0848 75.1803C91.4213 75.3101 91.7114 75.589 91.7374 76.0181Z" fill="#728DCD"/>
<path d="M80.3984 73.2327C80.0721 73.2395 79.8012 73.0408 79.5347 72.8375C79.2683 72.6343 78.9092 73.078 78.9408 73.3546C78.9724 73.6313 78.7523 73.7747 78.5468 73.7645C78.356 73.7555 78.1686 73.5692 78.2092 73.3321C78.2465 73.1187 78.2724 72.8985 78.3605 72.7371C78.6665 72.1771 79.3247 71.8643 79.9208 72.2143C80.281 72.4254 80.4266 72.8692 80.3973 73.2316L80.3984 73.2327Z" fill="#728DCD"/>
<path d="M87.2283 74.5199C87.0589 74.6295 86.9314 74.9716 86.6468 74.8079C86.5565 74.564 86.8964 74.2659 87.0691 74.3258C87.1256 74.345 87.1865 74.4274 87.2283 74.5199Z" fill="#F6F8FB"/>
<path d="M81.0607 73.2993L81.0946 73.3953L80.5944 73.3095C80.5515 73.1119 80.713 73.0927 80.8643 73.1356C80.9456 73.1582 81.028 73.209 81.0607 73.2993Z" fill="#C4D2F8"/>
<path d="M95.7741 56.8428C95.7492 56.8541 95.6813 56.827 95.6915 56.81L95.7741 56.6821V56.8428Z" fill="#C4D2F8"/>
<path d="M95.8553 56.1867C95.7523 56.189 95.7693 56.0815 95.8587 56.0973L95.8553 56.1867Z" fill="#C4D2F8"/>
<path d="M63.6509 58.3329C63.5764 58.684 63.8575 59.0419 64.2245 59.0284L65.4924 58.9821L68.9698 58.9109L71.7687 58.8455C72.0612 58.8387 72.3558 58.4717 72.4021 58.1895L75.7238 58.1025C75.9439 58.098 76.1528 58.1545 76.2634 58.2967C76.3605 58.4232 76.4712 58.6592 76.4023 58.8884L72.1887 72.9472L70.7052 77.9387C70.5866 78.3361 70.082 78.5856 69.689 78.5935L66.3121 78.6658L54.7643 78.9311C54.3872 78.9401 53.9785 78.5585 54.0823 78.1882L56.4341 69.7904L59.4972 59.0216C59.6067 58.6355 60.1001 58.3938 60.4422 58.3893L63.6487 58.334L63.6509 58.3329ZM62.8504 65.1692C63.1621 65.1647 63.4974 65.0619 63.5764 64.7853L64.3826 61.9695C64.4627 61.6884 64.2324 61.4264 63.9558 61.4332L61.4572 61.4863C61.1377 61.4931 60.8904 61.6895 60.8046 61.991L60.0628 64.6002C59.994 64.8429 60.1058 65.211 60.3835 65.2065L62.8504 65.1692ZM69.1607 63.6924L72.0747 63.6224C72.3287 63.6168 72.4778 63.3232 72.5241 63.1674C72.567 63.0229 72.506 62.6345 72.2723 62.6379L68.7926 62.6819L65.716 62.7644C65.4303 62.7723 65.2485 62.9574 65.1537 63.1403C65.0803 63.2803 65.0905 63.7613 65.3219 63.7579L69.1618 63.6924H69.1607ZM61.3353 70.5028C61.7429 70.496 62.0296 70.321 62.1301 69.9552L62.8448 67.3279C62.9114 67.0829 62.7793 66.8063 62.5151 66.8086L60.1159 66.83C59.6496 66.8345 59.3628 67.0107 59.2341 67.4747L58.5285 70.0286C58.4924 70.1607 58.5567 70.3244 58.6086 70.4034C58.6651 70.4904 58.7904 70.5423 58.9361 70.5401L61.3341 70.5028H61.3353ZM70.4444 68.9357C70.7345 68.9278 70.8745 68.6049 70.9208 68.4536C70.9671 68.3023 70.8395 67.9297 70.5866 67.9365L64.0122 68.125C63.7627 68.1318 63.6329 68.4491 63.5855 68.5992C63.538 68.7494 63.6532 69.1141 63.9061 69.1073L70.4444 68.9357ZM59.7512 75.8657C60.0391 75.8612 60.4354 75.7607 60.5133 75.4819L61.2879 72.718C61.333 72.5554 61.2879 72.3691 61.2054 72.2584C61.1309 72.158 60.9616 72.1241 60.7888 72.1297L58.2428 72.2088C57.9719 72.2167 57.7811 72.6051 57.7178 72.8297L57.0043 75.4017C56.9693 75.5259 57.0438 75.6998 57.0969 75.7743C57.1556 75.8556 57.2843 75.9053 57.4265 75.903L59.7524 75.8657H59.7512ZM68.8287 74.2772C69.1031 74.2693 69.2205 73.9678 69.2679 73.8267C69.3097 73.7014 69.2566 73.3254 69.0658 73.3265L66.1597 73.3514L62.4248 73.5027C62.2058 73.5117 62.1109 73.8289 62.0522 73.9577C61.9935 74.0864 62.1313 74.4646 62.339 74.459L68.831 74.2772H68.8287Z" fill="#F6F8FB"/>
<path d="M73.0415 57.9997C72.9151 58.0573 72.7818 58.037 72.6588 58.0302C72.6339 58.0088 72.6147 57.9884 72.6147 57.9862C72.7547 57.9218 72.9681 57.9207 73.0415 57.9997Z" fill="#343F5E"/>
<path d="M83.2934 85.6195L81.8674 87.0895C81.7602 87.2002 81.5095 87.1866 81.3424 87.1381L69.1736 83.6403C68.9874 83.5872 68.8846 83.5139 68.8451 83.3976C68.7796 83.2034 68.853 83.0679 68.9874 82.9313L70.6809 81.188L72.2356 79.5577L73.4617 78.3428L75.0514 76.6594L77.5466 74.1202L80.2405 74.8236L81.2939 75.1138L85.1778 76.1807L90.0146 77.5367C90.149 77.574 90.2461 77.6824 90.289 77.7546C90.3432 77.8449 90.3544 78.012 90.2596 78.1148L86.5247 82.1748L84.4597 84.3877L83.2934 85.6195ZM78.9308 78.1261L80.4437 76.5183C80.7542 76.1886 81.1053 75.9459 81.2939 75.4954L80.2157 75.194L77.6471 74.5086L75.8045 76.4043L75.2377 77.0219L75.9298 77.2861L78.9319 78.1261H78.9308ZM83.2483 79.3556L84.4089 78.0425L85.6655 76.6798L83.1354 75.973L81.7376 75.6343L79.3926 78.2785L83.2483 79.3567V79.3556ZM87.4935 80.5671L89.9559 77.889L85.9884 76.8107L84.4021 78.6262L83.6299 79.4685L87.4935 80.5671ZM75.9998 81.3111L78.6587 78.423L77.0103 77.9737L74.8855 77.3651L73.6943 78.5845L72.0821 80.2024L74.6066 80.9554L75.9987 81.3122L75.9998 81.3111ZM80.1942 82.5722L81.5118 81.1925L82.9005 79.6966L79.0223 78.5687L77.3129 80.4271L76.3329 81.4601L80.1942 82.5711V82.5722ZM84.401 83.8887L85.4962 82.745L87.1886 80.8843L83.36 79.7982L82.4207 80.7646L80.6108 82.7145L82.7221 83.3332L84.401 83.891V83.8887ZM73.1016 84.39L75.6013 81.6577L71.8619 80.5321C71.6801 80.558 71.5627 80.8313 71.4487 80.9487L69.1928 83.2801L73.1016 84.3911V84.39ZM77.4213 85.6048L79.8894 82.885L76.0529 81.7469L74.7556 83.1661L73.4911 84.5006L77.4213 85.6048ZM81.6224 86.849L82.852 85.554L84.1605 84.1506L80.2936 83.0092L78.5221 84.9173L77.7713 85.7527L81.6236 86.8502L81.6224 86.849Z" fill="#E9ECFC"/>
<path d="M91.0674 76.1751C90.7953 76.1175 90.6327 76.4935 90.3154 76.6019C90.2895 76.3738 90.2951 76.1435 90.4543 75.9595C90.5638 75.833 90.6993 75.7574 90.8619 75.7992C90.9974 75.8342 91.0843 76.0046 91.0674 76.1762V76.1751Z" fill="#C4D2F8"/>
<path d="M69.1604 63.6925L65.3205 63.758C65.0891 63.7614 65.0789 63.2804 65.1523 63.1404C65.2471 62.9586 65.4289 62.7723 65.7145 62.7644L68.7912 62.682L72.2709 62.638C72.5046 62.6346 72.5656 63.0241 72.5227 63.1675C72.4764 63.3222 72.3273 63.6157 72.0733 63.6225L69.1592 63.6925H69.1604Z" fill="#C4D2F8"/>
<path d="M70.4446 68.9357L63.9063 69.1073C63.6534 69.1141 63.5382 68.7471 63.5856 68.5992C63.6331 68.4513 63.7629 68.1318 64.0124 68.125L70.5868 67.9365C70.8397 67.9297 70.9673 68.3023 70.921 68.4536C70.8747 68.6049 70.7347 68.9278 70.4446 68.9357Z" fill="#C4D2F8"/>
<path d="M68.8285 74.2772L62.3365 74.459C62.1288 74.4646 61.991 74.0864 62.0497 73.9577C62.1085 73.829 62.2033 73.5117 62.4223 73.5027L66.1572 73.3514L69.0633 73.3265C69.2553 73.3254 69.3072 73.7014 69.2654 73.8267C69.2191 73.9678 69.1006 74.2693 68.8262 74.2772H68.8285Z" fill="#C4D2F8"/>
<path d="M61.3352 70.5027L58.9371 70.54C58.7915 70.5422 58.6662 70.4892 58.6097 70.4033C58.5578 70.3243 58.4934 70.1606 58.5296 70.0285L59.2352 67.4746C59.3628 67.0117 59.6496 66.8345 60.117 66.8299L62.5162 66.8085C62.7804 66.8062 62.9125 67.0828 62.8459 67.3278L62.1312 69.9551C62.0318 70.3221 61.7439 70.4959 61.3364 70.5027H61.3352ZM61.6085 70.0037L62.3875 67.2646L59.7896 67.338L59.0139 70.0872L61.6085 70.0037Z" fill="#61B5FC"/>
<path d="M62.8499 65.1692L60.3829 65.2064C60.1052 65.211 59.9934 64.8418 60.0623 64.6002L60.8041 61.9909C60.8899 61.6895 61.136 61.493 61.4566 61.4863L63.9552 61.4332C64.2318 61.4275 64.4621 61.6895 64.382 61.9695L63.5758 64.7853C63.4968 65.0619 63.1615 65.1635 62.8499 65.1692ZM63.1479 64.6566L63.9089 61.9413L61.3923 61.983C61.2726 62.0372 61.2139 62.2721 61.1845 62.3793L60.5512 64.721L63.1468 64.6577L63.1479 64.6566Z" fill="#61B5FC"/>
<path d="M59.7508 75.8657L57.4249 75.903C57.2827 75.9052 57.154 75.8556 57.0953 75.7743C57.0422 75.6998 56.9677 75.5259 57.0027 75.4017L57.7162 72.8297C57.7783 72.6051 57.9691 72.2167 58.2412 72.2088L60.7872 72.1297C60.9611 72.1241 61.1293 72.1591 61.2038 72.2584C61.2862 72.3691 61.3314 72.5554 61.2863 72.718L60.5117 75.4819C60.4338 75.7607 60.0375 75.8612 59.7496 75.8657H59.7508ZM60.0556 75.3486L60.8346 72.622L58.2604 72.6762L57.4814 75.4254L60.0556 75.3486Z" fill="#61B5FC"/>
<path d="M80.1938 82.5722L76.3325 81.4612L77.3125 80.427L79.0219 78.5686L82.9013 79.6965L81.5114 81.1925L80.1938 82.5722Z" fill="#F6F8FB"/>
<path d="M73.1016 84.3899L69.1929 83.279L71.4487 80.9475C71.5627 80.8301 71.6813 80.5569 71.8619 80.5309L75.6013 81.6565L73.1016 84.3888V84.3899Z" fill="#F6F8FB"/>
<path d="M77.4214 85.6049L73.4912 84.5007L74.7557 83.1662L76.053 81.7469L79.8895 82.8839L77.4214 85.6049Z" fill="#F6F8FB"/>
<path d="M87.494 80.5671L83.6304 79.4686L84.4026 78.6263L85.9901 76.8108L89.9564 77.889L87.494 80.5671Z" fill="#F6F8FB"/>
<path d="M83.2487 79.3555L79.3931 78.2773L81.7381 75.6331L83.1358 75.9718L85.666 76.6785L84.4094 78.0413L83.2487 79.3555Z" fill="#F6F8FB"/>
<path d="M78.931 78.126L75.9289 77.286L75.2368 77.0218L75.8036 76.4042L77.6462 74.5085L80.2148 75.1939L81.293 75.4953C81.1056 75.9458 80.7533 76.1874 80.4428 76.5182L78.9299 78.126H78.931Z" fill="#F6F8FB"/>
<path d="M81.6228 86.8491L77.7705 85.7516L78.5213 84.9161L80.2928 83.0081L84.1597 84.1495L82.8512 85.5529L81.6217 86.8479L81.6228 86.8491ZM81.738 85.4931C82.0575 85.1736 81.9186 84.6937 81.5562 84.4927C80.9521 84.1586 79.9123 84.5481 79.8321 85.1092C79.8017 85.3203 79.8231 85.5676 80.0252 85.6986C80.5491 86.035 81.2717 85.9582 81.7368 85.4919L81.738 85.4931Z" fill="#F6F8FB"/>
<path d="M75.9996 81.311L74.6075 80.9542L72.083 80.2012L73.6953 78.5833L74.8864 77.3639L77.0113 77.9724L78.6597 78.4218L76.0008 81.3099L75.9996 81.311ZM75.399 80.69C75.7467 80.506 75.7648 80.0826 75.9917 79.8726L76.8645 79.6525C76.983 79.622 77.0666 79.5858 77.0677 79.4718C77.0677 79.4041 77.0361 79.3352 76.9469 79.2957L76.2887 78.9987C76.3406 78.7052 76.4479 78.4252 76.3146 78.1779L75.2827 78.6589L74.2022 78.5189C74.113 78.7537 74.2575 79.0349 74.3885 79.2731C74.1311 79.6694 73.5598 79.7846 73.6377 80.0499C73.6625 80.1323 73.7529 80.1571 73.8703 80.1504L74.8729 80.0973C75.0309 80.2994 75.1551 80.5794 75.4001 80.6912L75.399 80.69Z" fill="#F6F8FB"/>
<path d="M84.401 83.8887L82.7221 83.3309L80.6108 82.7122L82.4207 80.7624L83.3601 79.7959L87.1886 80.882L85.4962 82.7427L84.401 83.8864V83.8887ZM85.7807 81.1711C85.4285 80.8335 84.9418 80.9103 84.5094 81.0717C84.4067 80.6449 84.1018 80.4812 83.6897 80.4835C83.3318 80.4846 83.0112 80.5986 82.7797 80.8301C82.3067 81.3009 82.5189 82.1725 82.9559 82.8917C83.8489 82.8003 84.7476 82.6388 85.503 82.1883C85.8631 81.9738 86.1002 81.477 85.7807 81.1711Z" fill="#F6F8FB"/>
<path d="M61.6082 70.0038L59.0137 70.0874L59.7893 67.3382L62.3872 67.2648L61.6082 70.0038ZM59.7509 68.8409C59.944 69.1311 60.0592 69.4156 60.3595 69.6041L61.7798 68.3419C61.93 68.2087 61.9289 68.0077 61.7889 67.8925C61.6872 67.809 61.5134 67.8485 61.3937 67.9569L60.6045 68.6783C60.2759 68.9798 60.3279 68.3001 59.9384 68.3995C59.7532 68.4469 59.6154 68.6388 59.7498 68.8409H59.7509Z" fill="#F6F8FB"/>
<path d="M63.1489 64.6567L60.5532 64.7199L61.1866 62.3783C61.216 62.271 61.2747 62.0362 61.3944 61.982L63.911 61.9402L63.15 64.6555L63.1489 64.6567ZM61.8742 64.2547L63.2821 63.0466C63.4413 62.91 63.4797 62.7328 63.3837 62.6029C63.255 62.4291 63.0586 62.4426 62.9061 62.5871L61.9623 63.4858C61.8448 63.2363 61.7353 63.0895 61.575 63.0557C61.4632 63.032 61.1889 63.1686 61.225 63.3402C61.2961 63.6823 61.5987 64.0187 61.8742 64.2558V64.2547Z" fill="#F6F8FB"/>
<path d="M60.0557 75.3486L57.4814 75.4254L58.2605 72.6761L60.8347 72.6219L60.0557 75.3486ZM58.2582 74.2331L58.7798 74.9466L60.1471 73.76C60.2724 73.6516 60.3639 73.5726 60.3515 73.436C60.3402 73.3084 60.1652 73.104 60.0421 73.2113L58.939 74.1766L58.6308 73.7781C58.5224 73.637 58.3361 73.7397 58.2548 73.839C58.1656 73.9486 58.1555 74.092 58.2582 74.2331Z" fill="#F6F8FB"/>
<path d="M81.7382 85.4931C81.273 85.9583 80.5504 86.0362 80.0266 85.6997C79.8245 85.5699 79.803 85.3215 79.8335 85.1104C79.9137 84.5481 80.9535 84.1586 81.5575 84.4939C81.92 84.6938 82.0588 85.1747 81.7393 85.4942L81.7382 85.4931Z" fill="#61B5FC"/>
<path d="M75.3995 80.6901C75.1545 80.5783 75.0303 80.2983 74.8723 80.0962L73.8697 80.1493C73.7534 80.1561 73.662 80.1312 73.6371 80.0488C73.5592 79.7835 74.1305 79.6683 74.3879 79.2721C74.257 79.0338 74.1124 78.7527 74.2016 78.5178L75.2821 78.6579L76.3141 78.1769C76.4473 78.4253 76.3412 78.7053 76.2881 78.9977L76.9463 79.2946C77.0344 79.3341 77.0671 79.4041 77.0671 79.4708C77.0671 79.5848 76.9825 79.6221 76.8639 79.6514L75.9912 79.8716C75.7642 80.0816 75.7462 80.505 75.3984 80.689L75.3995 80.6901Z" fill="#4F84FC"/>
<path d="M85.7804 81.171C86.0999 81.477 85.8628 81.9737 85.5027 82.1883C84.7474 82.6387 83.8486 82.8002 82.9556 82.8916C82.5186 82.1725 82.3064 81.3008 82.7794 80.83C83.0109 80.5997 83.3315 80.4857 83.6894 80.4834C84.1015 80.4823 84.4053 80.646 84.5091 81.0716C84.9416 80.9091 85.4282 80.8323 85.7804 81.171Z" fill="#FCC23D"/>
<path d="M59.7503 68.8409C59.6159 68.6388 59.7525 68.4468 59.9388 68.3994C60.3283 68.2989 60.2764 68.9786 60.605 68.6783L61.3942 67.9568C61.5127 67.8484 61.6866 67.8089 61.7893 67.8925C61.9305 68.0076 61.9304 68.2086 61.7803 68.3418L60.36 69.6041C60.0585 69.4156 59.9445 69.1322 59.7514 68.8409H59.7503Z" fill="#61B5FC"/>
<path d="M61.8737 64.2547C61.5982 64.0187 61.2956 63.6823 61.2245 63.3391C61.1883 63.1674 61.4616 63.0308 61.5745 63.0545C61.7348 63.0884 61.8443 63.2352 61.9617 63.4847L62.9056 62.586C63.0569 62.4415 63.2545 62.4279 63.3832 62.6018C63.4803 62.7328 63.4408 62.9089 63.2816 63.0455L61.8737 64.2536V64.2547Z" fill="#61B5FC"/>
<path d="M58.2588 74.2331C58.1561 74.0931 58.1674 73.9497 58.2554 73.8391C58.3356 73.7397 58.5219 73.637 58.6314 73.7781L58.9396 74.1767L60.0427 73.2114C60.1646 73.1041 60.3396 73.3085 60.3521 73.436C60.3645 73.5727 60.273 73.6506 60.1477 73.7601L58.7804 74.9467L58.2588 74.2331Z" fill="#61B5FC"/>
<path d="M92.3557 61.9728L94.3315 62.3082L94.362 62.2867L95.5283 57.2918C95.5655 57.1304 95.6356 57.0231 95.7496 57.0039L95.7744 56.8425C95.7496 56.8538 95.6818 56.8267 95.692 56.8097L95.7744 56.6822L95.8557 56.1865C95.753 56.1888 95.7699 56.0815 95.8591 56.0973L95.8501 55.5283C95.8444 55.1388 95.5531 54.9728 95.1896 54.9107L86.4587 53.4305C86.0545 53.3616 85.7689 53.6247 85.6864 54.0086L83.9872 61.9333C83.9048 62.3183 83.8168 62.6401 83.8574 62.9924L84.3293 63.3695L91.0663 64.5741L91.1634 64.5064L91.5823 62.5509C91.6647 62.167 91.9504 61.9051 92.3546 61.9728H92.3557Z" fill="#5DDEE5"/>
<path d="M92.3552 61.9729C91.951 61.904 91.6654 62.1671 91.5829 62.5509L91.1641 64.5064L94.331 62.3082L92.3552 61.9729Z" fill="#57B2B2"/>
<path d="M73.185 32.4151C72.9592 32.4952 72.7447 32.4218 72.6149 32.3134C72.4782 32.1994 72.38 31.9431 72.4455 31.7218L73.1037 29.5213C70.4765 26.3194 69.8668 22.1001 71.6913 18.3912C72.73 16.2799 74.3671 14.6123 76.492 13.6256C80.4899 11.7694 85.1845 12.693 88.1448 15.9751C91.961 20.2045 91.5839 26.6242 87.4527 30.4212C84.1853 33.4244 79.2796 33.981 75.4567 31.6089L73.1839 32.4139L73.185 32.4151ZM81.2927 16.8885L81.3469 15.7549C81.3615 15.4411 81.1369 15.2153 80.8738 15.1938C80.6277 15.1735 80.3205 15.3101 80.3194 15.6036L80.3149 16.8388C80.3149 17.1019 80.5893 17.2453 80.7993 17.2408C80.9799 17.2374 81.2802 17.1493 81.2927 16.8874V16.8885ZM77.1513 17.8967L76.5055 17.1595C76.2989 16.9235 75.9805 16.9404 75.8055 17.0917C75.5673 17.2983 75.5357 17.6179 75.7367 17.8448L76.2583 18.4319C76.4592 18.6588 76.7246 18.7604 77.0136 18.608C77.201 18.5098 77.3625 18.1395 77.1513 17.8967ZM85.2149 18.6543L85.7964 18.0932C86.0188 17.8787 86.1035 17.5851 85.9251 17.3401C85.7795 17.1403 85.3979 17.024 85.1811 17.2475L84.3806 18.0751C84.1886 18.2738 84.3332 18.6317 84.5138 18.7446C84.7295 18.8812 84.9914 18.8688 85.2149 18.6532V18.6543ZM78.2668 27.2971C78.0794 27.3863 77.9857 27.6641 77.9812 27.821C77.9755 28.0208 78.0557 28.2466 78.268 28.3912C78.0286 28.6136 77.9868 28.8541 78.0523 29.1104C78.1178 29.3666 78.3809 29.5179 78.723 29.4987C78.8404 30.3037 79.4557 30.6944 80.2076 30.6899C80.858 30.6865 81.3559 30.4144 81.5309 29.7223C81.8617 29.7934 82.1338 29.6692 82.249 29.4581C82.3878 29.2029 82.3494 28.9015 82.1552 28.635C82.337 28.4724 82.477 28.3189 82.4849 28.1258C82.4928 27.9124 82.4093 27.7453 82.2501 27.5636C82.5922 27.2542 82.5572 26.4198 83.1567 25.9773C84.2293 25.1847 84.892 24.0082 84.953 22.7313C85.0174 21.3753 84.4788 20.1288 83.4243 19.2414C82.1519 18.1711 80.3872 17.9351 78.8415 18.6441C77.4697 19.273 76.4829 20.6437 76.352 22.2593C76.2639 23.3545 76.6241 24.4158 77.3523 25.2456C77.7531 25.7018 78.032 26.1861 78.0941 26.806L78.2668 27.2971ZM75.075 22.4355C75.3449 22.4321 75.4047 22.0697 75.3889 21.8822C75.3754 21.7287 75.2726 21.478 75.0468 21.4735L73.8749 21.4498C73.6028 21.4442 73.4458 21.7298 73.4436 21.9556C73.4413 22.1656 73.6107 22.4524 73.8794 22.449L75.075 22.4343V22.4355ZM87.5724 22.746C87.8479 22.7414 87.8874 22.3926 87.8704 22.1995C87.8569 22.0516 87.7733 21.8111 87.5453 21.7885C87.1185 21.7456 86.6624 21.7242 86.2379 21.7851C85.968 21.8235 85.8845 22.1295 85.9172 22.3372C85.9499 22.545 86.099 22.7719 86.3846 22.7674L87.5713 22.7471L87.5724 22.746Z" fill="#FFF7DB"/>
<path d="M82.2505 27.5636L78.2673 27.2971L78.0945 26.806C78.0324 26.185 77.7524 25.7018 77.3527 25.2457C76.6245 24.4158 76.2643 23.3545 76.3524 22.2594C76.4822 20.6437 77.4702 19.273 78.8419 18.6442C80.3876 17.9351 82.1523 18.1711 83.4247 19.2414C84.4792 20.1289 85.0178 21.3753 84.9534 22.7313C84.8925 24.0082 84.2297 25.1836 83.1571 25.9773C82.5587 26.4199 82.5937 27.2554 82.2505 27.5636Z" fill="#FCC23D"/>
<path d="M82.2506 27.5635C82.4098 27.7452 82.4934 27.9112 82.4855 28.1257C82.4776 28.3188 82.3376 28.4723 82.1558 28.6349C82.3488 28.9014 82.3884 29.2028 82.2495 29.458C82.1343 29.6691 81.8622 29.7922 81.5314 29.7222C81.3564 30.4143 80.8585 30.6852 80.2082 30.6898C79.4562 30.6943 78.8421 30.3048 78.7235 29.4986C78.3814 29.5178 78.1161 29.3609 78.0529 29.1102C77.9896 28.8596 78.0291 28.6135 78.2685 28.391C78.0562 28.2465 77.9761 28.0196 77.9817 27.8209C77.9862 27.6639 78.0799 27.3873 78.2674 27.297L82.2506 27.5635Z" fill="#4F5873"/>
<path d="M81.2932 16.8885C81.2808 17.1505 80.9804 17.2385 80.7998 17.2419C80.5898 17.2453 80.3143 17.103 80.3154 16.84L80.3199 15.6048C80.3199 15.3113 80.6282 15.1746 80.8743 15.195C81.1374 15.2164 81.3621 15.4411 81.3474 15.7561L81.2932 16.8897V16.8885Z" fill="#FCC23D"/>
<path d="M85.2143 18.6543C84.9908 18.87 84.7288 18.8813 84.5132 18.7458C84.3326 18.6317 84.188 18.275 84.38 18.0762L85.1805 17.2487C85.3972 17.0251 85.7777 17.1414 85.9245 17.3412C86.1029 17.5862 86.0182 17.8798 85.7958 18.0943L85.2143 18.6554V18.6543Z" fill="#FCC23D"/>
<path d="M87.5733 22.746L86.3867 22.7663C86.101 22.7708 85.9531 22.5506 85.9192 22.3361C85.8854 22.1216 85.9689 21.8224 86.2399 21.784C86.6644 21.723 87.1205 21.7456 87.5473 21.7874C87.7743 21.81 87.8589 22.0505 87.8725 22.1984C87.8894 22.3903 87.8499 22.7392 87.5744 22.7448L87.5733 22.746Z" fill="#FCC23D"/>
<path d="M75.0753 22.4354L73.8797 22.4501C73.611 22.4535 73.4416 22.1667 73.4439 21.9567C73.4461 21.7298 73.6031 21.4452 73.8752 21.4509L75.0471 21.4746C75.2729 21.4791 75.3757 21.7298 75.3892 21.8833C75.405 22.0719 75.3452 22.4332 75.0753 22.4365V22.4354Z" fill="#FCC23D"/>
<path d="M77.1511 17.8967C77.3633 18.1395 77.2019 18.5087 77.0133 18.608C76.7243 18.7604 76.4601 18.6588 76.258 18.4319L75.7364 17.8448C75.5343 17.6178 75.567 17.2994 75.8053 17.0917C75.9803 16.9393 76.2987 16.9223 76.5053 17.1594L77.1511 17.8967Z" fill="#FCC23D"/>
<path d="M27.8834 34.3419C26.1368 37.4366 25.1794 40.8406 24.9186 44.3791C24.4049 44.3305 23.9668 44.4073 23.417 44.4479L7.55282 45.6447C6.88217 45.6955 6.38539 45.1152 6.24426 44.6297C6.14603 44.2921 6.15393 44.0234 6.12684 43.6463L5.28119 31.8433L4.6828 23.0888C4.62409 22.2284 5.07683 21.3218 6.00603 21.2495L13.7219 20.65C13.9025 20.7042 13.9556 20.7697 13.9545 21.0147C13.9522 21.4844 14.0764 22.2171 14.5032 22.5152C15.2675 23.0492 16.3063 22.8765 16.9769 22.3707C17.2343 22.1765 17.1722 21.9665 17.2659 21.805C17.5674 21.2845 17.8327 20.8228 17.7232 20.186C17.9976 20.3045 18.2821 20.2842 18.6151 20.2582L25.3725 19.7378C26.2949 19.6666 27.013 20.4762 26.9655 21.3907C26.9396 21.9033 27.0288 22.33 27.0615 22.8494L27.7671 34.08C27.7751 34.2121 27.757 34.2843 27.8834 34.3408V34.3419ZM15.4188 27.6309L15.4764 29.1856L11.1409 29.5051C10.7051 29.5367 10.3393 29.7749 10.3619 30.248L10.4624 31.6819L9.4417 31.7609C9.13573 31.7846 8.72702 31.9687 8.74847 32.3266L8.92008 35.2858C8.94266 35.6798 9.22492 35.8988 9.61218 35.8729L12.2699 35.69C12.5691 35.6696 12.9835 35.4879 12.962 35.13L12.7746 32.0296C12.7588 31.7609 12.4337 31.5566 12.192 31.5678L11.0065 31.6198L10.9445 30.4783C10.9343 30.1599 11.1206 30.0978 11.3848 30.0786L19.8887 29.4735C20.0073 29.4656 20.0818 29.4859 20.1439 29.5356C20.2116 29.5898 20.2218 29.7027 20.2297 29.828L20.3177 30.9706L18.7563 32.7895C18.5429 33.0379 18.6287 33.3054 18.8692 33.512L20.5458 34.964C20.5131 35.358 20.5977 35.7317 20.6327 36.224L14.3767 36.6948C13.8856 36.7321 13.6756 37.1724 13.7095 37.6218L13.8269 38.7598C13.2025 38.8208 12.7261 39.2961 12.4709 39.7523C12.1333 40.3574 12.139 41.0518 12.4224 41.6524C12.8051 42.4642 13.7151 42.8549 14.5574 42.7036C15.3996 42.5523 16.1109 41.8534 16.2013 40.9253C16.3164 39.7534 15.5193 38.8106 14.3609 38.7068L14.3146 37.2808L20.6565 36.8088L20.7366 38.21C20.0885 38.3534 19.5477 38.8626 19.3219 39.3673C19.0069 40.074 19.0713 40.8124 19.4868 41.4097C20.0242 42.1842 21.0245 42.4236 21.8826 42.069C22.7407 41.7145 23.2295 40.835 23.0997 39.8629C22.9811 38.98 22.2439 38.2935 21.3474 38.1942L21.0821 34.9245L22.6289 33.1316C22.8152 32.9148 22.7858 32.6528 22.5634 32.4541L20.8473 30.9107C20.8371 30.388 20.8642 29.8348 20.7186 29.3165C20.6237 28.9778 20.2173 28.8457 19.8977 28.8672L16.0669 29.1257L15.9834 27.5789L18.2064 27.4028C19.1548 27.3283 19.7261 26.3709 19.6561 25.4552C19.5929 24.6209 18.9019 23.7684 17.9671 23.8238L13.5491 24.0868C12.3659 24.1568 11.4266 24.9009 11.5191 26.1518C11.5835 27.0212 12.2699 27.8228 13.1754 27.7675L15.4177 27.6309H15.4188Z" fill="#F4F4F4"/>
<path d="M17.7237 20.1871C17.8332 20.8239 17.5679 21.2856 17.2665 21.8061C17.1355 21.8129 17.0395 21.8818 16.921 21.9597C16.4163 22.2927 15.801 22.2837 15.2319 22.0308C14.5997 21.7497 14.2835 21.0452 14.3163 20.379C14.358 19.5221 15.0931 18.8424 15.9421 18.7916C16.7911 18.7408 17.5781 19.3369 17.7237 20.1882V20.1871Z" fill="#2E67FC"/>
<path d="M14.317 20.3779C14.2854 21.0452 14.6004 21.7486 15.2327 22.0297C15.8017 22.2826 16.4159 22.2905 16.9217 21.9586C17.0403 21.8807 17.1362 21.8118 17.2672 21.805C17.1735 21.9665 17.2356 22.1765 16.9782 22.3707C16.3064 22.8765 15.2677 23.0492 14.5044 22.5152C14.0765 22.216 13.9523 21.4844 13.9557 21.0147C13.9569 20.7697 13.9038 20.7042 13.7231 20.65C13.7841 20.4287 14.072 20.4028 14.317 20.3779Z" fill="#C4D2F8"/>
<path d="M15.9852 27.5788L15.4195 27.6318L13.1773 27.7684C12.2718 27.8238 11.5853 27.0233 11.521 26.1528C11.4284 24.9018 12.3677 24.1578 13.551 24.0878L17.9689 23.8247C18.9037 23.7694 19.5936 24.6218 19.6579 25.4562C19.7279 26.3718 19.1566 27.3281 18.2083 27.4038L15.9852 27.5799V27.5788Z" fill="#AB97FB"/>
<path d="M10.4643 31.6819C10.6494 31.6672 10.8346 31.6909 11.0073 31.6198L12.1928 31.5679C12.4356 31.5577 12.7596 31.7609 12.7754 32.0296L12.9628 35.13C12.9843 35.4879 12.5711 35.6697 12.2707 35.69L9.61298 35.8729C9.22459 35.9 8.94346 35.6798 8.92088 35.2858L8.74927 32.3266C8.72894 31.9687 9.13653 31.7858 9.4425 31.7609L10.4631 31.6819H10.4643Z" fill="#61B5FC"/>
<path d="M21.3494 38.1929C22.2458 38.2923 22.9831 38.9788 23.1016 39.8617C23.2315 40.8338 22.7268 41.7212 21.8845 42.0678C21.0423 42.4144 20.0261 42.1818 19.4887 41.4084C19.0744 40.8112 19.0089 40.0728 19.3239 39.366C19.5497 38.8613 20.0894 38.3521 20.7386 38.2087C20.926 38.167 21.1529 38.1715 21.3494 38.1941V38.1929Z" fill="#AB97FB"/>
<path d="M14.3624 38.7067C15.5207 38.8105 16.3179 39.7533 16.2027 40.9252C16.1112 41.8522 15.4316 42.5454 14.5588 42.7035C13.6861 42.8615 12.8065 42.4641 12.4238 41.6523C12.1404 41.0517 12.1359 40.3562 12.4723 39.7522C12.7264 39.296 13.204 38.8218 13.8283 38.7597L14.3635 38.7067H14.3624Z" fill="#5DDEE5"/>
<path d="M20.8498 30.9095L22.5659 32.4529C22.7872 32.6528 22.8177 32.9136 22.6314 33.1304L21.0846 34.9233C20.9536 35.0226 20.6827 35.0802 20.5472 34.9628L18.8705 33.5109C18.6312 33.3031 18.5443 33.0367 18.7576 32.7883L20.3191 30.9694C20.4106 30.861 20.7233 30.8576 20.8486 30.9095H20.8498Z" fill="#FCC23D"/>
<path d="M15.9851 27.5789L16.0687 29.1257L19.8995 28.8671C20.2202 28.8457 20.6255 28.9766 20.7203 29.3165C20.866 29.8347 20.8389 30.3879 20.849 30.9107C20.7237 30.8588 20.411 30.8621 20.3195 30.9705L20.2314 29.8279C20.2235 29.7026 20.2134 29.5897 20.1456 29.5355C20.0835 29.4858 20.009 29.4655 19.8905 29.4734L11.3865 30.0786C11.1212 30.0978 10.9361 30.1599 10.9462 30.4783L11.0083 31.6197C10.8356 31.692 10.6504 31.6683 10.4652 31.6818L10.3648 30.2479C10.3422 29.7737 10.708 29.5366 11.1438 29.505L15.4793 29.1855L15.4217 27.6308L15.9874 27.5778L15.9851 27.5789Z" fill="#C4D2F8"/>
<path d="M21.085 34.9234L21.3503 38.1931C21.1539 38.1716 20.927 38.166 20.7395 38.2077L20.6594 36.8066L14.3176 37.2785L14.3638 38.7045L13.8287 38.7576L13.7113 37.6195C13.6763 37.1702 13.8863 36.7287 14.3785 36.6926L20.6345 36.2218C20.5995 35.7295 20.5149 35.3558 20.5476 34.9618C20.6831 35.0792 20.9552 35.0205 21.085 34.9222V34.9234Z" fill="#C4D2F8"/>
</svg>
