<svg width="24" height="24" viewBox="0 0 24 24" fill="none" xmlns="http://www.w3.org/2000/svg">
<rect width="24" height="24" rx="12" fill="#3776AB"/>
<path d="M13.1595 5.91012L13.6232 6.01317L13.9993 6.14713L14.3033 6.30169L14.5351 6.46656L14.7103 6.64174L14.8391 6.81692L14.9215 6.98694L14.9731 7.14151L14.9937 7.27546L15.004 7.37851L14.9988 7.44549V10.1968L14.9731 10.5214L14.9061 10.8047L14.7979 11.0417L14.6639 11.2375L14.5093 11.3973L14.3393 11.5261L14.159 11.6239L13.9787 11.6961L13.8086 11.7476L13.6541 11.7837L13.5201 11.8043L13.4119 11.8146H10.336L9.98054 11.8403L9.67656 11.9125L9.41894 12.0258L9.2077 12.1649L9.03768 12.3298L8.89857 12.5101L8.79552 12.6956L8.71824 12.8862L8.66672 13.0666L8.63065 13.2314L8.61004 13.3706L8.59974 13.4788V15.0553H7.45079L7.3426 15.0399L7.19833 15.0038L7.03346 14.942L6.85313 14.8492L6.66765 14.7153L6.48217 14.5298L6.30184 14.2928L6.13697 13.9888L5.99271 13.6127L5.88451 13.1593L5.81238 12.6183L5.78662 11.9846L5.81753 11.356L5.89997 10.8202L6.02362 10.372L6.1885 10.0061L6.37398 9.71247L6.58006 9.48577L6.79646 9.31575L7.01285 9.19209L7.21894 9.10966L7.40442 9.05814L7.56929 9.03238L7.69295 9.02722H7.77538L7.8063 9.03238H12.0105V8.60474H9.00161L8.99646 7.18788L8.98616 6.99724L9.01192 6.82207L9.06859 6.66235L9.15618 6.51809L9.28499 6.38413L9.44471 6.26563L9.64049 6.16258L9.86719 6.06984L10.13 5.99256L10.4288 5.93073L10.7585 5.87921L11.1243 5.8483L11.5211 5.82769L11.9538 5.81738L12.6082 5.84314L13.1595 5.91012ZM9.91356 6.93026L9.79506 7.10029L9.75384 7.31153L9.79506 7.52277L9.91356 7.69795L10.0836 7.8113L10.2948 7.85767L10.5061 7.8113L10.6761 7.69795L10.7946 7.52277L10.8358 7.31153L10.7946 7.10029L10.6761 6.93026L10.5061 6.81692L10.2948 6.77055L10.0836 6.81692L9.91356 6.93026ZM16.6578 8.9654L16.8021 8.99631L16.967 9.05814L17.1473 9.15088L17.3328 9.28999L17.5183 9.47032L17.6986 9.71247L17.8635 10.0165L18.0077 10.3926L18.1159 10.846L18.188 11.3818L18.2138 12.0155L18.1829 12.6492L18.1005 13.1851L17.9768 13.6282L17.8119 13.994L17.6265 14.2877L17.4204 14.5195L17.204 14.6895L16.9876 14.8132L16.7815 14.8956L16.596 14.942L16.4311 14.9677L16.3075 14.9781L16.225 14.9729H11.9899V15.3954H14.9988L15.004 16.8174L15.0143 17.0029L14.9885 17.1781L14.9318 17.3378L14.8442 17.4872L14.7154 17.616L14.5557 17.7396L14.3599 17.8427L14.1332 17.9303L13.8705 18.0076L13.5716 18.0745L13.2419 18.1209L12.8761 18.157L12.4794 18.1776L12.0466 18.1827L11.3922 18.1621L10.841 18.09L10.3773 17.987L10.0011 17.8581L9.69717 17.7036L9.46531 17.5336L9.29014 17.3584L9.16133 17.1832L9.0789 17.0132L9.02737 16.8586L9.00677 16.7298L8.99646 16.6268L9.00161 16.5598V13.8085L9.02737 13.4788L9.09435 13.2005L9.20255 12.9635L9.33651 12.7677L9.49108 12.6029L9.6611 12.4792L9.84143 12.3762L10.0218 12.304L10.1918 12.2525L10.3463 12.2216L10.4803 12.201L10.5885 12.1907L10.6555 12.1855H13.6644L14.0199 12.1598L14.3239 12.0876L14.5815 11.9795L14.7927 11.8352L14.9627 11.6703L15.1019 11.49L15.2049 11.3045L15.2822 11.119L15.3337 10.9387L15.3698 10.7738L15.3904 10.6296L15.4007 10.5214V8.94479H16.4775L16.5496 8.94994L16.6578 8.9654ZM13.3243 16.3073L13.2058 16.4774L13.1646 16.6886L13.2058 16.8998L13.3243 17.0699L13.4944 17.1884L13.7056 17.2296L13.9168 17.1884L14.0869 17.0699L14.2054 16.8998L14.2466 16.6886L14.2054 16.4774L14.0869 16.3073L13.9168 16.1888L13.7056 16.1476L13.4944 16.1888L13.3243 16.3073Z" fill="white"/>
</svg>
