<svg width="24" height="24" viewBox="0 0 24 24" fill="none" xmlns="http://www.w3.org/2000/svg">
<rect width="24" height="24" rx="12" fill="#61DAFB"/>
<path d="M13.3008 12.0015C13.3008 12.3473 13.1635 12.679 12.919 12.9236C12.6745 13.1681 12.3429 13.3056 11.9971 13.3058C11.6512 13.3058 11.3194 13.1684 11.0748 12.9238C10.8302 12.6792 10.6927 12.3474 10.6927 12.0015C10.6927 11.6556 10.8301 11.324 11.0746 11.0794C11.3191 10.8348 11.6507 10.6973 11.9965 10.6971C12.3424 10.6971 12.6742 10.8345 12.9188 11.0792C13.1634 11.3238 13.3008 11.6555 13.3008 12.0015ZM14.8455 5.76562C14.0603 5.76562 13.0331 6.32563 11.9942 7.29513C10.9558 6.33088 9.928 5.77729 9.14342 5.77729C8.90425 5.77729 8.68667 5.83154 8.49825 5.93946C7.69617 6.40204 7.5165 7.84346 7.93067 9.65237C6.155 10.2007 5 11.0775 5 12.0015C5 12.929 6.16083 13.808 7.94175 14.3523C7.53108 16.1682 7.71425 17.612 8.51808 18.074C8.70475 18.183 8.92058 18.2344 9.16092 18.2344C9.9455 18.2344 10.9733 17.6744 12.0122 16.7037C13.0506 17.6685 14.0784 18.2221 14.863 18.2221C15.1022 18.2221 15.3197 18.1696 15.5082 18.0617C16.3097 17.5997 16.4899 16.1583 16.0757 14.3488C17.845 13.8051 19 12.9266 19 12.0015C19 11.074 17.8392 10.1949 16.0583 9.64946C16.4689 7.83529 16.2857 6.39037 15.4819 5.92779C15.2964 5.82046 15.0812 5.76621 14.8455 5.76562ZM14.8426 6.40146V6.40496C14.9738 6.40496 15.0794 6.43062 15.1681 6.47904C15.5566 6.70187 15.7252 7.54946 15.5939 8.63971C15.5624 8.90804 15.5111 9.19096 15.4481 9.47971C14.8881 9.34204 14.2779 9.23646 13.6357 9.16821C13.2507 8.64029 12.8511 8.16079 12.4486 7.74079C13.3772 6.87746 14.2493 6.40379 14.8432 6.40204L14.8426 6.40146ZM9.14342 6.41312C9.73375 6.41312 10.6099 6.88446 11.5409 7.74312C11.1407 8.16312 10.7417 8.63971 10.3626 9.16762C9.71683 9.23587 9.10608 9.34146 8.54667 9.48146C8.48133 9.19562 8.43292 8.91912 8.3985 8.65312C8.26433 7.56346 8.43 6.71646 8.815 6.49071C8.92583 6.43821 9.04833 6.41604 9.14342 6.41312ZM11.9912 8.19229C12.2567 8.46529 12.5221 8.77096 12.7846 9.10462C12.5279 9.09296 12.2654 9.08479 12 9.08479C11.7317 9.08479 11.4662 9.09062 11.2067 9.10462C11.4633 8.77096 11.7287 8.46587 11.9912 8.19229ZM12 9.72412C12.4317 9.72412 12.8616 9.74396 13.2845 9.77837C13.5213 10.1179 13.7523 10.4801 13.9746 10.8634C14.1916 11.2367 14.3888 11.6159 14.5684 11.9985C14.3888 12.3806 14.1916 12.7627 13.9775 13.136C13.7558 13.521 13.5266 13.8874 13.2892 14.2269C12.8645 14.2636 12.434 14.284 12 14.284C11.5683 14.284 11.1384 14.2636 10.7155 14.2298C10.4787 13.8903 10.2477 13.5275 10.0254 13.1448C9.80842 12.7715 9.61125 12.3923 9.43158 12.0096C9.60833 11.6264 9.80842 11.2437 10.0225 10.8698C10.2442 10.4848 10.4734 10.1196 10.7108 9.78012C11.1355 9.74279 11.566 9.72296 12 9.72296V9.72412ZM9.87958 9.87229C9.73958 10.0922 9.59958 10.3174 9.46892 10.549C9.33767 10.7765 9.21517 11.0051 9.0985 11.2338C8.94392 10.8511 8.81267 10.4696 8.70417 10.098C9.0775 10.0105 9.47125 9.93237 9.87958 9.87229ZM14.1146 9.87229C14.52 9.93237 14.9108 10.0065 15.2847 10.098C15.1797 10.4667 15.0485 10.8459 14.8997 11.2256C14.7831 10.9981 14.6606 10.7689 14.5264 10.5408C14.3952 10.3121 14.2552 10.0893 14.1152 9.87229H14.1146ZM15.9013 10.266C16.1837 10.3535 16.452 10.451 16.7034 10.5565C17.7137 10.9882 18.3671 11.5529 18.3671 12.0009C18.3642 12.4489 17.7108 13.0159 16.7005 13.4446C16.4555 13.5496 16.1872 13.6441 15.9101 13.7322C15.7467 13.1734 15.5332 12.5912 15.2684 11.9939C15.5309 11.4006 15.7409 10.8214 15.9013 10.2649V10.266ZM8.08758 10.2684C8.24975 10.8284 8.46383 11.41 8.72925 12.0067C8.46675 12.6 8.25558 13.1792 8.09575 13.7357C7.81342 13.6482 7.54508 13.5502 7.29658 13.444C6.28625 13.0141 5.63292 12.4489 5.63292 12.0009C5.63292 11.5529 6.28625 10.9847 7.29658 10.5565C7.54158 10.4515 7.80992 10.357 8.08758 10.2684ZM14.8997 12.765C15.0543 13.1483 15.1856 13.5304 15.2941 13.9014C14.9207 13.993 14.5264 14.0705 14.1181 14.1289C14.2581 13.9101 14.3981 13.6844 14.5293 13.4534C14.6606 13.2259 14.7825 12.9937 14.8997 12.765ZM9.0985 12.7767C9.21517 13.0054 9.33767 13.2335 9.47183 13.4621C9.606 13.6896 9.74308 13.9125 9.88308 14.1289C9.47767 14.0694 9.08683 13.9947 8.71292 13.9037C8.81792 13.5362 8.94975 13.1559 9.09792 12.7761L9.0985 12.7767ZM15.4533 14.5191C15.5187 14.8067 15.57 15.0838 15.6015 15.3492C15.7357 16.4389 15.57 17.2859 15.185 17.5122C15.0992 17.5647 14.9878 17.5869 14.8566 17.5869C14.2662 17.5869 13.3901 17.1161 12.4591 16.2569C12.8592 15.8369 13.2583 15.3609 13.6374 14.8335C14.2832 14.7647 14.8939 14.6591 15.4533 14.5191ZM8.5525 14.525C9.1125 14.6615 9.72267 14.767 10.3649 14.8353C10.7499 15.3632 11.1495 15.8427 11.552 16.2621C10.6216 17.1272 9.74833 17.6009 9.1545 17.6009C9.02617 17.598 8.91767 17.5717 8.83192 17.5239C8.44342 17.3022 8.27483 16.454 8.40608 15.3638C8.43758 15.0955 8.4895 14.8131 8.5525 14.525ZM11.2125 14.8983C11.4692 14.91 11.7317 14.9181 11.9971 14.9181C12.2654 14.9181 12.5308 14.9123 12.7904 14.8983C12.5337 15.232 12.2683 15.537 12.0058 15.8112C11.7404 15.537 11.475 15.232 11.2125 14.8983Z" fill="white"/>
</svg>
