<svg width="24" height="24" viewBox="0 0 24 24" fill="none" xmlns="http://www.w3.org/2000/svg">
<path fill-rule="evenodd" clip-rule="evenodd" d="M10.3634 2C12.5814 2.0002 14.7091 2.88181 16.2775 4.4502C17.8457 6.01855 18.7275 8.1454 18.7277 10.3633C18.7277 12.0173 18.2364 13.6344 17.3175 15.0098C17.1987 15.1875 17.0729 15.36 16.9415 15.5273L21.7072 20.293C22.0974 20.6835 22.0974 21.3166 21.7072 21.707C21.3167 22.0975 20.6837 22.0973 20.2931 21.707L15.5265 16.9404C14.9306 17.4085 14.2722 17.7977 13.5646 18.0908C12.0366 18.7238 10.3547 18.8889 8.73256 18.5664C7.11023 18.2437 5.61901 17.447 4.44936 16.2773C3.27987 15.1077 2.48396 13.6173 2.16127 11.9951C1.83858 10.3728 2.00387 8.6913 2.63686 7.16309C3.26988 5.63487 4.34158 4.32817 5.71694 3.40918C7.0922 2.4903 8.70943 2.00006 10.3634 2ZM10.3634 4C9.10501 4.00006 7.87462 4.37317 6.82827 5.07227C5.7818 5.77149 4.96617 6.76595 4.48452 7.92871C4.00298 9.09142 3.87669 10.3712 4.12221 11.6055C4.3678 12.8397 4.97453 13.9734 5.8644 14.8633C6.75429 15.7531 7.88798 16.359 9.12221 16.6045C10.3565 16.85 11.6363 16.7247 12.799 16.2432C13.9615 15.7616 14.9553 14.9456 15.6544 13.8994C16.3536 12.8529 16.7277 11.6218 16.7277 10.3633C16.7275 8.67584 16.0566 7.05754 14.8634 5.86426C13.6701 4.67091 12.0511 4.00016 10.3634 4Z" fill="black"/>
</svg>
