<svg width="24" height="24" viewBox="0 0 24 24" fill="none" xmlns="http://www.w3.org/2000/svg">
<path d="M10.3631 2.25C12.5148 2.25019 14.5789 3.10544 16.1004 4.62695C17.6217 6.14842 18.4771 8.2117 18.4773 10.3633C18.4773 11.968 18.0007 13.5368 17.1092 14.8711C16.9528 15.1052 16.7839 15.3297 16.6053 15.5449L21.5301 20.4697C21.8229 20.7626 21.8229 21.2374 21.5301 21.5303C21.2372 21.8231 20.7624 21.823 20.4695 21.5303L15.5447 16.6055C14.9225 17.1221 14.2239 17.5465 13.4686 17.8594C11.9861 18.4734 10.3539 18.6343 8.78008 18.3213C7.20641 18.0082 5.76038 17.2351 4.62579 16.1006C3.49126 14.9659 2.7191 13.52 2.40606 11.9463C2.09304 10.3725 2.253 8.74125 2.867 7.25879C3.48106 5.77634 4.52113 4.5087 5.85528 3.61719C7.18944 2.72577 8.75854 2.25006 10.3631 2.25ZM10.3631 3.75C9.05532 3.75006 7.77669 4.13778 6.68926 4.86426C5.60168 5.59096 4.75429 6.62456 4.25372 7.83301C3.75319 9.04145 3.62158 10.3714 3.87676 11.6543C4.13201 12.937 4.76249 14.1152 5.68731 15.04C6.61219 15.9648 7.79027 16.5954 9.07305 16.8506C10.3559 17.1057 11.6859 16.9742 12.8943 16.4736C14.1026 15.9731 15.1355 15.1255 15.8621 14.0381C16.5888 12.9505 16.9773 11.6713 16.9773 10.3633C16.9771 8.60953 16.2799 6.92766 15.0398 5.6875C13.7996 4.44727 12.117 3.75016 10.3631 3.75Z" fill="black"/>
</svg>
