<svg width="24" height="24" viewBox="0 0 24 24" fill="none" xmlns="http://www.w3.org/2000/svg">
<rect width="24" height="24" rx="12" fill="#77BC1F"/>
<path d="M17.2956 6.20614C17.1145 6.64057 16.8827 7.05207 16.605 7.43206C15.3882 6.21593 13.7383 5.53268 12.0179 5.53247C8.46005 5.53247 5.53223 8.46272 5.53223 12.0245C5.53219 12.904 5.71074 13.7744 6.05706 14.5829C6.40338 15.3914 6.91026 16.1212 7.54697 16.728L7.78618 16.9401C8.95522 17.9257 10.4349 18.4668 11.964 18.4677C15.3466 18.4677 18.1902 15.817 18.431 12.4388C18.6079 10.7851 18.1228 8.69343 17.2956 6.20614ZM8.46843 16.7649C8.41636 16.8291 8.35062 16.8808 8.27602 16.9164C8.20142 16.9519 8.11983 16.9704 8.0372 16.9704C7.73233 16.9704 7.48293 16.7195 7.48293 16.4146C7.48293 16.1099 7.73395 15.8589 8.0372 15.8589C8.16347 15.8589 8.28822 15.9027 8.3859 15.9836C8.62339 16.1755 8.66046 16.5275 8.46843 16.7649ZM17.2688 14.8216C15.6684 16.9553 12.2503 16.2361 10.0587 16.3389C10.0587 16.3389 9.6696 16.3625 9.27877 16.4264C9.27877 16.4264 9.42525 16.3641 9.61566 16.2917C11.1537 15.7562 11.8814 15.6518 12.8163 15.1718C14.5767 14.2759 16.3169 12.3157 16.6791 10.2763C16.0087 12.2383 13.977 13.924 12.1257 14.6094C10.8572 15.0776 8.56611 15.5323 8.56611 15.5323L8.47348 15.4834C6.91361 14.7239 6.86633 11.3441 9.70152 10.2528C10.9431 9.7745 12.1307 10.0372 13.4717 9.71722C14.9036 9.3771 16.5595 8.30261 17.2333 6.90153C17.988 9.14305 18.8961 12.6525 17.2688 14.8216Z" fill="white"/>
</svg>
