<svg width="25" height="24" viewBox="0 0 25 24" fill="none" xmlns="http://www.w3.org/2000/svg">
<g clip-path="url(#clip0_1965_3052)">
<path d="M19.3147 12C19.3147 15.6123 16.2629 18.542 12.5001 18.542C8.7373 18.542 5.68555 15.6123 5.68555 12C5.68555 8.3877 8.7373 5.45801 12.5001 5.45801C16.2629 5.45801 19.3147 8.3877 19.3147 12Z" fill="url(#paint0_radial_1965_3052)"/>
<g opacity="0.2" style="mix-blend-mode:overlay">
<path d="M10.541 6.12887C11.8502 5.69527 13.2052 6.14645 13.5623 7.14254C13.9193 8.13863 13.1503 9.29586 11.838 9.73238C10.5258 10.166 9.17385 9.71481 8.81374 8.71871C8.45669 7.72262 9.22878 6.56539 10.538 6.12887H10.541Z" fill="white"/>
</g>
<g opacity="0.2" style="mix-blend-mode:overlay">
<path d="M6.47617 10.7871C6.702 10.0576 7.37033 9.60351 7.97153 9.77343C8.57273 9.94335 8.8779 10.6728 8.65512 11.4023C8.42929 12.1318 7.76096 12.5859 7.15976 12.416C6.55857 12.2461 6.25339 11.5166 6.47617 10.7842V10.7871Z" fill="white"/>
</g>
<path d="M11.338 2.23247L12.2108 0.187551C12.2749 0.0352069 12.4611 -0.0409649 12.6198 0.0234882C12.6991 0.0557147 12.7602 0.117238 12.7907 0.187551L13.6665 2.23247C13.929 2.85064 13.6238 3.55376 12.9799 3.80864C12.336 4.0606 11.6035 3.76763 11.338 3.14946C11.2068 2.84478 11.219 2.51372 11.338 2.23247Z" fill="url(#paint1_linear_1965_3052)"/>
<path d="M4.48377 5.88295L3.59571 3.84389C3.52857 3.69154 3.60486 3.51576 3.76355 3.45131C3.8429 3.41908 3.9314 3.42201 4.00464 3.45131L6.12867 4.30385C6.76953 4.56166 7.07166 5.26771 6.8031 5.88295C6.53455 6.49818 5.79908 6.78822 5.15821 6.53041C4.84082 6.40443 4.60584 6.1642 4.48377 5.88295Z" fill="url(#paint2_linear_1965_3052)"/>
<path d="M2.32596 13.1191L0.195833 12.2812C0.0371418 12.2197 -0.0422039 12.041 0.0249348 11.8886C0.0585041 11.8125 0.122591 11.7539 0.195833 11.7246L2.32596 10.8867C2.96988 10.6347 3.7023 10.9277 3.96781 11.5459C4.23026 12.164 3.92508 12.8672 3.28116 13.122C2.96378 13.2451 2.61893 13.2363 2.32596 13.122V13.1191Z" fill="url(#paint3_linear_1965_3052)"/>
<path d="M6.12829 19.6993L4.00427 20.5519C3.84558 20.6163 3.66247 20.5431 3.59534 20.3908C3.56177 20.3146 3.56482 20.2296 3.59534 20.1593L4.4834 18.1202C4.75195 17.505 5.48743 17.215 6.12829 17.4728C6.76916 17.7306 7.07129 18.4367 6.80273 19.0519C6.66846 19.3566 6.42126 19.5822 6.12829 19.6993Z" fill="url(#paint4_linear_1965_3052)"/>
<path d="M13.6657 21.7705L12.7899 23.8154C12.7258 23.9677 12.5427 24.0439 12.3809 23.9795C12.3016 23.9472 12.2405 23.8857 12.21 23.8154L11.3372 21.7705C11.0748 21.1523 11.3799 20.4492 12.0239 20.1943C12.6678 19.9423 13.4002 20.2353 13.6657 20.8535C13.7939 21.1582 13.7847 21.4892 13.6657 21.7705Z" fill="url(#paint5_linear_1965_3052)"/>
<path d="M20.5199 18.1173L21.408 20.1564C21.4751 20.3087 21.3988 20.4845 21.2401 20.549C21.1608 20.5812 21.0723 20.5783 20.999 20.549L18.875 19.6964C18.2342 19.4386 17.932 18.7326 18.2006 18.1173C18.4691 17.5021 19.2046 17.212 19.8455 17.4699C20.1629 17.5958 20.3978 17.8361 20.5199 18.1173Z" fill="url(#paint6_linear_1965_3052)"/>
<path d="M22.6744 10.8838L24.8045 11.7247C24.9632 11.7862 25.0395 11.9649 24.9754 12.1172C24.9418 12.1934 24.8777 12.252 24.8045 12.2813L22.6744 13.1192C22.0305 13.3711 21.298 13.0782 21.0325 12.46C20.7701 11.8418 21.0753 11.1387 21.7192 10.8838C22.0366 10.7579 22.3814 10.7696 22.6744 10.8838Z" fill="url(#paint7_linear_1965_3052)"/>
<path d="M18.8721 4.30371L20.9961 3.45118C21.1548 3.38672 21.3379 3.45996 21.4051 3.61231C21.4386 3.68848 21.4356 3.77344 21.4051 3.84375L20.517 5.88282C20.2484 6.49805 19.513 6.78809 18.8721 6.53028C18.2312 6.27246 17.9291 5.56641 18.1977 4.95117C18.3289 4.64649 18.5791 4.4209 18.8721 4.30371Z" fill="url(#paint8_linear_1965_3052)"/>
</g>
<defs>
<radialGradient id="paint0_radial_1965_3052" cx="0" cy="0" r="1" gradientUnits="userSpaceOnUse" gradientTransform="translate(9.9519 8.54004) scale(10.0769 9.67383)">
<stop offset="0.09" stop-color="#FAFF17"/>
<stop offset="0.17" stop-color="#FAEB16"/>
<stop offset="0.28" stop-color="#FAD616"/>
<stop offset="0.39" stop-color="#FAC916"/>
<stop offset="0.49" stop-color="#FAC516"/>
<stop offset="0.64" stop-color="#F3AE10"/>
<stop offset="0.96" stop-color="#E27502"/>
<stop offset="1" stop-color="#E06D00"/>
</radialGradient>
<linearGradient id="paint1_linear_1965_3052" x1="11.8385" y1="0.442434" x2="13.0889" y2="5.04827" gradientUnits="userSpaceOnUse">
<stop stop-color="#FFE40F"/>
<stop offset="0.2" stop-color="#FFCD0F"/>
<stop offset="0.54" stop-color="#FFAB0F"/>
<stop offset="0.81" stop-color="#FF970F"/>
<stop offset="1" stop-color="#FF900F"/>
</linearGradient>
<linearGradient id="paint2_linear_1965_3052" x1="3.52175" y1="4.27402" x2="7.76017" y2="6.7459" gradientUnits="userSpaceOnUse">
<stop stop-color="#FFE40F"/>
<stop offset="0.2" stop-color="#FFCD0F"/>
<stop offset="0.54" stop-color="#FFAB0F"/>
<stop offset="0.81" stop-color="#FF970F"/>
<stop offset="1" stop-color="#FF900F"/>
</linearGradient>
<linearGradient id="paint3_linear_1965_3052" x1="0.461336" y1="12.6357" x2="5.2015" y2="11.2425" gradientUnits="userSpaceOnUse">
<stop stop-color="#FFE40F"/>
<stop offset="0.2" stop-color="#FFCD0F"/>
<stop offset="0.54" stop-color="#FFAB0F"/>
<stop offset="0.81" stop-color="#FF970F"/>
<stop offset="1" stop-color="#FF900F"/>
</linearGradient>
<linearGradient id="paint4_linear_1965_3052" x1="4.45019" y1="20.6128" x2="6.72615" y2="16.38" gradientUnits="userSpaceOnUse">
<stop stop-color="#FFE40F"/>
<stop offset="0.2" stop-color="#FFCD0F"/>
<stop offset="0.54" stop-color="#FFAB0F"/>
<stop offset="0.81" stop-color="#FF970F"/>
<stop offset="1" stop-color="#FF900F"/>
</linearGradient>
<linearGradient id="paint5_linear_1965_3052" x1="13.1622" y1="23.5576" x2="11.9118" y2="18.9517" gradientUnits="userSpaceOnUse">
<stop stop-color="#FFE40F"/>
<stop offset="0.2" stop-color="#FFCD0F"/>
<stop offset="0.54" stop-color="#FFAB0F"/>
<stop offset="0.81" stop-color="#FF970F"/>
<stop offset="1" stop-color="#FF900F"/>
</linearGradient>
<linearGradient id="paint6_linear_1965_3052" x1="21.4745" y1="19.719" x2="17.2361" y2="17.2472" gradientUnits="userSpaceOnUse">
<stop stop-color="#FFE40F"/>
<stop offset="0.2" stop-color="#FFCD0F"/>
<stop offset="0.54" stop-color="#FFAB0F"/>
<stop offset="0.81" stop-color="#FF970F"/>
<stop offset="1" stop-color="#FF900F"/>
</linearGradient>
<linearGradient id="paint7_linear_1965_3052" x1="24.5421" y1="11.3643" x2="19.8019" y2="12.7575" gradientUnits="userSpaceOnUse">
<stop stop-color="#FFE40F"/>
<stop offset="0.2" stop-color="#FFCD0F"/>
<stop offset="0.54" stop-color="#FFAB0F"/>
<stop offset="0.81" stop-color="#FF970F"/>
<stop offset="1" stop-color="#FF900F"/>
</linearGradient>
<linearGradient id="paint8_linear_1965_3052" x1="20.5436" y1="3.37809" x2="18.2718" y2="7.61068" gradientUnits="userSpaceOnUse">
<stop stop-color="#FFE40F"/>
<stop offset="0.2" stop-color="#FFCD0F"/>
<stop offset="0.54" stop-color="#FFAB0F"/>
<stop offset="0.81" stop-color="#FF970F"/>
<stop offset="1" stop-color="#FF900F"/>
</linearGradient>
<clipPath id="clip0_1965_3052">
<rect width="25" height="24" fill="white"/>
</clipPath>
</defs>
</svg>
