<svg width="24" height="24" viewBox="0 0 24 24" fill="none" xmlns="http://www.w3.org/2000/svg">
<rect width="24" height="24" rx="12" fill="#FF3E00"/>
<path d="M11.0624 17.1981C10.5613 17.3283 10.0323 17.3016 9.54695 17.1216C9.06154 16.9416 8.64307 16.617 8.34804 16.1916C8.16684 15.9381 8.03809 15.6509 7.96932 15.347C7.90056 15.0431 7.89317 14.7285 7.94758 14.4217C7.96614 14.3209 7.99164 14.2216 8.02392 14.1244L8.08373 13.9415L8.24721 14.0611C8.62387 14.3378 9.045 14.5482 9.49244 14.6832L9.61092 14.7191L9.59953 14.8375C9.58531 15.0054 9.63091 15.1729 9.72827 15.3103C9.81705 15.4385 9.94304 15.5364 10.0892 15.5907C10.2354 15.645 10.3948 15.6531 10.5457 15.614C10.6148 15.5956 10.6807 15.5668 10.7411 15.5285L13.9254 13.4995C14.0031 13.4503 14.0698 13.3856 14.1212 13.3093C14.1726 13.233 14.2076 13.1468 14.2238 13.0563C14.2402 12.9638 14.2381 12.869 14.2174 12.7773C14.1968 12.6857 14.1581 12.5991 14.1037 12.5225C14.0148 12.3944 13.8888 12.2966 13.7426 12.2423C13.5965 12.188 13.4372 12.1798 13.2862 12.2189C13.2171 12.2373 13.1512 12.2661 13.0908 12.3044L11.8758 13.0791C11.676 13.2062 11.458 13.3021 11.2293 13.3633C10.7283 13.4936 10.1993 13.4669 9.71395 13.287C9.22856 13.1071 8.81005 12.7826 8.51494 12.3573C8.33374 12.1037 8.20503 11.8165 8.13636 11.5125C8.06769 11.2084 8.06045 10.8938 8.11506 10.5869C8.16905 10.2862 8.28519 10.0001 8.45606 9.74683C8.62692 9.49357 8.84875 9.27875 9.10737 9.1161L12.2911 7.08649C12.4908 6.95929 12.7088 6.86343 12.9376 6.80224C13.4387 6.67205 13.9676 6.69876 14.453 6.87876C14.9384 7.05876 15.3569 7.38338 15.6519 7.80879C15.8331 8.06229 15.9619 8.34941 16.0306 8.65333C16.0994 8.95725 16.1068 9.27184 16.0524 9.57865C16.0337 9.67939 16.0082 9.77874 15.976 9.876L15.9162 10.0589L15.7533 9.93923C15.3766 9.66223 14.9552 9.45166 14.5075 9.31662L14.389 9.28073L14.4004 9.16281C14.4147 8.99478 14.3691 8.82711 14.2717 8.68945C14.1828 8.56134 14.0568 8.46359 13.9106 8.40939C13.7644 8.3552 13.6052 8.34717 13.4543 8.3864C13.3852 8.40475 13.3193 8.43357 13.2589 8.47184L10.0746 10.5009C9.99679 10.55 9.93005 10.6147 9.87866 10.691C9.82727 10.7673 9.79234 10.8535 9.77612 10.9441C9.75965 11.0366 9.7618 11.1314 9.78244 11.2231C9.80308 11.3147 9.84179 11.4013 9.89631 11.4778C9.98515 11.606 10.1111 11.7038 10.2573 11.7581C10.4035 11.8124 10.5628 11.8205 10.7137 11.7814C10.7831 11.7629 10.8491 11.7339 10.9097 11.6954L12.1242 10.9207C12.3239 10.7937 12.542 10.698 12.7707 10.637C13.2717 10.5068 13.8006 10.5334 14.286 10.7133C14.7714 10.8932 15.1899 11.2177 15.485 11.643C15.6662 11.8966 15.7949 12.1839 15.8636 12.4879C15.9323 12.7919 15.9395 13.1066 15.8849 13.4134C15.8309 13.7142 15.7148 14.0004 15.5439 14.2538C15.3731 14.5071 15.1512 14.7221 14.8926 14.8848L11.7089 16.9139C11.5092 17.0411 11.2911 17.1369 11.0624 17.1981ZM16.9627 6.97313C15.6935 5.15599 13.186 4.61768 11.3734 5.7729L8.18911 7.80195C7.75909 8.07259 7.39027 8.42996 7.10621 8.85124C6.82216 9.27252 6.62912 9.74842 6.53944 10.2485C6.38751 11.0911 6.52101 11.9603 6.91882 12.7185C6.64616 13.1318 6.46013 13.5961 6.37197 14.0833C6.28137 14.5935 6.29355 15.1167 6.4078 15.6221C6.52205 16.1275 6.73607 16.605 7.0373 17.0267C8.30703 18.8438 10.814 19.3821 12.6266 18.2274L15.8109 16.1984C16.2409 15.9278 16.6098 15.5705 16.8938 15.1492C17.1779 14.7279 17.3709 14.252 17.4605 13.7518C17.6125 12.9093 17.4792 12.0401 17.0817 11.2819C17.354 10.8685 17.5396 10.4042 17.6274 9.91701C17.7182 9.40677 17.7062 8.88353 17.5921 8.378C17.4779 7.87247 17.2639 7.39483 16.9627 6.97313Z" fill="white"/>
</svg>
