<svg width="24" height="24" viewBox="0 0 24 24" fill="none" xmlns="http://www.w3.org/2000/svg">
<rect width="24" height="24" rx="12" fill="#F05138"/>
<path d="M16.719 13.6985C17.3851 11.0542 15.7598 7.93036 13.0223 6.28516V6.29182C14.2212 7.91704 14.7541 9.88861 14.2812 11.6137C14.2412 11.7669 14.1946 11.9135 14.1346 12.06C14.0747 12.02 13.9947 11.9801 13.8948 11.9201C13.8948 11.9201 11.1706 10.235 8.21323 7.25762C8.1333 7.17769 9.78516 9.61552 11.6635 11.6004C10.7843 11.1009 8.3198 9.30913 6.76119 7.88373C6.96101 8.20345 7.18748 8.5165 7.43393 8.80291C8.73943 10.4548 10.4379 12.493 12.4694 14.0582C11.0374 14.9308 9.01918 14.9974 7.00764 14.0582C6.50809 13.8251 6.04183 13.5454 5.60889 13.2256C6.50809 14.6577 7.82025 15.7767 9.36554 16.4494C11.2638 17.262 13.1622 17.2088 14.5676 16.4628V16.4561H14.5809C14.6408 16.4228 14.7074 16.3828 14.7674 16.3495C15.4468 15.9965 16.7789 15.6501 17.4916 17.0422C17.6648 17.3819 18.0378 15.5702 16.6657 13.8784C16.6857 13.8184 16.7057 13.7585 16.719 13.6985Z" fill="white"/>
</svg>
