<svg width="24" height="24" viewBox="0 0 24 24" fill="none" xmlns="http://www.w3.org/2000/svg">
<rect width="24" height="24" rx="12" fill="#3178C6"/>
<path fill-rule="evenodd" clip-rule="evenodd" d="M13.4644 17.0396V18.8359C13.7564 18.9855 14.1018 19.098 14.5011 19.1728C14.9004 19.2476 15.3205 19.2853 15.7621 19.2853C16.2037 19.2853 16.6017 19.2443 16.9893 19.1617C17.3769 19.0791 17.717 18.9438 18.0091 18.7546C18.3011 18.5653 18.5326 18.3189 18.703 18.0138C18.8734 17.7088 18.9586 17.3316 18.9586 16.8829C18.9586 16.5571 18.9098 16.2722 18.8122 16.027C18.7147 15.7819 18.5742 15.564 18.3908 15.3734C18.2074 15.1829 17.9869 15.0112 17.7307 14.8597C17.4738 14.7081 17.1851 14.565 16.8625 14.4304C16.6264 14.3329 16.415 14.2386 16.2277 14.1469C16.0404 14.0552 15.8811 13.9615 15.7504 13.8659C15.619 13.7703 15.5182 13.6695 15.4473 13.5629C15.3764 13.4562 15.3407 13.3359 15.3407 13.2006C15.3407 13.077 15.3725 12.9658 15.4363 12.867C15.5 12.7681 15.5898 12.6829 15.7062 12.6114C15.8226 12.5405 15.9644 12.4852 16.1334 12.4456C16.3019 12.4065 16.4892 12.3864 16.6953 12.3864C16.8449 12.3864 17.0036 12.3974 17.1701 12.4202C17.3366 12.443 17.5044 12.4774 17.6728 12.5243C17.8413 12.5711 18.0051 12.6296 18.1645 12.7011C18.3238 12.772 18.4708 12.8546 18.6054 12.9483V11.2697C18.3323 11.165 18.0331 11.087 17.7092 11.0369C17.3854 10.9868 17.0134 10.9608 16.5939 10.9608C16.1744 10.9608 15.7627 11.007 15.3803 11.098C14.9986 11.1897 14.6624 11.3328 14.3717 11.5273C14.0816 11.7217 13.852 11.9702 13.6836 12.2713C13.5151 12.5724 13.4306 12.9327 13.4306 13.3521C13.4306 13.8874 13.5854 14.3439 13.8943 14.7218C14.2032 15.0996 14.6721 15.4196 15.3017 15.6817C15.5488 15.7825 15.779 15.882 15.9923 15.9789C16.2056 16.0765 16.3903 16.1773 16.5458 16.282C16.7012 16.3867 16.8241 16.5011 16.9139 16.6241C17.0036 16.747 17.0485 16.8881 17.0485 17.0448C17.0485 17.1606 17.0205 17.2685 16.9639 17.3674C16.908 17.4663 16.8228 17.5527 16.7084 17.6256C16.5939 17.6984 16.4515 17.7557 16.2811 17.7966C16.1107 17.8376 15.911 17.8584 15.6828 17.8584C15.2932 17.8584 14.9075 17.7901 14.5258 17.6536C14.1434 17.517 13.7896 17.3121 13.4638 17.039L13.4644 17.0396ZM10.4702 12.5691H12.7802V11.0902H6.3418V12.5691H8.64013V19.1546H10.4702V12.5691Z" fill="white"/>
</svg>
