<svg width="24" height="24" viewBox="0 0 24 24" fill="none" xmlns="http://www.w3.org/2000/svg">
<rect width="24" height="24" rx="12" fill="black"/>
<path d="M12.525 7.64831L14.6704 8.88694C14.7479 8.92986 14.7498 9.05165 14.67 9.09457L12.1201 10.5668C12.0431 10.6112 11.9516 10.6082 11.8797 10.5668L9.32999 9.09476C9.25205 9.05221 9.2498 8.92986 9.32999 8.88694L11.475 7.6485V5.22339L6 8.38434V14.7064L8.10002 13.494V11.0165C8.09851 10.9279 8.20299 10.8655 8.27998 10.9132L10.8299 12.3854C10.9069 12.4298 10.95 12.5106 10.95 12.5936V15.5377C10.9521 15.626 10.8482 15.6892 10.771 15.6422L8.62502 14.4032L6.525 15.6156L12 18.7766L17.475 15.6156L15.375 14.4032L13.2296 15.6418C13.1535 15.6875 13.0472 15.6282 13.05 15.5377V12.5932C13.05 12.5042 13.0984 12.4266 13.1703 12.3852L15.72 10.9132C15.7959 10.867 15.903 10.9263 15.9 11.0171V13.494L18 14.7064V8.38434L12.525 5.22339V7.64831Z" fill="white"/>
</svg>
